<svg width="956" height="153" viewBox="0 0 956 153" fill="none" xmlns="http://www.w3.org/2000/svg">
<rect width="956" height="550" transform="translate(0 -274)" fill="#082D42"/>
<rect y="-274" width="956" height="550" fill="#005C00"/>
<g opacity="0.6">
<path fill-rule="evenodd" clip-rule="evenodd" d="M841.246 -122V-75.7141C841.246 124.122 662.186 279.597 414 279.597V202.341C609.317 202.341 748.028 82.6138 748.028 -75.7141V-122H841.246Z" fill="url(#paint0_linear_23213_10522)"/>
<path fill-rule="evenodd" clip-rule="evenodd" d="M930.49 -110.201V-63.9092C930.49 167.694 719.744 345.055 438.499 345.055V267.799C667.691 267.799 837.273 125.502 837.273 -63.9092V-110.201H930.49Z" fill="url(#paint1_radial_23213_10522)"/>
</g>
<path d="M27.8775 77.9V72.86C21.0375 72.38 18.3175 68.5 17.9175 63.66H22.8775C23.1975 66.26 24.0775 68.46 27.8775 68.94V59.94C21.9575 58.94 18.8775 56.78 18.8775 51.7C18.8775 47.26 22.4375 43.94 27.8775 43.58V39.98H30.5575V43.62C35.7175 44.1 38.9175 46.78 39.3975 51.74H34.6775C34.2375 49.3 32.9975 47.9 30.5575 47.5V55.7C36.4775 56.66 39.9175 58.66 39.9175 64.06C39.9175 68.74 36.4375 72.46 30.5575 72.86V77.9H27.8775ZM34.9975 64.54C34.9975 62.26 34.0375 61.14 30.5575 60.38V68.94C33.2375 68.58 34.9975 66.9 34.9975 64.54ZM23.5975 51.26C23.5975 53.34 24.3575 54.54 27.8775 55.26V47.38C25.1175 47.7 23.5975 49.26 23.5975 51.26ZM43.2681 72.5L52.4681 57.82L43.9081 43.9H49.9081L55.9881 54.06L62.0281 43.9H67.5081L59.0681 57.7L68.2281 72.5H62.1481L55.4281 61.34L48.7081 72.5H43.2681ZM71.0806 72.5L80.2806 57.82L71.7206 43.9H77.7206L83.8006 54.06L89.8406 43.9H95.3206L86.8806 57.7L96.0406 72.5H89.9606L83.2406 61.34L76.5206 72.5H71.0806ZM101.573 77.42L98.5731 76.1L102.213 66.62L106.813 68.46L101.573 77.42ZM110.378 72.5L119.578 57.82L111.018 43.9H117.018L123.098 54.06L129.137 43.9H134.618L126.178 57.7L135.338 72.5H129.258L122.538 61.34L115.818 72.5H110.378ZM138.19 72.5L147.39 57.82L138.83 43.9H144.83L150.91 54.06L156.95 43.9H162.43L153.99 57.7L163.15 72.5H157.07L150.35 61.34L143.63 72.5H138.19ZM166.003 72.5L175.203 57.82L166.643 43.9H172.643L178.723 54.06L184.762 43.9H190.243L181.803 57.7L190.963 72.5H184.883L178.163 61.34L171.443 72.5H166.003ZM198.135 72.78C196.375 72.78 194.975 71.42 194.975 69.66C194.975 67.9 196.375 66.5 198.135 66.5C199.935 66.5 201.335 67.9 201.335 69.66C201.335 71.42 199.935 72.78 198.135 72.78ZM205.378 72.5L214.578 57.82L206.018 43.9H212.018L218.098 54.06L224.137 43.9H229.618L221.178 57.7L230.338 72.5H224.258L217.538 61.34L210.818 72.5H205.378ZM233.19 72.5L242.39 57.82L233.83 43.9H239.83L245.91 54.06L251.95 43.9H257.43L248.99 57.7L258.15 72.5H252.07L245.35 61.34L238.63 72.5H233.19Z" fill="white"/>
<path d="M16.459 108.5L20.522 96.345H23.48L27.492 108.5H25.146L24.177 105.491H19.536L18.584 108.5H16.459ZM21.865 98.198L20.063 103.842H23.65L21.865 98.198ZM30.7425 108.5L27.4955 99.609H29.7055L32.0345 106.392L34.3295 99.609H36.3525L33.1395 108.5H30.7425ZM40.0393 108.67C38.4073 108.67 37.0643 107.888 37.0643 106.035C37.0643 103.961 39.0703 103.213 41.6203 103.213H42.7253V102.754C42.7253 101.564 42.3173 100.969 41.1103 100.969C40.0393 100.969 39.5123 101.479 39.4103 102.363H37.4213C37.5913 100.289 39.2403 99.422 41.2293 99.422C43.2183 99.422 44.7823 100.238 44.7823 102.669V108.5H42.7593V107.412C42.1813 108.177 41.3993 108.67 40.0393 108.67ZM40.5323 107.191C41.7903 107.191 42.7253 106.528 42.7253 105.389V104.505H41.6713C40.1073 104.505 39.1043 104.862 39.1043 105.95C39.1043 106.698 39.5123 107.191 40.5323 107.191ZM47.191 108.5V99.609H49.248V108.5H47.191ZM48.194 98.147C47.514 98.147 46.97 97.637 46.97 96.974C46.97 96.294 47.514 95.784 48.194 95.784C48.874 95.784 49.418 96.294 49.418 96.974C49.418 97.637 48.874 98.147 48.194 98.147ZM51.8063 108.5V95.495H53.8633V108.5H51.8063ZM58.6995 108.67C57.0675 108.67 55.7245 107.888 55.7245 106.035C55.7245 103.961 57.7305 103.213 60.2805 103.213H61.3855V102.754C61.3855 101.564 60.9775 100.969 59.7705 100.969C58.6995 100.969 58.1725 101.479 58.0705 102.363H56.0815C56.2515 100.289 57.9005 99.422 59.8895 99.422C61.8785 99.422 63.4425 100.238 63.4425 102.669V108.5H61.4195V107.412C60.8415 108.177 60.0595 108.67 58.6995 108.67ZM59.1925 107.191C60.4505 107.191 61.3855 106.528 61.3855 105.389V104.505H60.3315C58.7675 104.505 57.7645 104.862 57.7645 105.95C57.7645 106.698 58.1725 107.191 59.1925 107.191ZM70.7642 108.67C69.3532 108.67 68.3332 107.973 67.8572 107.072V108.5H65.8002V95.495H67.8572V101.037C68.3502 100.187 69.4552 99.422 70.7642 99.422C72.9912 99.422 74.7082 101.071 74.7082 103.944V104.08C74.7082 106.936 73.0592 108.67 70.7642 108.67ZM70.2542 107.038C71.7672 107.038 72.6002 106.018 72.6002 104.114V103.978C72.6002 102.006 71.5802 101.037 70.2372 101.037C68.8092 101.037 67.7892 102.006 67.7892 103.978V104.114C67.7892 106.103 68.7582 107.038 70.2542 107.038ZM76.609 108.5V95.495H78.666V108.5H76.609ZM85.0832 108.67C82.4652 108.67 80.5782 106.953 80.5782 104.148V104.012C80.5782 101.258 82.4652 99.422 84.9982 99.422C87.2082 99.422 89.1972 100.731 89.1972 103.91V104.505H82.6862C82.7542 106.188 83.6042 107.14 85.1342 107.14C86.3752 107.14 87.0212 106.647 87.1742 105.78H89.1632C88.8742 107.65 87.3612 108.67 85.0832 108.67ZM82.7202 103.128H87.1572C87.0552 101.598 86.2732 100.918 84.9982 100.918C83.7572 100.918 82.9242 101.751 82.7202 103.128ZM100.576 108.67C96.7683 108.67 94.6433 106.239 94.6433 102.499V102.363C94.6433 98.708 97.1593 96.158 100.542 96.158C103.33 96.158 105.489 97.552 105.761 100.408H103.466C103.211 98.793 102.31 97.96 100.559 97.96C98.4173 97.96 97.0233 99.626 97.0233 102.346V102.482C97.0233 105.219 98.3323 106.834 100.576 106.834C102.259 106.834 103.449 105.984 103.687 104.267H105.897C105.54 107.191 103.466 108.67 100.576 108.67ZM107.686 108.5V99.609H109.743V101.275C110.304 100.153 111.137 99.49 112.633 99.473V101.394C110.831 101.411 109.743 101.989 109.743 103.876V108.5H107.686ZM118.187 108.67C115.569 108.67 113.682 106.953 113.682 104.148V104.012C113.682 101.258 115.569 99.422 118.102 99.422C120.312 99.422 122.301 100.731 122.301 103.91V104.505H115.79C115.858 106.188 116.708 107.14 118.238 107.14C119.479 107.14 120.125 106.647 120.278 105.78H122.267C121.978 107.65 120.465 108.67 118.187 108.67ZM115.824 103.128H120.261C120.159 101.598 119.377 100.918 118.102 100.918C116.861 100.918 116.028 101.751 115.824 103.128ZM127.47 108.67C125.243 108.67 123.56 107.089 123.56 104.199V104.063C123.56 101.224 125.243 99.422 127.555 99.422C129 99.422 129.901 100.085 130.394 100.969V95.495H132.451V108.5H130.394V107.004C129.918 107.888 128.779 108.67 127.47 108.67ZM127.98 107.038C129.408 107.038 130.462 106.086 130.462 104.097V103.961C130.462 102.006 129.561 101.037 128.065 101.037C126.552 101.037 125.668 102.091 125.668 104.012V104.148C125.668 106.103 126.654 107.038 127.98 107.038ZM134.947 108.5V99.609H137.004V108.5H134.947ZM135.95 98.147C135.27 98.147 134.726 97.637 134.726 96.974C134.726 96.294 135.27 95.784 135.95 95.784C136.63 95.784 137.174 96.294 137.174 96.974C137.174 97.637 136.63 98.147 135.95 98.147ZM142.537 108.653C140.769 108.653 139.851 107.701 139.851 106.018V101.156H138.661V99.609H139.851V97.654H141.908V99.609H143.863V101.156H141.908V105.831C141.908 106.613 142.282 106.97 142.928 106.97C143.336 106.97 143.642 106.919 143.931 106.8V108.432C143.608 108.551 143.166 108.653 142.537 108.653Z" fill="white"/>
<defs>
<linearGradient id="paint0_linear_23213_10522" x1="644.776" y1="179" x2="724.835" y2="-5.92457" gradientUnits="userSpaceOnUse">
<stop offset="0.47" stop-color="#007D00"/>
<stop offset="0.997525" stop-color="#3D9C3D"/>
</linearGradient>
<radialGradient id="paint1_radial_23213_10522" cx="0" cy="0" r="1" gradientTransform="matrix(-64.968 131.119 -141.26 -58.1866 793.172 77.818)" gradientUnits="userSpaceOnUse">
<stop offset="0.47" stop-color="#007D00"/>
<stop offset="1" stop-color="#3D9C3D"/>
</radialGradient>
</defs>
</svg>
