<svg width="37" height="29" viewBox="0 0 37 29" fill="none" xmlns="http://www.w3.org/2000/svg">
<path d="M6.52332 27.7225C6.24694 27.7156 5.99326 27.5478 5.91176 27.2622L0.188487 9.60904C0.120574 9.37104 0.172729 9.13309 0.326812 8.95186C0.480891 8.77062 0.739163 8.71408 0.977016 8.76632L36.1608 17.9958C36.4395 18.0707 36.6478 18.3201 36.65 18.6284C36.6522 18.9366 36.4642 19.179 36.1787 19.2605L6.69776 27.6728C6.69776 27.6728 6.57089 27.709 6.52332 27.7225ZM1.81035 10.3645L6.96762 26.2745L33.5306 18.6949L1.81035 10.3645Z" fill="#507F70"/>
<path d="M10.6625 26.3016C10.3861 26.2946 10.1325 26.1268 10.051 25.8412L9.02764 22.7358L5.44363 23.7585C5.09474 23.8581 4.7278 23.6539 4.6282 23.3048C4.52859 22.9558 4.73254 22.5887 5.08142 22.4892L9.26807 21.2945C9.6011 21.1995 9.96804 21.4036 10.079 21.7323L11.2902 25.4361C11.3898 25.7852 11.2176 26.1432 10.8732 26.2586C10.8098 26.2767 10.7305 26.2993 10.658 26.2857L10.6625 26.3016Z" fill="#507F70"/>
</svg>
