<svg width="24" height="18" viewBox="0 0 24 18" fill="none" xmlns="http://www.w3.org/2000/svg">
<path d="M4.0956 17.4053C3.92208 17.401 3.76281 17.2956 3.71164 17.1163L0.118339 6.03294C0.0757007 5.88351 0.108445 5.73412 0.205184 5.62034C0.301923 5.50655 0.464075 5.47105 0.613408 5.50385L22.7032 11.2985C22.8782 11.3455 23.009 11.5021 23.0104 11.6956C23.0118 11.8892 22.8937 12.0414 22.7145 12.0925L4.20512 17.3741C4.20512 17.3741 4.12547 17.3968 4.0956 17.4053ZM1.13661 6.50725L4.37456 16.4962L21.0519 11.7374L1.13661 6.50725Z" fill="#507F70"/>
<path d="M6.69416 16.5117C6.52064 16.5074 6.36137 16.402 6.3102 16.2227L5.66772 14.273L3.41753 14.9151C3.19849 14.9776 2.96811 14.8494 2.90557 14.6303C2.84303 14.4111 2.97108 14.1806 3.19013 14.1181L5.81867 13.3681C6.02776 13.3084 6.25814 13.4366 6.32779 13.643L7.08825 15.9684C7.15079 16.1875 7.04264 16.4123 6.82644 16.4848C6.78661 16.4961 6.73683 16.5103 6.69132 16.5018L6.69416 16.5117Z" fill="#507F70"/>
</svg>
