<svg width="540" height="540" viewBox="0 0 540 540" fill="none" xmlns="http://www.w3.org/2000/svg">
<g clip-path="url(#clip0_9536_1693)">
<path d="M386 161.523L374.433 156.252L374.226 156.446C373.465 156.262 372.659 156.197 371.832 156.284L65.4984 185.631C60.6779 186.097 57 190.124 57 194.941V386.559L65.1719 391.246L69.024 385.411L379.819 355.642V163.515C379.819 163.364 379.809 163.223 379.798 163.071L385.989 161.534L386 161.523Z" fill="#B6D3AB"/>
<path d="M525.978 447.086V438.227L519.988 441.846L388.092 369.246L123.864 394.483L65 391.944V400.101L215.922 480.393C218.666 481.851 221.77 482.467 224.863 482.176L522.34 451.429C524.693 451.202 526.032 449.279 525.999 447.345C525.999 447.248 525.989 447.161 525.978 447.064V447.086Z" fill="#B6D3AB"/>
<path d="M388 360.26L65 391.246V195.006C65 192.598 66.84 190.581 69.2352 190.353L382.861 160.267C385.616 160.007 388 162.165 388 164.92V360.26Z" fill="#88B776"/>
<path d="M77.1766 197.873L374.149 169.262C376.216 169.066 378 170.688 378 172.768V348.103C378 349.91 376.629 351.434 374.823 351.608L77.8511 380.23C75.7841 380.426 74 378.804 74 376.724V201.39C74 199.582 75.3707 198.058 77.1766 197.884V197.873Z" fill="#2C681A"/>
<path d="M522.092 442.163L224.592 473.176C221.673 473.46 218.733 472.881 216.141 471.504L65 391.455L388.093 360.246L523.693 434.025C527.483 436.035 526.361 441.759 522.092 442.163Z" fill="#499B2D"/>
<path d="M178 395.659L117.79 401.246L108 397.018L169.025 391.246L178 395.659Z" fill="#2C681A"/>
<path d="M245 389.218L184.742 394.246L177 390.265L236.008 385.246L245 389.218Z" fill="#2C681A"/>
<path d="M393 374.721L251.67 388.246L244 383.782L384.102 370.246L393 374.721Z" fill="#2C681A"/>
<path d="M198 405.659L137.789 411.246L128 407.018L189.015 401.246L198 405.659Z" fill="#2C681A"/>
<path d="M265 399.112L203.857 405.246L196 400.392L255.885 394.246L265 399.112Z" fill="#2C681A"/>
<path d="M413 384.721L270.721 398.246L263 393.782L404.032 380.246L413 384.721Z" fill="#2C681A"/>
<path d="M218 416.659L157.79 422.246L148 418.018L209.025 412.246L218 416.659Z" fill="#2C681A"/>
<path d="M285 410.228L224.732 415.246L217 411.274L276.007 406.246L285 410.228Z" fill="#2C681A"/>
<path d="M434 395.721L291.721 409.246L284 404.782L425.032 391.246L434 395.721Z" fill="#2C681A"/>
<path d="M237 427.67L176.79 433.246L167 429.029L228.025 423.246L237 427.67Z" fill="#2C681A"/>
<path d="M304 421.112L242.855 427.246L235 422.392L294.876 416.246L304 421.112Z" fill="#2C681A"/>
<path d="M452 407.71L309.711 421.246L302 416.771L443.042 403.246L452 407.71Z" fill="#2C681A"/>
<path d="M262.074 435.233L393.933 422.272C394.928 422.173 395.934 422.36 396.821 422.823L432.106 440.942C433.555 441.692 433.155 443.907 431.533 444.072L303.395 457.21C302.129 457.342 300.853 457.111 299.706 456.538L261.663 437.537C260.592 436.997 260.884 435.365 262.074 435.244V435.233Z" fill="#2C681A"/>
<path d="M252.483 233.559L255 233.31L227.5 210.246L200 238.651L201.906 238.468V265.381L200 265.565V268.246L255 262.894V260.212L252.483 260.461V233.548V233.559ZM208.224 264.775V237.862L216.652 237.04V263.953L208.224 264.775ZM222.981 263.337V236.424L231.409 235.602V262.515L222.981 263.337ZM237.738 261.899V234.986L246.165 234.164V261.077L237.738 261.899Z" fill="#499B2D"/>
<path d="M230.428 227.465C231.973 225.844 232.031 223.392 230.558 221.988C229.084 220.584 226.638 220.76 225.093 222.381C223.548 224.002 223.49 226.455 224.964 227.859C226.437 229.263 228.883 229.087 230.428 227.465Z" fill="#88B776"/>
<path d="M305.399 296.56L154.601 311.216C150.96 311.565 148 308.871 148 305.196V291.238C148 287.564 150.96 284.292 154.601 283.932L305.399 269.277C309.04 268.928 312 271.621 312 275.296V289.254C312 292.929 309.04 296.2 305.399 296.56ZM154.601 286.288C152.246 286.517 150.334 288.632 150.334 291.009V304.967C150.334 307.345 152.246 309.089 154.601 308.86L305.399 294.204C307.754 293.975 309.666 291.86 309.666 289.483V275.525C309.666 273.148 307.754 271.403 305.399 271.632L154.601 286.288Z" fill="#88B776"/>
<path d="M166.711 300.788C168.786 298.61 168.865 295.318 166.887 293.433C164.91 291.549 161.625 291.786 159.55 293.964C157.475 296.141 157.396 299.434 159.373 301.318C161.351 303.203 164.636 302.965 166.711 300.788Z" fill="#499B2D"/>
<path d="M182.996 299.21C185.071 297.032 185.15 293.74 183.173 291.855C181.196 289.971 177.91 290.208 175.836 292.386C173.761 294.563 173.682 297.856 175.659 299.74C177.636 301.625 180.922 301.387 182.996 299.21Z" fill="#499B2D"/>
<path d="M305.399 336.56L154.601 351.216C150.96 351.565 148 348.871 148 345.196V331.238C148 327.564 150.96 324.292 154.601 323.932L305.399 309.277C309.04 308.928 312 311.621 312 315.296V329.254C312 332.929 309.04 336.2 305.399 336.56ZM154.601 326.288C152.246 326.517 150.334 328.632 150.334 331.009V344.967C150.334 347.345 152.246 349.089 154.601 348.86L305.399 334.204C307.754 333.975 309.666 331.86 309.666 329.483V315.525C309.666 313.148 307.754 311.403 305.399 311.632L154.601 326.288Z" fill="#88B776"/>
<path d="M166.714 340.819C168.789 338.642 168.868 335.349 166.89 333.465C164.913 331.58 161.628 331.818 159.553 333.995C157.478 336.172 157.399 339.465 159.376 341.35C161.354 343.234 164.639 342.996 166.714 340.819Z" fill="#499B2D"/>
<path d="M182.999 339.257C185.074 337.079 185.153 333.787 183.175 331.902C181.198 330.018 177.913 330.255 175.838 332.433C173.763 334.61 173.684 337.903 175.662 339.787C177.639 341.671 180.924 341.434 182.999 339.257Z" fill="#499B2D"/>
<path d="M198.602 337.561C200.677 335.384 200.756 332.091 198.778 330.207C196.801 328.322 193.516 328.56 191.441 330.737C189.366 332.915 189.287 336.207 191.265 338.092C193.242 339.976 196.527 339.739 198.602 337.561Z" fill="#499B2D"/>
<path opacity="0.05" d="M97 196.934L239.495 364.246L269 361.44L125.313 194.246L97 196.934Z" fill="white"/>
<path opacity="0.05" d="M145 191.93L286.716 360.246L295 359.453L152.11 191.246L145 191.93Z" fill="white"/>
<path d="M425.132 177.198C448.055 153.143 448.927 116.765 427.08 95.9451C405.233 75.1256 368.939 77.7486 346.015 101.804C323.092 125.859 322.22 162.237 344.067 183.056C365.914 203.876 402.208 201.253 425.132 177.198Z" fill="#EED5AF"/>
<path d="M428.895 180.792C451.819 156.736 452.691 120.358 430.844 99.5389C408.996 78.7194 372.702 81.3424 349.779 105.397C326.856 129.453 325.983 165.831 347.831 186.65C369.678 207.47 405.972 204.847 428.895 180.792Z" fill="#EEB138"/>
<path d="M381.978 173.246L357 153.341L363.009 145.984L382.108 161.208L424.131 121.246L430 127.585L381.978 173.246Z" fill="white"/>
</g>
<defs>
<clipPath id="clip0_9536_1693">
<rect width="540" height="540" fill="white"/>
</clipPath>
</defs>
</svg>
