<svg width="540" height="540" viewBox="0 0 540 540" fill="none" xmlns="http://www.w3.org/2000/svg">
<path d="M366 110.573L354.402 102.945C351.23 100.777 347.241 99.6648 342.885 100.089L155.713 118.074C145.379 119.072 137 128.236 137 138.547V474.749C137 480.69 139.793 485.714 144.138 488.719H144.126L156.736 497L157.391 491.472L342.885 473.648C353.218 472.65 361.598 463.485 361.598 453.174V116.973C361.598 115 361.287 113.142 360.724 111.41L366 110.573Z" fill="#BCD0E1"/>
<path d="M343.254 472.96L155.746 490.912C145.394 491.908 137 484.363 137 474.059V138.477C137 128.184 145.394 119.025 155.746 118.04L343.254 100.088C353.606 99.0922 362 106.637 362 116.941V452.535C362 462.827 353.606 471.986 343.254 472.971V472.96Z" fill="#B6D3AB"/>
<path d="M354.254 481.867L166.746 499.911C156.394 500.912 148 493.329 148 482.972V145.674C148 135.328 156.394 126.122 166.746 125.133L354.254 107.089C364.606 106.088 373 113.671 373 124.028V461.338C373 471.683 364.606 480.889 354.254 481.879V481.867Z" fill="#88B776"/>
<path d="M340.038 460.768L182.962 475.93C174.706 476.724 168 470.657 168 462.38V173.671C168 165.394 174.695 158.026 182.962 157.232L340.038 142.07C348.294 141.276 355 147.343 355 155.62V444.329C355 452.606 348.305 459.974 340.038 460.768Z" fill="#2C681A"/>
<path d="M285.353 249.704L288 249.455L259 226L230 254.895L232.008 254.703V282.082L230 282.274V285L287.988 279.56V276.835L285.341 277.084V249.704H285.353ZM238.684 281.46V254.081L247.565 253.244V280.623L238.684 281.46ZM254.24 280.001V252.622L263.121 251.785V279.164L254.24 280.001ZM269.797 278.542V251.163L278.678 250.326V277.706L269.797 278.542Z" fill="#499B2D"/>
<path d="M262.304 243.481C263.892 241.814 263.951 239.292 262.436 237.848C260.921 236.404 258.405 236.585 256.816 238.252C255.228 239.918 255.169 242.44 256.684 243.884C258.199 245.328 260.715 245.147 262.304 243.481Z" fill="#88B776"/>
<path d="M340.201 314.963L184.799 329.967C181.045 330.335 178 327.568 178 323.803V309.51C178 305.745 181.045 302.393 184.799 302.037L340.201 287.033C343.955 286.665 347 289.432 347 293.197V307.49C347 311.255 343.955 314.607 340.201 314.963ZM184.799 304.436C182.372 304.666 180.392 306.847 180.392 309.281V323.573C180.392 326.007 182.372 327.798 184.799 327.568L340.201 312.564C342.628 312.334 344.608 310.153 344.608 307.719V293.427C344.608 290.993 342.628 289.202 340.201 289.432L184.799 304.436Z" fill="#88B776"/>
<path d="M196.82 318.814C198.956 316.573 199.038 313.185 197.004 311.247C194.97 309.309 191.59 309.554 189.454 311.794C187.319 314.035 187.237 317.423 189.271 319.361C191.305 321.3 194.685 321.055 196.82 318.814Z" fill="#499B2D"/>
<path d="M213.56 317.193C215.695 314.952 215.777 311.564 213.743 309.626C211.709 307.687 208.329 307.932 206.194 310.173C204.058 312.414 203.976 315.802 206.01 317.74C208.044 319.679 211.424 319.434 213.56 317.193Z" fill="#499B2D"/>
<path d="M340.201 355.613L184.799 370.966C181.045 371.342 178 368.511 178 364.658V350.034C178 346.181 181.045 342.751 184.799 342.387L340.201 327.033C343.955 326.658 347 329.489 347 333.342V347.966C347 351.819 343.955 355.249 340.201 355.613ZM184.799 344.842C182.372 345.077 180.392 347.308 180.392 349.799V364.424C180.392 366.914 182.372 368.746 184.799 368.511L340.201 353.158C342.628 352.923 344.608 350.692 344.608 348.201V333.576C344.608 331.086 342.628 329.254 340.201 329.489L184.799 344.842Z" fill="#88B776"/>
<path d="M196.819 359.962C198.955 357.722 199.037 354.334 197.003 352.395C194.969 350.457 191.589 350.702 189.453 352.943C187.318 355.184 187.236 358.571 189.27 360.51C191.304 362.448 194.684 362.203 196.819 359.962Z" fill="#499B2D"/>
<path d="M213.568 358.345C215.703 356.104 215.785 352.717 213.751 350.778C211.717 348.84 208.337 349.085 206.201 351.326C204.066 353.566 203.984 356.954 206.018 358.893C208.052 360.831 211.432 360.586 213.568 358.345Z" fill="#499B2D"/>
<path d="M229.599 356.619C231.734 354.378 231.816 350.99 229.782 349.052C227.748 347.113 224.368 347.358 222.233 349.599C220.097 351.84 220.015 355.228 222.049 357.166C224.083 359.104 227.463 358.859 229.599 356.619Z" fill="#499B2D"/>
<path d="M293.141 135.864L240.859 140.981C238.728 141.192 237 139.6 237 137.433C237 135.267 238.728 133.347 240.859 133.136L293.141 128.019C295.272 127.808 297 129.4 297 131.567C297 133.733 295.272 135.653 293.141 135.864Z" fill="#2C681A"/>
<path d="M228.5 141.983C230.433 141.769 232 139.819 232 137.62C232 135.42 230.433 133.815 228.5 134.017C226.567 134.231 225 136.181 225 138.38C225 140.58 226.567 142.185 228.5 141.983Z" fill="#2C681A"/>
<mask id="mask0_10850_1579" style="mask-type:luminance" maskUnits="userSpaceOnUse" x="168" y="142" width="188" height="334">
<path d="M340.583 460.085L183.487 475.21C175.229 476.003 168.522 469.951 168.522 461.693V173.685C168.522 165.427 175.218 158.077 183.487 157.285L340.583 142.16C348.841 141.367 355.548 147.419 355.548 155.677V443.685C355.548 451.943 348.852 459.293 340.583 460.085Z" fill="white"/>
</mask>
<g mask="url(#mask0_10850_1579)">
<path opacity="0.05" d="M232.651 111.283L370.431 427.004L398.959 421.709L260.03 106.195L232.651 111.283Z" fill="white"/>
<path opacity="0.05" d="M279.015 102.681L416.794 418.402L424.856 416.909L285.928 101.395L279.015 102.681Z" fill="white"/>
</g>
<path d="M426.868 165.674C451.087 140.258 452.009 101.824 428.926 79.8274C405.844 57.8309 367.498 60.6022 343.279 86.0172C319.059 111.432 318.138 149.867 341.22 171.863C364.303 193.86 402.648 191.089 426.868 165.674Z" fill="#EED5AF"/>
<path d="M430.864 169.474C455.083 144.059 456.005 105.625 432.922 83.6281C409.84 61.6317 371.494 64.4029 347.275 89.818C323.056 115.233 322.134 153.668 345.216 175.664C368.299 197.661 406.644 194.889 430.864 169.474Z" fill="#EEB138"/>
<path d="M380.685 162L354 140.552L360.432 132.641L380.835 149.036L425.73 106L432 112.815L380.685 162Z" fill="white"/>
</svg>
