<svg width="540" height="540" viewBox="0 0 540 540" fill="none" xmlns="http://www.w3.org/2000/svg">
<g clip-path="url(#clip0_2150_37241)">
<g clip-path="url(#clip1_2150_37241)">
<path d="M510 460.297L134.285 496.472V474.339L510 438.164V460.297Z" fill="#4797C2"/>
<path opacity="0.15" d="M510 460.297L134.285 496.472V474.339L510 438.164V460.297Z" fill="black"/>
<path d="M134.285 474.34L29.5859 338.887V361.02L134.285 496.473V474.34Z" fill="#BCD0E1"/>
<path d="M134.285 474.341L510 438.165L368.73 311.688L29.5859 338.887L134.285 474.341Z" fill="#82B3D8"/>
<path opacity="0.15" d="M134.285 474.341L510 438.165L368.73 311.688L29.5859 338.887L134.285 474.341Z" fill="black"/>
<path d="M113.858 394.038L74.9038 397.797V391.287L113.858 387.527V394.038Z" fill="#4797C2"/>
<path d="M64.6201 378.226L101.204 374.48L113.857 387.529L74.9034 391.288L64.6201 378.226Z" fill="#82B3D8"/>
<path d="M64.6201 378.227L74.9034 391.288V397.799L64.6201 384.737V378.227Z" fill="#BCD0E1"/>
<path d="M99.5415 380.174C99.5415 380.174 97.7436 383.906 89.2309 383.906C81.2222 383.906 78.9204 380.746 78.9204 380.746V244.653L99.5415 242.664V380.174Z" fill="#4797C2"/>
<path d="M78.9204 244.663V380.757C78.9204 380.757 80.6093 383.072 86.1119 383.74V243.969L78.9204 244.663Z" fill="#82B3D8"/>
<path opacity="0.05" d="M78.9204 244.663V380.757C78.9204 380.757 80.6093 383.072 86.1119 383.74V243.969L78.9204 244.663Z" fill="white"/>
<path d="M113.857 244.038L74.9028 247.797V241.287L113.857 237.527V244.038Z" fill="#82B3D8"/>
<path opacity="0.15" d="M113.857 244.038L74.9028 247.797V241.287L113.857 237.527V244.038Z" fill="black"/>
<path d="M74.9024 241.287L64.6191 231.004V237.501L74.9024 247.798V241.287Z" fill="#BCD0E1"/>
<path d="M500.221 438.999L461.267 442.744V436.247L500.221 432.488V438.999Z" fill="#4797C2"/>
<path d="M450.983 425.949L489.937 422.203L500.22 432.486L461.266 436.246L450.983 425.949Z" fill="#82B3D8"/>
<path d="M450.983 425.949L461.266 436.246V442.743L450.983 432.46V425.949Z" fill="#BCD0E1"/>
<path d="M485.92 427.909C485.92 427.909 484.122 431.641 475.609 431.641C467.601 431.641 465.299 428.481 465.299 428.481V292.387L485.92 290.398V427.909Z" fill="#4797C2"/>
<path d="M465.299 292.386V428.48C465.299 428.48 466.988 430.795 472.49 431.463V291.691L465.299 292.386Z" fill="#82B3D8"/>
<path d="M500.221 291.776L461.267 295.522V289.011L500.221 285.266V291.776Z" fill="#82B3D8"/>
<path opacity="0.15" d="M500.221 291.776L461.267 295.522V289.011L500.221 285.266V291.776Z" fill="black"/>
<path d="M461.267 289.01L450.983 278.727V285.237L461.267 295.52V289.01Z" fill="#BCD0E1"/>
<path d="M166.415 314.958V440.087L101.91 364.263V273.457L166.415 314.958Z" fill="#4797C2"/>
<path opacity="0.1" d="M166.415 314.958V440.087L101.91 364.263V273.457L166.415 314.958Z" fill="black"/>
<path d="M146.012 435.479L107.044 439.238V432.728L146.012 428.969V435.479Z" fill="#4797C2"/>
<path d="M96.7607 419.667L133.358 415.922L146.012 428.97L107.044 432.729L96.7607 419.667Z" fill="#82B3D8"/>
<path d="M96.7607 419.668L107.044 432.73V439.24L96.7607 426.178V419.668Z" fill="#BCD0E1"/>
<path d="M131.697 421.616C131.697 421.616 129.899 425.348 121.386 425.348C113.377 425.348 111.076 422.188 111.076 422.188V286.094L131.697 284.105V421.616Z" fill="#4797C2"/>
<path d="M111.076 286.109V422.202C111.076 422.202 112.765 424.518 118.267 425.185V285.414L111.076 286.109Z" fill="#82B3D8"/>
<path opacity="0.05" d="M111.076 286.109V422.202C111.076 422.202 112.765 424.518 118.267 425.185V285.414L111.076 286.109Z" fill="white"/>
<path d="M146.012 285.483L107.044 289.242V282.732L146.012 278.973V285.483Z" fill="#82B3D8"/>
<path opacity="0.15" d="M146.012 285.483L107.044 289.242V282.732L146.012 278.973V285.483Z" fill="black"/>
<path d="M107.044 282.731L96.7603 272.434V278.944L107.044 289.241V282.731Z" fill="#BCD0E1"/>
<path d="M446.121 416.714L170.528 442.116V316.088L446.121 290.754V416.714Z" fill="#4797C2"/>
<path opacity="0.2" d="M446.121 416.714L170.528 442.116V316.088L446.121 290.754V416.714Z" fill="black"/>
<path d="M244.256 463.573L205.302 467.332V460.822L244.256 457.062V463.573Z" fill="#4797C2"/>
<path d="M195.018 450.523L233.972 446.777L244.255 457.061L205.301 460.82L195.018 450.523Z" fill="#82B3D8"/>
<path d="M195.018 450.523L205.301 460.82V467.331L195.018 457.034V450.523Z" fill="#BCD0E1"/>
<path d="M229.954 452.483C229.954 452.483 228.156 456.215 219.643 456.215C211.634 456.215 209.333 453.055 209.333 453.055V316.961L229.954 314.973V452.483Z" fill="#4797C2"/>
<path d="M209.333 316.96V453.054C209.333 453.054 211.021 455.369 216.524 456.037V316.266L209.333 316.96Z" fill="#82B3D8"/>
<path d="M244.257 316.35L205.303 320.096V313.585L244.257 309.84V316.35Z" fill="#82B3D8"/>
<path opacity="0.15" d="M244.257 316.35L205.303 320.096V313.585L244.257 309.84V316.35Z" fill="black"/>
<path d="M205.3 313.584L195.017 303.301V309.811L205.3 320.095V313.584Z" fill="#BCD0E1"/>
<path d="M187.688 469.206L148.734 472.951V466.441L187.688 462.695V469.206Z" fill="#4797C2"/>
<path d="M138.451 456.158L177.405 452.398L187.688 462.695L148.734 466.441L138.451 456.158Z" fill="#82B3D8"/>
<path d="M138.451 456.156L148.734 466.44V472.95L138.451 462.667V456.156Z" fill="#BCD0E1"/>
<path d="M173.373 458.104C173.373 458.104 171.575 461.836 163.062 461.836C155.053 461.836 152.751 458.676 152.751 458.676V322.582L173.373 320.594V458.104Z" fill="#4797C2"/>
<path d="M152.751 322.581V458.675C152.751 458.675 154.44 460.99 159.943 461.658V321.887L152.751 322.581Z" fill="#82B3D8"/>
<path d="M187.69 321.971L148.736 325.717V319.22L187.69 315.461V321.971Z" fill="#82B3D8"/>
<path opacity="0.15" d="M187.69 321.971L148.736 325.717V319.22L187.69 315.461V321.971Z" fill="black"/>
<path d="M148.733 319.219L138.45 308.922V315.432L148.733 325.716V319.219Z" fill="#BCD0E1"/>
<path d="M441.258 444.737L402.304 448.496V441.986L441.258 438.227V444.737Z" fill="#4797C2"/>
<path d="M392.006 431.687L430.974 427.941L441.257 438.225L402.303 441.984L392.006 431.687Z" fill="#82B3D8"/>
<path d="M392.006 431.688L402.303 441.984V448.495L392.006 438.198V431.688Z" fill="#BCD0E1"/>
<path d="M426.942 433.647C426.942 433.647 425.144 437.379 416.631 437.379C408.623 437.379 406.321 434.219 406.321 434.219V298.125L426.942 296.137V433.647Z" fill="#4797C2"/>
<path d="M406.321 298.124V434.218C406.321 434.218 408.01 436.533 413.512 437.201V297.43L406.321 298.124Z" fill="#82B3D8"/>
<path d="M441.257 297.514L402.303 301.26V294.749L441.257 291.004V297.514Z" fill="#82B3D8"/>
<path opacity="0.15" d="M441.257 297.514L402.303 301.26V294.749L441.257 291.004V297.514Z" fill="black"/>
<path d="M402.302 294.748L392.005 284.465V290.975L402.302 301.259V294.748Z" fill="#BCD0E1"/>
<path d="M509.998 284.432L134.283 320.607V298.474L509.998 262.285V284.432Z" fill="#82B3D8"/>
<path opacity="0.2" d="M509.998 284.432L134.283 320.607V298.474L509.998 262.285V284.432Z" fill="black"/>
<path d="M312.832 320.447C293.559 322.299 277.937 339.433 277.937 358.706V431.86L347.727 425.146V351.991C347.727 332.718 332.104 318.608 312.832 320.46V320.447Z" fill="#82B3D8"/>
<path d="M336.573 327.527C339.733 332.471 341.585 338.424 341.585 344.988V418.143L277.951 424.272V431.859L347.741 425.144V351.989C347.741 341.897 343.437 333.248 336.586 327.541L336.573 327.527Z" fill="#4797C2"/>
<path d="M134.286 298.478L64.6182 220.406V243.86L134.286 320.611V298.478Z" fill="#BCD0E1"/>
<path d="M64.6182 220.404L413.556 186.871L510.001 262.286L134.286 298.476L64.6182 220.404Z" fill="#82B3D8"/>
<path d="M90.0166 203.937L163.811 281.777L480.469 251.295L397.085 173.973L90.0166 203.937Z" fill="#82B3D8"/>
<path opacity="0.2" d="M90.0166 203.937L163.811 281.777L480.469 251.295L397.085 173.973L90.0166 203.937Z" fill="black"/>
<path d="M171.004 281.247V252.14L322.148 160.816L473.265 223.034L473.469 252.14L171.004 281.247Z" fill="#4797C2"/>
<path d="M171.004 250.259V281.082L98.9941 207.124V183.18L171.004 250.259Z" fill="#4797C2"/>
<path opacity="0.15" d="M171.004 250.259V281.082L98.9941 207.124V183.18L171.004 250.259Z" fill="white"/>
<path d="M322.149 130.962L251.188 60L92.8657 155.682L163.814 226.63L322.149 130.962Z" fill="#BCD0E1"/>
<path d="M251.186 60L322.147 130.962L480.469 196.148L409.521 125.187L251.186 60Z" fill="#82B3D8"/>
<path opacity="0.15" d="M251.186 60L322.147 130.962L480.469 196.148L409.521 125.187L251.186 60Z" fill="black"/>
<path d="M163.814 256.337L92.8657 185.389V155.684L163.814 226.632V256.337Z" fill="#82B3D8"/>
<path opacity="0.15" d="M163.814 256.337L92.8657 185.389V155.684L163.814 226.632V256.337Z" fill="white"/>
<path d="M322.149 130.961L163.813 226.63V256.335L322.149 160.667L480.47 225.84V196.147L322.149 130.961Z" fill="#82B3D8"/>
<path d="M239.8 227.054L253.993 225.692C261.879 224.929 265.965 227.775 265.965 233.932V234.136C265.965 237.923 264.14 240.878 260.108 242.431C264.807 242.935 267.327 245.373 267.327 250.222V250.426C267.327 257.045 262.982 260.954 254.646 261.758L239.787 263.188V227.067L239.8 227.054ZM252.685 240.674C256.621 240.292 258.188 238.726 258.188 235.498V235.294C258.188 232.257 256.471 231.058 252.631 231.439L247.782 231.902V241.151L252.685 240.674ZM253.393 256.215C257.438 255.82 259.25 253.831 259.25 250.549V250.344C259.25 247.007 257.425 245.468 252.985 245.89L247.782 246.394V256.746L253.393 256.201V256.215Z" fill="#BCD0E1"/>
<path d="M291.748 222.053L302.413 221.031L314.14 256.035L305.6 256.853L303.121 249.062L290.032 250.328L287.553 258.596L279.872 259.331L291.748 222.066V222.053ZM291.803 244.336L301.351 243.409L296.597 228.25L291.803 244.322V244.336Z" fill="#BCD0E1"/>
<path d="M329.19 218.46L338.683 217.547L352.426 240.02V216.226L359.699 215.531V251.652L351.514 252.442L336.463 228.171V253.886L329.19 254.581V218.46Z" fill="#BCD0E1"/>
<path d="M377.597 213.786L385.782 212.996V228.564L398.408 211.729L407.098 210.898L392.797 229.408L407.806 247.006L398.259 247.932L385.782 232.909V249.131L377.597 249.921V213.8V213.786Z" fill="#BCD0E1"/>
<path d="M90.0166 203.938V217.776L163.811 295.629V281.777L90.0166 203.938Z" fill="#BCD0E1"/>
<path d="M480.47 265.135L163.813 295.631V281.779L480.47 251.297V265.135Z" fill="#82B3D8"/>
<path opacity="0.1" d="M480.47 265.135L163.813 295.631V281.779L480.47 251.297V265.135Z" fill="black"/>
</g>
</g>
<defs>
<clipPath id="clip0_2150_37241">
<rect width="540" height="540" fill="white"/>
</clipPath>
<clipPath id="clip1_2150_37241">
<rect width="540" height="540" fill="white"/>
</clipPath>
</defs>
</svg>
