<svg width="540" height="540" viewBox="0 0 540 540" fill="none" xmlns="http://www.w3.org/2000/svg">
<g clip-path="url(#clip0_2150_37184)">
<path d="M470.888 319.484C469.981 319.241 469.048 319.105 468.101 319.105C467.154 319.105 466.234 319.241 465.314 319.484H429.055V428.707H468.087C481.427 428.707 492.251 404.179 492.251 373.913C492.251 345.786 482.902 322.61 470.861 319.484H470.888Z" fill="#CC9A4A"/>
<path d="M426.296 428.709C439.642 428.709 450.46 404.177 450.46 373.915C450.46 343.653 439.642 319.121 426.296 319.121C412.951 319.121 402.133 343.653 402.133 373.915C402.133 404.177 412.951 428.709 426.296 428.709Z" fill="#EEB138"/>
<path d="M156.265 334.164C155.359 333.92 154.425 333.785 153.478 333.785C152.531 333.785 151.611 333.92 150.691 334.164H114.432V443.387H153.465C166.805 443.387 177.628 418.858 177.628 388.593C177.628 360.465 168.279 337.289 156.238 334.164H156.265Z" fill="#EA9E06"/>
<path d="M111.671 443.389C125.016 443.389 135.834 418.857 135.834 388.595C135.834 358.333 125.016 333.801 111.671 333.801C98.3257 333.801 87.5073 358.333 87.5073 388.595C87.5073 418.857 98.3257 443.389 111.671 443.389Z" fill="#EED5AF"/>
<path d="M53.6313 245.593C52.9143 245.403 52.1972 245.309 51.4666 245.309C50.736 245.309 50.0054 245.417 49.3019 245.593H21.0254V330.788H51.4666C61.8707 330.788 70.3131 311.657 70.3131 288.048C70.3131 266.103 63.0208 248.042 53.6313 245.593Z" fill="#EA9E06"/>
<path d="M18.8465 330.788C29.2551 330.788 37.693 311.652 37.693 288.048C37.693 264.444 29.2551 245.309 18.8465 245.309C8.43786 245.309 0 264.444 0 288.048C0 311.652 8.43786 330.788 18.8465 330.788Z" fill="#EED5AF"/>
<path d="M204.969 423.105L156.534 392.583C152.705 390.256 149.986 386.481 149.011 382.098C147.063 373.412 141.516 357.176 125.849 340.116C103.241 315.492 90.9161 353.131 90.9161 353.131L38.706 309.174C38.706 309.174 41.1007 287.459 38.5842 273.24C35.1207 253.744 26.2725 239.349 12.5942 245.653C10.2807 246.722 11.2142 214.089 11.9854 197.326C12.2424 191.901 17.2213 182.687 23.066 179.129L37.7048 170.565C37.7048 170.565 49.9354 141.801 74.0719 114.053C94.9884 90.0108 191.001 89.0001 241.001 89C269.501 88.9999 288.501 96.3704 317.501 105.5C346.501 114.63 375.318 122.766 395.518 140.868C402.932 147.511 436.512 199.694 436.512 199.694C436.512 199.694 463.598 239.335 460.148 245.369C457.685 249.658 245.598 400.349 213.29 422.848C210.814 424.58 207.553 424.675 204.969 423.105Z" fill="#EEB138"/>
<path d="M444.793 247.371L156.386 270.737C151.394 271.142 146.97 268.098 146.483 263.945L135.889 172.229C135.402 168.048 139.096 164.355 144.115 163.976L389.269 150.582C393.395 150.27 397.237 152.34 398.617 155.588L452.465 237.346C454.426 241.973 450.665 246.911 444.793 247.385V247.371Z" fill="#EED5AF"/>
<path d="M527.729 307.427L509.221 320.631L531.517 300.067L460.149 245.367L155.778 271.492C152.598 271.763 151.327 275.754 153.775 277.797C163.693 286.104 181.741 301.487 187.45 308.063C191.644 312.879 192.808 319.089 192.808 319.089L208.637 422.616C208.786 423.631 209.544 424.456 210.531 424.7L232.273 430.233C240.174 432.236 248.373 432.79 256.464 431.857L502.808 403.174C510.817 402.254 518.015 397.844 522.466 391.12L540 326.395L527.742 307.4L527.729 307.427ZM234.749 350.464L222.748 340.019L281.804 345.35L234.749 350.464Z" fill="#EA9E06"/>
<path d="M183.514 336.533C183.514 336.533 184.014 319.08 210.058 321.258C236.103 323.423 305.062 349.562 305.062 349.562C305.062 349.562 299.799 358.248 293.752 362.591C287.704 366.934 244.288 369.342 236.143 366.244C227.998 363.132 205.756 358.248 183.514 336.547V336.533Z" fill="#EED5AF"/>
<path d="M517.053 289.055L494.121 309.389C494.121 309.389 509.531 325.097 515.714 326.004C521.897 326.91 539.985 326.004 539.985 326.004C539.985 326.004 540.215 307.928 534.262 302.205C528.309 296.482 517.053 289.055 517.053 289.055Z" fill="#EED5AF"/>
<path d="M333.879 367.634L364.767 339.087L468.47 326.41L494.121 348.395L468.808 381.678L359.193 393.827L333.879 367.634Z" fill="#CC9A4A"/>
<path d="M121.142 249.781L57.4048 184.623C54.4148 180.889 49.2465 174.016 52.8183 165.412L70.2983 130.844C73.2342 127.177 78.8625 121.725 84.1389 125.622L107.112 142.439C120.655 155.373 119.167 178.941 121.548 200.832L125.823 248.144C125.823 252.284 123.726 253.015 121.128 249.781H121.142Z" fill="#EED5AF"/>
</g>
<defs>
<clipPath id="clip0_2150_37184">
<rect width="540" height="540" fill="white"/>
</clipPath>
</defs>
</svg>
