<svg width="540" height="540" viewBox="0 0 540 540" fill="none" xmlns="http://www.w3.org/2000/svg">
<g clip-path="url(#clip0_19138_4131)">
<path d="M388.35 192.081L239.04 355.759L450.206 335.438C450.206 277.131 426.565 226.606 388.361 192.07L388.35 192.081Z" fill="#2C681A"/>
<path d="M450.195 236.526L391.409 189.669C350.234 158.453 297.336 139.003 239.029 144.608V355.774L364.405 218.338L450.195 236.526Z" fill="#499B2D"/>
<path opacity="0.2" d="M450.195 236.526L391.409 189.669C353.194 160.597 297.336 139.003 239.029 144.608V355.774L364.405 218.338L450.195 236.526Z" fill="white"/>
<path d="M239.029 220.614L300.873 189.05L239.029 144.609C180.722 150.226 127.923 178.938 89.7188 220.821L239.029 355.764V220.603V220.614Z" fill="#88B776"/>
<path opacity="0.2" d="M239.029 220.614L300.873 189.05L239.029 144.609C180.722 150.226 127.923 178.938 89.7188 220.821L239.029 355.764V220.603V220.614Z" fill="white"/>
<path d="M239.03 355.771L148.2 273.682L151.553 265.258L89.7084 220.828C52.3753 261.753 28.9524 315.26 27.8966 372.076C27.8531 374.601 29.0721 376.963 31.1075 378.432L72.903 408.462C73.469 408.875 83.3737 415.994 84.3642 416.701C91.4716 421.773 97.6974 419.564 97.6974 419.564L92.2226 399.939L110.584 368.147L239.03 355.793V355.771Z" fill="#B6D3AB"/>
<path opacity="0.2" d="M239.03 355.771L148.2 273.682L151.553 265.258L89.7084 220.828C52.3753 261.753 28.9524 315.26 27.8966 372.076C27.8531 374.59 29.0721 376.963 31.1075 378.421L72.8595 408.418C72.9357 408.473 83.3519 415.961 84.3642 416.69C91.4716 421.762 97.6974 419.553 97.6974 419.553L92.6253 401.387L110.573 368.136L239.019 355.782L239.03 355.771Z" fill="white"/>
<path d="M100.516 419.477L300.884 400.201L151.574 265.258C115.787 304.485 92.7883 355.271 90.0128 409.452C89.7081 415.319 94.6822 420.043 100.527 419.488L100.516 419.477Z" fill="#B6D3AB"/>
<path d="M151.563 265.262L300.873 400.205V189.039C242.566 194.644 189.767 223.368 151.563 265.251V265.262Z" fill="#88B776"/>
<path d="M300.885 189.036V400.201L450.195 236.524C411.98 201.988 359.192 183.43 300.885 189.047V189.036Z" fill="#499B2D"/>
<path d="M450.195 236.523L300.885 400.201L502.799 380.773C508.11 380.261 512.072 375.646 511.833 370.324C509.395 316.055 486.309 269.154 450.195 236.523Z" fill="#2C681A"/>
<path d="M350.875 392.79C350.875 361.661 325.635 338.63 294.506 341.351C263.377 344.072 238.136 371.522 238.136 402.651L242.381 405.438L245.995 401.966L350.865 392.79H350.875Z" fill="#BCD0E1"/>
<path d="M242.392 405.425C242.392 374.296 267.633 346.846 298.762 344.125C329.891 341.403 355.131 364.435 355.131 395.564L242.403 405.425H242.392Z" fill="#82B3D8"/>
<path d="M444.666 262.006L294.702 370.544C287.399 375.823 287.007 386.566 293.908 392.367C299.002 396.655 306.523 396.383 311.301 391.736L410.206 295.519C410.337 295.682 410.435 295.758 410.489 295.704C410.805 295.388 447.125 264.988 447.125 264.988L444.677 261.984L444.666 262.006Z" fill="#EED5AF"/>
<path d="M447.125 265.008L297.162 373.546C289.858 378.835 289.467 389.567 296.367 395.369C301.461 399.657 308.982 399.385 313.76 394.737L447.125 265.008Z" fill="#EEB138"/>
</g>
<defs>
<clipPath id="clip0_19138_4131">
<rect width="540" height="540" fill="white"/>
</clipPath>
</defs>
</svg>
