<svg width="540" height="540" viewBox="0 0 540 540" fill="none" xmlns="http://www.w3.org/2000/svg">
<g clip-path="url(#clip0_9534_1481)">
<path d="M444.93 408.718L84.7699 443.398C77.2499 444.118 71.1499 438.608 71.1499 431.088V219.898C71.1499 212.378 77.2499 205.688 84.7699 204.958L444.93 170.278C452.45 169.558 458.55 175.068 458.55 182.588V393.778C458.55 401.298 452.45 407.988 444.93 408.718Z" fill="#BCD0E1"/>
<path d="M453.03 414.261L92.87 448.941C85.35 449.661 79.25 444.151 79.25 436.631V225.441C79.25 217.921 85.35 211.231 92.87 210.501L453.03 175.821C460.55 175.101 466.65 180.611 466.65 188.131V399.321C466.65 406.841 460.55 413.531 453.03 414.261Z" fill="#82B3D8"/>
<path d="M417.87 296.971L107.75 326.831C103.33 327.261 99.75 324.021 99.75 319.601V291.231C99.75 286.811 103.33 282.891 107.75 282.461L417.87 252.601C422.29 252.171 425.87 255.411 425.87 259.831V288.201C425.87 292.621 422.29 296.541 417.87 296.971Z" fill="#2C681A"/>
<path d="M109.08 350.909L102.39 340.269L105.13 340.009L110.37 348.799L115.41 339.019L117.85 338.789L111.52 350.709V359.419L109.08 359.649V350.909Z" fill="white"/>
<path d="M117.79 351.62V351.4C117.79 347 120.84 343.63 124.99 343.23C129.14 342.83 132.19 345.59 132.19 349.98V350.2C132.19 354.62 129.14 357.97 124.97 358.37C120.8 358.77 117.8 355.9 117.8 351.61L117.79 351.62ZM129.77 350.47V350.27C129.77 346.88 127.89 344.88 124.98 345.16C122.04 345.44 120.19 347.8 120.19 351.16V351.38C120.19 354.71 122.01 356.72 124.98 356.44C127.92 356.16 129.77 353.77 129.77 350.46V350.47Z" fill="white"/>
<path d="M135.65 351.721V342.451L137.97 342.231V351.391C137.97 353.971 139.06 355.011 141.36 354.791C143.43 354.591 145.39 353.031 145.39 350.401V341.521L147.71 341.301V355.941L145.39 356.161V353.841C144.72 355.281 143.09 356.641 140.74 356.861C137.83 357.141 135.64 355.761 135.64 351.721H135.65Z" fill="white"/>
<path d="M152.42 340.831L154.74 340.611V343.241C155.66 341.501 156.92 340.231 159.56 339.891V342.071C156.62 342.491 154.74 343.601 154.74 347.211V355.251L152.42 355.471V340.831Z" fill="white"/>
<path d="M170.54 333.71L173.7 333.41L183.44 349.02V332.47L185.76 332.25V352.27L182.96 352.54L172.85 336.35V353.51L170.53 353.73V333.71H170.54Z" fill="white"/>
<path d="M189.44 347.851C189.44 344.461 193.02 342.971 196.78 342.611L198.88 342.411V341.351C198.88 339.031 197.98 338.131 195.74 338.351C193.72 338.541 192.6 339.491 192.38 341.311L190.06 341.531C190.37 338.171 193.03 336.681 195.86 336.411C198.66 336.141 201.21 337.041 201.21 341.131V350.791L198.89 351.011V349.161C197.8 350.641 196.48 351.491 194.33 351.701C191.61 351.961 189.46 350.851 189.46 347.861L189.44 347.851ZM198.88 345.881V344.061L196.86 344.251C193.92 344.531 191.76 345.471 191.76 347.631C191.76 349.141 192.49 350.021 194.53 349.831C196.99 349.591 198.87 348.151 198.87 345.881H198.88Z" fill="white"/>
<path d="M205.76 335.702L208.08 335.482V337.722C208.75 336.282 210.35 335.012 212.45 334.812C214.33 334.632 215.98 335.252 216.73 337.142C217.74 335.142 219.92 334.092 221.74 333.912C224.37 333.662 226.67 335.002 226.67 339.262V348.332L224.35 348.552V339.312C224.35 336.732 223.26 335.782 221.24 335.972C219.34 336.152 217.38 337.632 217.38 340.262V349.222L215.06 349.442V340.202C215.06 337.622 213.97 336.672 211.95 336.862C210.05 337.042 208.09 338.522 208.09 341.152V350.112L205.77 350.332V335.692L205.76 335.702Z" fill="white"/>
<path d="M230.15 340.829V340.609C230.15 336.189 232.98 332.829 237.01 332.449C240.4 332.119 243.59 333.859 243.59 339.099V339.859L232.56 340.919C232.67 344.239 234.27 345.939 237.26 345.649C239.53 345.429 240.84 344.469 241.15 342.729L243.47 342.509C242.97 345.499 240.53 347.269 237.23 347.589C233.09 347.989 230.15 345.359 230.15 340.849V340.829ZM241.21 338.199C240.99 335.199 239.42 334.149 237.01 334.379C234.63 334.609 233.03 336.389 232.64 339.029L241.21 338.209V338.199Z" fill="white"/>
<path d="M107.15 375.83L102.67 379.48V377.21L107.32 373.4L109.59 373.18V393.2L107.15 393.43V375.82V375.83Z" fill="white"/>
<path d="M113.45 392.269L121.4 383.129C123.22 381.019 124.28 379.099 124.28 377.059C124.28 374.819 122.96 373.599 120.7 373.819C118.44 374.039 116.86 375.499 116.47 378.679L114.2 378.899C114.51 374.949 116.89 372.229 120.7 371.859C124.4 371.499 126.75 373.459 126.75 376.909C126.75 379.369 125.18 381.929 122.72 384.579L117.2 390.489L126.86 389.559V391.549L113.45 392.839V392.279V392.269Z" fill="white"/>
<path d="M129.55 385.369L131.79 385.149C132.01 387.509 133.44 389.189 136.61 388.889C139.75 388.589 141.17 386.939 141.17 384.589C141.17 382.009 139.77 380.829 136.94 381.109L135.43 381.259V379.219L136.83 379.089C139.43 378.839 140.58 377.499 140.58 375.309C140.58 373.409 139.38 372.069 136.94 372.299C134.5 372.529 132.77 374.209 132.52 376.509L130.39 376.709C130.53 373.529 133.13 370.679 136.94 370.309C140.75 369.939 142.96 372.249 142.96 375.019C142.96 377.289 141.62 378.759 139.8 379.689C142.15 380.079 143.66 381.589 143.66 384.359C143.66 387.999 140.69 390.469 136.55 390.869C132.29 391.279 129.69 388.869 129.55 385.379V385.369Z" fill="white"/>
<path d="M154.1 382.811L156.45 382.581C156.76 384.931 157.71 386.851 161.74 386.471C164.32 386.221 166.3 384.521 166.3 382.251C166.3 379.981 165.26 379.131 161.46 378.881C157.26 378.641 154.77 377.561 154.77 374.011C154.77 370.931 157.43 368.321 161.21 367.961C165.21 367.571 167.71 369.291 168.1 372.811L165.92 373.021C165.44 370.551 163.99 369.651 161.22 369.921C158.48 370.181 157.05 371.691 157.05 373.571C157.05 375.451 157.78 376.471 161.87 376.691C166.32 376.961 168.67 378.081 168.67 381.861C168.67 385.221 165.73 388.051 161.75 388.431C156.4 388.941 154.47 386.191 154.11 382.811H154.1Z" fill="white"/>
<path d="M171.46 383.191C171.46 379.801 175.04 378.311 178.8 377.951L180.9 377.751V376.691C180.9 374.371 180 373.471 177.76 373.691C175.74 373.881 174.62 374.831 174.4 376.651L172.08 376.871C172.39 373.511 175.05 372.021 177.88 371.751C180.68 371.481 183.23 372.381 183.23 376.471V386.131L180.91 386.351V384.501C179.82 385.981 178.5 386.831 176.35 387.041C173.63 387.301 171.48 386.191 171.48 383.201L171.46 383.191ZM180.9 381.221V379.401L178.88 379.591C175.94 379.871 173.78 380.811 173.78 382.971C173.78 384.481 174.51 385.361 176.55 385.171C179.01 384.931 180.89 383.491 180.89 381.221H180.9Z" fill="white"/>
<path d="M187.79 371.03L190.11 370.81V373.05C190.78 371.61 192.38 370.34 194.48 370.14C196.36 369.96 198.01 370.58 198.76 372.47C199.77 370.47 201.95 369.42 203.77 369.24C206.4 368.99 208.7 370.33 208.7 374.59V383.66L206.38 383.88V374.64C206.38 372.06 205.29 371.11 203.27 371.3C201.37 371.48 199.41 372.96 199.41 375.59V384.55L197.09 384.77V375.53C197.09 372.95 196 372 193.98 372.19C192.08 372.37 190.12 373.85 190.12 376.48V385.44L187.8 385.66V371.02L187.79 371.03Z" fill="white"/>
<path d="M213.27 368.579L215.59 368.359V370.819C216.43 369.309 218.42 367.829 220.55 367.629C224.39 367.259 227.21 369.789 227.21 374.349V374.569C227.21 379.049 224.58 382.379 220.55 382.769C218.14 382.999 216.43 381.959 215.59 380.589V388.089L213.27 388.309V368.569V368.579ZM224.81 374.919V374.699C224.81 370.999 222.77 369.349 220.3 369.589C217.58 369.849 215.51 371.839 215.51 375.589V375.809C215.51 379.559 217.47 381.139 220.33 380.859C223.24 380.579 224.81 378.469 224.81 374.909V374.919Z" fill="white"/>
<path d="M230.88 359.878L233.23 359.648V381.288L230.88 381.518V359.878Z" fill="white"/>
<path d="M236.9 373.778V373.558C236.9 369.138 239.73 365.778 243.76 365.398C247.15 365.068 250.34 366.808 250.34 372.048V372.808L239.31 373.868C239.42 377.188 241.02 378.888 244.01 378.598C246.28 378.378 247.59 377.418 247.9 375.678L250.22 375.458C249.72 378.448 247.28 380.218 243.98 380.538C239.84 380.938 236.9 378.308 236.9 373.798V373.778ZM247.96 371.148C247.74 368.148 246.17 367.098 243.76 367.328C241.38 367.558 239.78 369.338 239.39 371.978L247.96 371.158V371.148Z" fill="white"/>
<path d="M260.31 372.592L262.66 372.362C262.97 374.712 263.92 376.632 267.95 376.252C270.53 376.002 272.51 374.302 272.51 372.032C272.51 369.762 271.47 368.912 267.67 368.662C263.47 368.422 260.98 367.342 260.98 363.792C260.98 360.712 263.64 358.102 267.42 357.742C271.42 357.352 273.92 359.072 274.31 362.592L272.13 362.802C271.65 360.332 270.2 359.432 267.43 359.702C264.66 359.972 263.26 361.472 263.26 363.352C263.26 365.232 263.99 366.252 268.08 366.472C272.53 366.742 274.88 367.862 274.88 371.642C274.88 375.002 271.94 377.832 267.96 378.212C262.61 378.722 260.68 375.972 260.32 372.592H260.31Z" fill="white"/>
<path d="M279.37 373.19V364.17L277.27 364.37V362.41L279.37 362.21V358.88L281.69 358.66V361.99L285.11 361.66V363.62L281.69 363.95V372.74C281.69 374.17 282.33 374.81 283.51 374.69C284.24 374.62 284.8 374.45 285.3 374.21V376.17C284.82 376.38 284.26 376.58 283.31 376.67C280.65 376.93 279.36 375.48 279.36 373.19H279.37Z" fill="white"/>
<path d="M288.81 361.299L291.13 361.079V363.709C292.05 361.969 293.31 360.699 295.95 360.359V362.539C293.01 362.959 291.13 364.069 291.13 367.679V375.719L288.81 375.939V361.299Z" fill="white"/>
<path d="M297.82 367.911V367.691C297.82 363.271 300.65 359.911 304.68 359.531C308.07 359.201 311.26 360.941 311.26 366.181V366.941L300.23 368.001C300.34 371.321 301.94 373.021 304.93 372.731C307.2 372.511 308.51 371.551 308.82 369.811L311.14 369.591C310.64 372.581 308.2 374.351 304.9 374.671C300.76 375.071 297.82 372.441 297.82 367.931V367.911ZM308.88 365.281C308.66 362.281 307.09 361.231 304.68 361.461C302.27 361.691 300.7 363.471 300.31 366.111L308.88 365.291V365.281Z" fill="white"/>
<path d="M313.73 366.38V366.16C313.73 361.74 316.56 358.38 320.59 358C323.98 357.67 327.17 359.41 327.17 364.65V365.41L316.14 366.47C316.25 369.79 317.85 371.49 320.84 371.2C323.11 370.98 324.42 370.02 324.73 368.28L327.05 368.06C326.55 371.05 324.11 372.82 320.81 373.14C316.67 373.54 313.73 370.91 313.73 366.4V366.38ZM324.79 363.75C324.57 360.75 323 359.7 320.59 359.93C318.21 360.16 316.61 361.94 316.22 364.58L324.79 363.76V363.75Z" fill="white"/>
<path d="M331.23 368.19V359.17L329.13 359.37V357.41L331.23 357.21V353.88L333.55 353.66V356.99L336.97 356.66V358.62L333.55 358.95V367.74C333.55 369.17 334.19 369.81 335.37 369.69C336.1 369.62 336.66 369.45 337.16 369.21V371.17C336.68 371.38 336.12 371.58 335.17 371.67C332.51 371.93 331.22 370.48 331.22 368.19H331.23Z" fill="white"/>
<path d="M103.28 417.532V417.312C103.28 411.372 107.26 406.712 112.69 406.182C116.86 405.782 120.39 407.652 120.81 411.952L118.4 412.182C117.9 409.182 116.13 407.782 112.72 408.112C108.58 408.512 105.8 412.002 105.8 417.042V417.262C105.8 422.362 108.38 425.192 112.69 424.772C115.97 424.452 118.23 422.582 118.74 419.292L121.01 419.072C120.31 423.762 117.12 426.332 112.64 426.762C106.84 427.322 103.29 423.682 103.29 417.522L103.28 417.532Z" fill="white"/>
<path d="M124.17 406.162C124.17 405.322 124.87 404.552 125.71 404.472C126.55 404.392 127.25 405.022 127.25 405.862C127.25 406.702 126.55 407.472 125.71 407.552C124.87 407.632 124.17 407.002 124.17 406.162ZM124.59 410.712L126.91 410.492V425.132L124.59 425.352V410.712Z" fill="white"/>
<path d="M132.18 420.96V411.94L130.08 412.14V410.18L132.18 409.98V406.65L134.5 406.43V409.76L137.92 409.43V411.39L134.5 411.72V420.51C134.5 421.94 135.14 422.58 136.32 422.46C137.05 422.39 137.61 422.22 138.11 421.98V423.94C137.63 424.15 137.07 424.35 136.12 424.44C133.46 424.7 132.17 423.25 132.17 420.96H132.18Z" fill="white"/>
<path d="M145.7 421.811L139.96 409.231L142.45 408.991L146.93 419.061L150.99 408.171L153.37 407.941L145.28 428.461L142.93 428.691L145.7 421.821V421.811Z" fill="white"/>
<path d="M164.01 401.538L167.17 401.238L176.91 416.848V400.298L179.23 400.078V420.098L176.43 420.368L166.32 404.178V421.338L164 421.558V401.538H164.01Z" fill="white"/>
<path d="M182.91 415.679C182.91 412.289 186.49 410.799 190.25 410.439L192.35 410.239V409.179C192.35 406.859 191.45 405.959 189.21 406.179C187.19 406.369 186.07 407.319 185.85 409.139L183.53 409.359C183.84 405.999 186.5 404.509 189.33 404.239C192.13 403.969 194.68 404.869 194.68 408.959V418.619L192.36 418.839V416.989C191.27 418.469 189.95 419.319 187.8 419.529C185.08 419.789 182.93 418.679 182.93 415.689L182.91 415.679ZM192.35 413.709V411.889L190.33 412.079C187.39 412.359 185.23 413.299 185.23 415.459C185.23 416.969 185.96 417.849 188 417.659C190.46 417.419 192.34 415.979 192.34 413.709H192.35Z" fill="white"/>
<path d="M199.24 403.53L201.56 403.31V405.55C202.23 404.11 203.83 402.84 205.93 402.64C207.81 402.46 209.46 403.08 210.21 404.97C211.22 402.97 213.4 401.92 215.22 401.74C217.85 401.49 220.15 402.83 220.15 407.09V416.16L217.83 416.38V407.14C217.83 404.56 216.74 403.61 214.72 403.8C212.82 403.98 210.86 405.46 210.86 408.09V417.05L208.54 417.27V408.03C208.54 405.45 207.45 404.5 205.43 404.69C203.53 404.87 201.57 406.35 201.57 408.98V417.94L199.25 418.16V403.52L199.24 403.53Z" fill="white"/>
<path d="M223.63 408.649V408.429C223.63 404.009 226.46 400.649 230.49 400.269C233.88 399.939 237.07 401.679 237.07 406.919V407.679L226.04 408.739C226.15 412.059 227.75 413.759 230.74 413.469C233.01 413.249 234.32 412.289 234.63 410.549L236.95 410.329C236.45 413.319 234.01 415.089 230.71 415.409C226.57 415.809 223.63 413.179 223.63 408.669V408.649ZM234.69 406.019C234.47 403.019 232.9 401.969 230.49 402.199C228.11 402.429 226.51 404.209 226.12 406.849L234.69 406.029V406.019Z" fill="white"/>
<path d="M239.14 416.992L241.83 410.602L244.1 411.452L240.66 417.632L239.15 416.992H239.14Z" fill="white"/>
<path d="M254.99 402.918V402.698C254.99 396.758 258.97 392.098 264.4 391.568C268.57 391.168 272.1 393.038 272.52 397.338L270.11 397.568C269.61 394.568 267.84 393.168 264.43 393.498C260.29 393.898 257.51 397.388 257.51 402.428V402.648C257.51 407.748 260.09 410.578 264.4 410.158C267.68 409.838 269.94 407.968 270.45 404.678L272.72 404.458C272.02 409.148 268.83 411.718 264.35 412.148C258.55 412.708 255 409.068 255 402.908L254.99 402.918Z" fill="white"/>
<path d="M281.36 390.24L284.55 389.93L291.33 409.3L288.92 409.53L286.96 403.95L278.7 404.75L276.77 410.7L274.47 410.92L281.36 390.24ZM279.37 402.75L286.31 402.08L282.84 392.11L279.37 402.75Z" fill="white"/>
<path d="M301.44 398.89V397.77C301.44 391.86 304.44 387.77 309.34 387.29C314.27 386.82 317.15 390.49 317.15 396.2V397.32C317.15 403.14 314.32 407.34 309.39 407.81C304.46 408.28 301.44 404.71 301.44 398.89ZM314.68 397.53V396.41C314.68 391.76 312.72 388.93 309.33 389.25C305.94 389.58 303.93 392.57 303.93 397.5V398.62C303.93 403.69 306.06 406.12 309.39 405.79C312.89 405.45 314.68 402.59 314.68 397.52V397.53Z" fill="white"/>
<path d="M320.51 397.058V395.938C320.51 390.028 323.51 385.938 328.41 385.458C333.34 384.988 336.22 388.658 336.22 394.368V395.488C336.22 401.308 333.39 405.508 328.46 405.978C323.67 406.438 320.51 402.878 320.51 397.058ZM333.75 395.698V394.578C333.75 389.928 331.79 387.098 328.4 387.418C325.01 387.748 323 390.738 323 395.668V396.788C323 401.858 325.13 404.288 328.46 403.958C331.96 403.618 333.75 400.758 333.75 395.688V395.698Z" fill="white"/>
<path d="M339.57 395.219V394.099C339.57 388.189 342.57 384.099 347.47 383.619C352.4 383.149 355.28 386.819 355.28 392.529V393.649C355.28 399.469 352.45 403.669 347.52 404.139C342.73 404.599 339.57 401.039 339.57 395.219ZM352.81 393.859V392.739C352.81 388.089 350.85 385.259 347.46 385.579C344.07 385.899 342.06 388.899 342.06 393.829V394.949C342.06 400.019 344.19 402.449 347.52 402.119C351.02 401.779 352.81 398.919 352.81 393.849V393.859Z" fill="white"/>
<path d="M358.64 393.39V392.27C358.64 386.36 361.64 382.27 366.54 381.79C371.47 381.32 374.35 384.99 374.35 390.7V391.82C374.35 397.64 371.52 401.84 366.59 402.31C361.8 402.77 358.64 399.21 358.64 393.39ZM371.88 392.03V390.91C371.88 386.26 369.92 383.43 366.53 383.75C363.14 384.07 361.13 387.07 361.13 392V393.12C361.13 398.19 363.26 400.62 366.59 400.29C370.09 399.95 371.88 397.09 371.88 392.02V392.03Z" fill="white"/>
<path d="M117.02 304.331V304.111C117.02 298.031 121.28 293.481 126.96 292.931C131.78 292.471 135.36 294.471 135.84 299.361L131.19 299.811C130.85 297.431 129.51 296.281 126.99 296.521C123.83 296.821 121.81 299.481 121.81 303.631V303.851C121.81 307.991 123.71 310.221 127.02 309.901C129.51 309.661 131.25 308.231 131.61 305.621L136.06 305.191C135.56 310.191 132 313.081 127.07 313.561C120.52 314.191 117.02 310.501 117.02 304.341V304.331Z" fill="white"/>
<path d="M137.74 305.051V304.831C137.74 300.241 141.07 296.921 145.47 296.501C149.87 296.081 153.17 298.701 153.17 303.261V303.481C153.17 308.101 149.84 311.361 145.44 311.781C141.04 312.201 137.74 309.611 137.74 305.051ZM149.05 303.911V303.711C149.05 300.911 147.73 299.361 145.47 299.571C143.23 299.791 141.89 301.541 141.89 304.341V304.561C141.89 307.361 143.18 308.921 145.47 308.691C147.74 308.471 149.05 306.671 149.05 303.891V303.911Z" fill="white"/>
<path d="M155.89 295.831L159.95 295.441V297.761C160.68 296.231 162.27 294.881 164.71 294.641C167.59 294.361 169.64 295.901 169.64 299.821V309.141L165.58 309.531V300.791C165.58 298.801 164.8 297.931 163 298.101C161.26 298.271 159.95 299.461 159.95 301.611V310.071L155.89 310.461V295.821V295.831Z" fill="white"/>
<path d="M173.78 296.989L171.85 297.179V294.299L173.78 294.109V292.429C173.78 289.009 175.74 287.119 178.99 286.799C179.86 286.719 180.42 286.749 180.98 286.859V289.909C180.62 289.799 180.2 289.759 179.61 289.819C178.35 289.939 177.82 290.809 177.82 291.929V293.719L180.98 293.419V296.299L177.82 296.599V308.359L173.79 308.749V296.989H173.78Z" fill="white"/>
<path d="M182.99 289.019C182.99 287.759 184 286.709 185.29 286.589C186.58 286.469 187.61 287.319 187.61 288.579C187.61 289.839 186.6 290.889 185.29 291.019C183.98 291.149 182.99 290.289 182.99 289.029V289.019ZM183.3 293.189L187.33 292.799V307.439L183.3 307.829V293.189Z" fill="white"/>
<path d="M191.06 292.449L195.12 292.059V294.859C196.04 292.809 197.47 291.639 199.85 291.379V295.159C196.85 295.419 195.12 296.569 195.12 299.369V306.709L191.06 307.099V292.459V292.449Z" fill="white"/>
<path d="M202.51 291.34L206.57 290.95V293.19C207.3 291.75 208.87 290.39 211.05 290.18C212.98 289.99 214.44 290.67 215.14 292.33C216.32 290.45 218.22 289.49 220.07 289.31C222.79 289.05 224.89 290.55 224.89 294.45V303.83L220.86 304.22V295.29C220.86 293.41 220.02 292.65 218.56 292.79C216.99 292.94 215.73 294.07 215.73 296.06V304.71L211.7 305.1V296.17C211.7 294.29 210.83 293.54 209.4 293.67C207.83 293.82 206.57 294.95 206.57 296.94V305.59L202.51 305.98V291.34Z" fill="white"/>
<path d="M227.4 299.529C227.4 296.109 230.54 294.519 235.02 294.089L236.67 293.929V293.339C236.67 291.599 236.14 290.699 234.29 290.879C232.69 291.029 231.97 291.919 231.8 293.189L227.96 293.559C228.21 290.059 230.96 288.259 234.54 287.909C238.12 287.559 240.67 288.769 240.67 292.749V302.299L236.72 302.679V300.919C235.88 302.179 234.59 303.199 232.3 303.419C229.64 303.679 227.4 302.599 227.4 299.519V299.529ZM236.67 297.569V296.339L235.1 296.489C232.75 296.719 231.38 297.349 231.38 298.919C231.38 299.979 232.02 300.619 233.51 300.479C235.3 300.309 236.67 299.189 236.67 297.569Z" fill="white"/>
<path d="M244.76 297.58V290.16L242.88 290.34V287.46L244.76 287.28V284.12L248.79 283.73V286.89L251.87 286.59V289.47L248.79 289.77V296.83C248.79 298.01 249.38 298.51 250.41 298.41C251.03 298.35 251.47 298.22 251.95 297.98V301.12C251.39 301.37 250.58 301.64 249.49 301.75C246.41 302.05 244.76 300.64 244.76 297.59V297.58Z" fill="white"/>
<path d="M254.5 282.141C254.5 280.881 255.51 279.83 256.8 279.71C258.09 279.59 259.12 280.441 259.12 281.701C259.12 282.961 258.11 284.011 256.8 284.141C255.49 284.271 254.5 283.41 254.5 282.15V282.141ZM254.81 286.31L258.84 285.921V300.56L254.81 300.951V286.31Z" fill="white"/>
<path d="M261.67 293.121V292.901C261.67 288.311 265 284.991 269.4 284.571C273.8 284.151 277.1 286.771 277.1 291.331V291.551C277.1 296.171 273.77 299.431 269.37 299.851C264.97 300.271 261.67 297.681 261.67 293.121ZM272.98 291.981V291.781C272.98 288.981 271.66 287.431 269.4 287.641C267.14 287.851 265.82 289.611 265.82 292.411V292.631C265.82 295.431 267.11 296.991 269.4 296.761C271.67 296.541 272.98 294.741 272.98 291.961V291.981Z" fill="white"/>
<path d="M279.81 283.902L283.87 283.512V285.832C284.6 284.302 286.19 282.952 288.63 282.712C291.51 282.432 293.56 283.972 293.56 287.892V297.212L289.5 297.602V288.862C289.5 286.872 288.72 286.002 286.92 286.172C285.12 286.342 283.87 287.532 283.87 289.682V298.142L279.81 298.532V283.892V283.902Z" fill="white"/>
<path d="M303.61 276.23L308.87 275.72L316.49 288.17V274.98L320.52 274.59V294.61L315.98 295.05L307.64 281.6V295.85L303.61 296.24V276.22V276.23Z" fill="white"/>
<path d="M324.22 289.061V279.621L328.25 279.231V288.111C328.25 290.101 329.06 290.971 330.8 290.801C332.54 290.631 333.85 289.441 333.85 287.291V278.691L337.88 278.301V292.941L333.85 293.331V291.031C333.09 292.591 331.61 293.851 329.2 294.081C326.34 294.351 324.22 292.881 324.22 289.041V289.061Z" fill="white"/>
<path d="M341.47 277.961L345.53 277.571V279.811C346.26 278.371 347.83 277.011 350.01 276.801C351.94 276.611 353.4 277.291 354.1 278.951C355.28 277.071 357.18 276.111 359.03 275.931C361.75 275.671 363.85 277.171 363.85 281.071V290.451L359.82 290.841V281.911C359.82 280.031 358.98 279.271 357.52 279.411C355.95 279.561 354.69 280.691 354.69 282.681V291.331L350.66 291.721V282.791C350.66 280.911 349.79 280.161 348.36 280.291C346.79 280.441 345.53 281.571 345.53 283.561V292.211L341.47 292.601V277.961Z" fill="white"/>
<path d="M371.37 287.401V289.721L367.31 290.111V268.831L371.37 268.441V277.371C372.18 275.891 373.89 274.501 376.05 274.291C379.63 273.941 382.43 276.331 382.43 281.181V281.401C382.43 286.241 379.69 289.221 376.05 289.571C373.78 289.791 372.13 288.831 371.37 287.391V287.401ZM378.31 281.831V281.611C378.31 278.641 376.85 277.331 374.81 277.521C372.77 277.711 371.23 279.351 371.23 282.291V282.511C371.23 285.451 372.63 286.741 374.84 286.531C377.08 286.311 378.31 284.681 378.31 281.831Z" fill="white"/>
<path d="M384.25 281.349V281.129C384.25 276.509 387.53 273.199 391.78 272.789C395.56 272.429 398.92 274.309 398.92 279.549V280.669L388.36 281.689C388.47 284.119 389.79 285.389 392 285.179C393.88 284.999 394.8 284.099 395.05 282.839L398.89 282.469C398.41 285.679 395.89 287.689 391.89 288.069C387.47 288.499 384.25 286.029 384.25 281.359V281.349ZM394.97 278.549C394.83 276.349 393.71 275.399 391.78 275.579C389.96 275.759 388.73 277.079 388.42 279.179L394.97 278.549Z" fill="white"/>
<path d="M401.59 272.172L405.65 271.782V274.582C406.57 272.532 408 271.362 410.38 271.102V274.882C407.38 275.142 405.65 276.292 405.65 279.092V286.432L401.59 286.822V272.182V272.172Z" fill="white"/>
<path d="M448.75 229.31L410.38 233.01V194.63L448.75 190.93V229.31Z" fill="#4797C2"/>
<path d="M191.11 240.871L102.39 249.421V227.851L191.11 219.301V240.871Z" fill="#4797C2"/>
<path d="M338.75 171.529L334.5 167.749C334.57 165.219 334.68 163.079 334.68 163.079L325.92 160.119L285.33 212.549V76.2289L294.09 73.3389L285.33 70.3789L267.77 72.0689V213.289L234.95 176.679L237.27 172.449L228.51 169.489L214.35 183.309L276.84 249.599L285.6 252.559L281.51 243.709L338.76 171.519L338.75 171.529Z" fill="#EED5AF"/>
<path d="M294.09 73.3398V215.5L334.68 163.07L347.52 174.48L285.59 252.56L223.1 186.27L237.26 172.45L276.53 216.24V75.0298L294.09 73.3398Z" fill="#EEB138"/>
</g>
<defs>
<clipPath id="clip0_9534_1481">
<rect width="540" height="540" fill="white"/>
</clipPath>
</defs>
</svg>
