<svg width="255" height="252" viewBox="0 0 255 252" fill="none" xmlns="http://www.w3.org/2000/svg">
<path d="M219.664 116.406C218.1 115.239 218.1 112.828 219.664 111.356L238.066 94.0731L254 90.1775L240.304 85.3303L213.14 79.2775C211.182 78.8461 210.266 76.7016 211.207 74.7983L220.02 56.9065L236.565 49.0393L223.034 44.0144C222.475 43.7479 221.813 43.621 221.076 43.7479L192.653 48.8489C190.606 49.2169 188.902 47.6815 189.08 45.6259L190.504 28.5082L202.674 18.5726L190.059 14.1821C189.105 13.6238 187.833 13.5604 186.651 14.2836L161.306 29.7644C159.487 30.8811 157.249 30.1705 156.626 28.2798L151.971 14.1821L158.546 4.44954L146.325 0.236734C146.236 0.198666 146.147 0.173288 146.058 0.14791L145.816 0.059086V0.0844601C144.608 -0.194702 143.197 0.211353 142.256 1.40413L123.841 24.9045C122.519 26.5921 120.102 26.8205 118.78 25.3867L107.78 13.4588L112.231 9.23336L99.2211 4.66525V4.69063C97.5043 4.06886 95.317 5.04593 94.6811 7.10158L86.0081 35.0431C85.385 37.048 83.1595 38.19 81.3283 37.4287L55.9832 26.8205C53.6687 25.8562 50.9473 27.9245 51.1635 30.5004L53.5416 58.6323C53.7069 60.6498 52.0028 62.5279 49.9681 62.5532L21.5455 62.9085C18.9512 62.9466 17.1327 65.8397 18.3281 68.0349L31.4012 92.0682C32.3423 93.7939 31.4139 96.1161 29.4682 96.9155L2.30468 108.183C-0.175142 109.211 -0.810992 112.485 1.17286 113.97L22.9571 130.25C24.5213 131.417 24.5213 133.828 22.9571 135.3L1.17286 155.768C-0.810992 157.633 -0.175142 160.78 2.30468 161.338L13.5592 164.967L13.7881 163.902L29.4682 167.391C31.4267 167.823 32.3423 169.967 31.4012 171.87L18.3281 198.416C17.5015 200.091 18.1247 201.791 19.4345 202.553H19.4091L19.5362 202.604C19.8796 202.781 20.2484 202.921 20.6681 202.959L31.3249 206.271L33.0544 200.852L49.9681 197.807C52.0155 197.439 53.7196 198.974 53.5416 201.03L51.1635 229.619C51.049 231.015 51.7866 232.093 52.8294 232.588H52.8167L53.0583 232.677C53.1982 232.728 53.3254 232.778 53.478 232.816L64.9615 236.661L68.2297 224.886L81.3283 216.879C83.1468 215.762 85.385 216.473 86.0081 218.363L94.6811 244.643C95.1135 245.95 96.258 246.622 97.4916 246.635L109.407 251L104.511 239.948L118.78 221.726C120.102 220.038 122.519 219.81 123.841 221.244L142.256 241.204C142.701 241.686 143.235 241.953 143.82 242.08L156.626 246.66L149.174 235.557L156.613 211.587C157.236 209.583 159.462 208.441 161.293 209.202L186.638 219.81C188.952 220.774 191.674 218.706 191.458 216.13L189.08 187.998C188.914 185.981 190.618 184.103 192.653 184.077L221.076 183.722C223.67 183.684 225.488 180.791 224.293 178.596L211.22 154.562C210.279 152.837 211.207 150.515 213.153 149.715L240.316 138.447C242.796 137.419 243.432 134.145 241.448 132.661L219.664 116.381V116.406Z" fill="#BCD0E1"/>
<path d="M136.035 29.0626L154.478 5.43649C156.159 3.28055 159.381 3.61223 160.171 6.02331L168.858 32.4432C169.482 34.344 171.711 35.0584 173.545 33.9358L198.929 18.3722C201.247 16.9561 203.973 18.5125 203.757 21.1404L201.375 49.8821C201.209 51.9487 202.916 53.4924 204.954 53.1224L233.421 47.9813C236.019 47.5093 237.841 50.0735 236.643 52.5101L223.55 79.1979C222.607 81.1114 223.537 83.2673 225.486 83.7011L252.692 89.7735C255.175 90.3348 255.812 93.4858 253.825 95.3738L232.007 115.951C230.44 117.431 230.44 119.855 232.007 121.028L253.825 137.396C255.812 138.888 255.175 142.179 252.692 143.213L225.486 154.541C223.524 155.358 222.607 157.679 223.55 159.414L236.643 183.576C237.841 185.783 236.019 188.692 233.421 188.73L204.954 189.087C202.903 189.113 201.197 190.988 201.375 193.029L203.757 221.312C203.973 223.889 201.247 225.981 198.929 225.011L173.545 214.346C171.723 213.581 169.482 214.716 168.858 216.745L160.171 244.836C159.381 247.4 156.159 248.357 154.478 246.52L136.035 226.453C134.71 225.011 132.29 225.241 130.965 226.937L112.522 250.564C110.841 252.719 107.619 252.388 106.829 249.977L98.1424 223.557C97.5183 221.656 95.2894 220.942 93.4552 222.064L68.0707 237.628C65.7525 239.044 63.0268 237.488 63.2434 234.86L65.6252 206.118C65.7907 204.051 64.084 202.508 62.0461 202.878L33.5792 208.019C30.9809 208.491 29.1595 205.927 30.3567 203.49L43.4503 176.802C44.3928 174.889 43.463 172.733 41.5143 172.299L14.3083 166.227C11.8246 165.665 11.1877 162.514 13.1747 160.626L34.993 140.049C36.5596 138.569 36.5596 136.145 34.993 134.972L13.1747 118.604C11.1877 117.112 11.8246 113.821 14.3083 112.787L41.5143 101.459C43.4757 100.642 44.3928 98.3207 43.4503 96.5857L30.3567 72.4238C29.1595 70.2169 30.9809 67.3083 33.5792 67.27L62.0461 66.9128C64.0967 66.8873 65.8035 65.012 65.6252 62.9709L63.2434 34.6884C63.0268 32.1115 65.7525 30.0194 68.0707 30.9889L93.4552 41.6538C95.2766 42.4192 97.5183 41.2838 98.1424 39.2555L106.829 11.1644C107.619 8.60025 110.841 7.64346 112.522 9.48048L130.965 29.5473C132.29 30.9889 134.71 30.7593 136.035 29.0626Z" fill="#4797C2"/>
<path d="M88 108.438C88 95.8748 97.7863 85.7992 108.844 84.7333C120.155 83.642 129.687 91.8649 129.687 104.174C129.687 116.483 119.774 126.571 108.844 127.624C98.0405 128.665 88 120.747 88 108.438ZM120.028 105.1C120.028 96.9788 115.707 92.3217 108.844 92.9816C102.108 93.6287 97.6592 98.7554 97.6592 107.384C97.6592 116.013 102.108 120.023 108.844 119.376C115.707 118.716 120.028 113.602 120.028 105.1ZM156.377 80.9264L166.036 80L110.496 176.074L100.837 177L156.377 80.9264ZM137.313 153.321C137.313 140.758 147.099 130.683 158.156 129.617C169.468 128.525 179 136.748 179 149.057C179 161.366 169.087 171.455 158.156 172.508C147.353 173.548 137.313 165.63 137.313 153.321ZM169.341 149.984C169.341 141.862 165.02 137.205 158.156 137.865C151.42 138.512 146.972 143.639 146.972 152.268C146.972 160.897 151.42 164.907 158.156 164.26C165.02 163.6 169.341 158.486 169.341 149.984Z" fill="#BCD0E1"/>
</svg>
