<svg width="580" height="580" viewBox="0 0 580 580" fill="none" xmlns="http://www.w3.org/2000/svg">
<g clip-path="url(#clip0_4987_58200)">
<path d="M485.644 206.379L450.743 210.043C448.104 210.319 445.949 212.716 445.949 215.366V471.473C445.949 474.181 447.263 476.716 449.464 478.283L472.716 494.806L516.178 222.51L491.336 207.646C489.63 206.621 487.626 206.183 485.644 206.39V206.379Z" fill="#B7D1E3"/>
<path d="M475.538 225.769L513.493 221.782C515.774 221.54 517.526 223.119 517.526 225.4V485.817C517.526 488.409 515.302 490.863 512.733 491.14L474.778 495.127C472.497 495.369 470.745 493.79 470.745 491.509V231.092C470.745 228.5 472.969 226.046 475.538 225.769Z" fill="#1599C6"/>
<path d="M337.697 482.764V283.6C337.697 280.95 339.851 278.553 342.49 278.277L377.403 274.613C379.385 274.405 381.378 274.843 383.083 275.869L407.683 290.571L364.083 505.889L341.2 489.574C338.999 488.006 337.697 485.472 337.697 482.775V482.764Z" fill="#B7D1E3"/>
<path d="M367.286 294.015L405.241 290.028C407.522 289.786 409.273 291.365 409.273 293.646V497.119C409.273 499.712 407.05 502.166 404.48 502.443L366.525 506.429C364.244 506.671 362.493 505.093 362.493 502.811V299.338C362.493 296.746 364.716 294.292 367.286 294.015Z" fill="#1599C6"/>
<path d="M226.414 493.41V354.151C226.414 351.501 228.569 349.104 231.207 348.828L266.12 345.164C268.102 344.956 270.095 345.394 271.801 346.419L296.539 361.203L253.077 516.685L229.928 500.22C227.728 498.653 226.414 496.118 226.414 493.41Z" fill="#B7D1E3"/>
<path d="M256.003 364.554L293.958 360.567C296.239 360.325 297.991 361.904 297.991 364.185V507.754C297.991 510.346 295.767 512.801 293.197 513.077L255.243 517.064C252.961 517.306 251.21 515.727 251.21 513.446V369.877C251.21 367.285 253.434 364.831 256.003 364.554Z" fill="#1599C6"/>
<path d="M157.418 394.792L122.529 398.457C119.89 398.733 117.735 401.13 117.735 403.78V503.679C117.735 506.375 119.037 508.921 121.238 510.488L144.271 526.896L188.091 411.016L163.122 396.048C161.405 395.023 159.412 394.585 157.43 394.792H157.418Z" fill="#B7D1E3"/>
<path d="M147.313 414.195L185.268 410.208C187.549 409.966 189.301 411.545 189.301 413.826V518.046C189.301 520.638 187.077 523.092 184.507 523.369L146.553 527.356C144.271 527.598 142.52 526.019 142.52 523.738V419.518C142.52 416.926 144.744 414.471 147.313 414.195Z" fill="#1599C6"/>
<path d="M539.948 75.8071L519.024 60.4709C518.229 59.9178 517.226 59.6528 516.097 59.7565L459.177 64.5382C457.863 64.665 456.619 65.2987 455.628 66.2205L479.641 83.8036L492.281 79.621L452.171 110.34C451.549 110.87 450.846 111.25 450.132 111.492L476.61 128.891L517.008 94.842L505.312 113.428C505.312 116.274 507.617 118.129 510.463 117.587L515.613 116.596C518.459 116.043 520.764 113.301 520.764 110.455V78.2614L539.96 77.9157V75.7956L539.948 75.8071Z" fill="#AFD4A7"/>
<path d="M517.872 97.1253L533 94.3945L527.47 131.888L504.805 115.296L517.872 97.1253Z" fill="#7AB96E"/>
<path d="M303.648 214.916L214.569 298.245C213.786 298.983 212.864 299.489 211.896 299.754L240.437 318.732L320.436 241.106C321.531 240.08 322.902 239.47 324.262 239.412C327.914 239.251 324.803 231.197 330.645 230.874L305.204 213.855C304.651 214.132 304.121 214.478 303.648 214.916Z" fill="#AFD4A7"/>
<path d="M27.8034 420.926L51.286 439.304C52.7493 440.952 55.3188 441.056 57.4389 439.719L26.7664 417.965C26.7549 419.071 27.066 420.131 27.7919 420.938L27.8034 420.926Z" fill="#7AB96E"/>
<path d="M139.685 308.167L28.7942 413.516C27.4807 414.772 26.7894 416.408 26.7778 417.952L55.0076 437.978C55.3763 437.747 54.5006 435.57 54.8347 435.247L160.921 334.461C161.946 333.482 163.237 332.871 164.527 332.744L177.294 331.511L141.01 307.199C140.538 307.464 140.089 307.775 139.685 308.156V308.167Z" fill="#AFD4A7"/>
<path d="M361.467 209.605C349.991 211.022 327.787 212.451 308.568 213.177L307.508 213.211C306.725 213.246 305.941 213.476 305.204 213.845L330.645 230.864C334.286 230.656 335.876 233.733 339.759 233.468C349.023 232.845 358.333 232.765 363.829 232.085C371.941 231.083 388.049 232.039 390.999 225.817L364.601 208.199C363.691 208.948 362.608 209.455 361.479 209.605H361.467Z" fill="#7AB96E"/>
<path d="M211.008 299.927L143.292 306.449C142.508 306.529 141.736 306.794 141.01 307.209L177.294 331.521L232.452 326.267C233.719 326.14 234.986 325.541 236.012 324.585L241.508 319.446L211.907 299.766C211.608 299.846 211.308 299.904 211.008 299.938V299.927Z" fill="#7AB96E"/>
<path d="M392.001 121.367L391.379 123.475C383.682 149.297 371.976 188.277 366.71 205.088C366.33 206.321 365.558 207.392 364.59 208.199L375.317 215.354C375.317 215.354 390.988 225.84 390.999 225.817C392.612 222.36 405.943 178.725 415.726 145.944C416.463 143.489 418.03 140.563 420.439 140.332L423.573 137.936L393.949 118.348C393.062 119.154 392.359 120.191 392.013 121.355L392.001 121.367Z" fill="#AFD4A7"/>
<path d="M448.864 111.803L397.417 116.758C396.15 116.885 394.928 117.472 393.949 118.36L423.573 137.948L455.789 135.033C456.953 134.917 465.007 134.503 465.986 133.673L476.61 128.903L450.132 111.504C449.717 111.654 449.291 111.757 448.864 111.803Z" fill="#7AB96E"/>
<path d="M479.652 83.8136L455.64 66.2305C454.51 67.2905 453.715 68.7193 453.566 70.2633L453.07 75.4829C452.886 77.4071 453.773 78.9742 455.202 79.7346V79.7577L475.815 95.0478L476.898 83.3757L479.641 83.8251L479.652 83.8136Z" fill="#7AB96E"/>
<path d="M525.787 128.406V98.7586L476.564 140.446C475.585 141.276 474.421 141.795 473.246 141.898L428.827 146.173C426.407 146.403 424.16 148.316 423.423 150.77C413.641 183.552 400.079 228.604 398.466 232.061C395.539 238.34 388.51 239.216 380.364 240.218C374.856 240.898 367.367 241.566 358.103 242.189C347.998 242.868 337.904 243.364 331.982 243.629C330.634 243.687 329.262 244.297 328.156 245.323L239.457 328.295C238.432 329.251 237.164 329.851 235.897 329.977L168.261 336.488C166.97 336.614 165.691 337.225 164.654 338.204L58.5681 438.99C56.2982 441.145 53.072 441.318 51.3551 439.382L48.2441 435.879C46.5273 433.943 46.9766 430.625 49.235 428.47L160.126 323.122C161.152 322.142 162.442 321.532 163.733 321.405L231.449 314.883C232.717 314.756 233.984 314.157 235.01 313.201L324.089 229.871C325.195 228.834 326.589 228.224 327.949 228.178L329.009 228.143C348.228 227.417 370.432 225.988 381.908 224.571C384.247 224.283 386.402 222.428 387.151 220.054C392.416 203.243 404.123 164.263 411.82 138.442L412.442 136.333C413.18 133.879 415.427 131.954 417.846 131.724L469.293 126.769C470.457 126.654 471.632 126.147 472.612 125.318L511.108 92.7094L478.143 95.1867C475.308 95.4632 473.234 93.3431 473.511 90.4625L474.006 85.2429C474.283 82.3623 476.794 79.8044 479.629 79.5278L536.549 74.7461C539.188 74.4926 541.204 76.3246 541.204 78.9748V125.444C541.204 128.29 538.9 131.033 536.054 131.586L530.903 132.577C528.057 133.13 525.753 131.263 525.753 128.417L525.787 128.406Z" fill="#169D06"/>
</g>
<defs>
<clipPath id="clip0_4987_58200">
<rect width="580" height="580" fill="white"/>
</clipPath>
</defs>
</svg>
