<svg width="540" height="540" viewBox="0 0 540 540" fill="none" xmlns="http://www.w3.org/2000/svg">
<g clip-path="url(#clip0_9536_1736)">
<path d="M266.007 222.122L68 241.25L266.007 116.25L464 203.007L266.007 222.122Z" fill="#BCD0E1"/>
<path d="M464.125 203.137L462.084 202.25L459.426 203.352L455.129 208.768L454.498 209.171L266.083 331.568L82.73 247.806L102.562 233.414L68 241.074V462.74L74.848 468.25L81.7364 461.423L464.152 424.562V215.191L471 208.405L464.125 203.137Z" fill="#BCD0E1"/>
<path d="M272.507 227.135L74 246.25L272.507 121.25L471 208.007L272.507 227.135Z" fill="#4797C2"/>
<path d="M272.507 228.395L74 247.526L272.507 338.25L471 209.25L272.507 228.395Z" fill="#BCD0E1"/>
<path d="M368 94.278L365.981 92.25L172 110.999V348.222L174.02 350.25L175.464 347.886L365.981 329.473V96.2523L368 94.278Z" fill="#EED5AF"/>
<path d="M368 331.499L174 350.25V113.001L368 94.25V331.499Z" fill="#EEB138"/>
<path d="M294.359 204.723C307.825 190.592 308.334 169.22 295.497 156.986C282.66 144.753 261.337 146.291 247.871 160.422C234.405 174.553 233.895 195.925 246.732 208.158C259.57 220.392 280.893 218.854 294.359 204.723Z" fill="#EED5AF"/>
<path d="M315 333.923L227 342.25V268.165C227 245.145 246.003 224.676 269.435 222.46C294.603 220.082 315 238.187 315 262.914V333.923Z" fill="#EED5AF"/>
<path d="M322.889 153.382L310 154.605V148.026L322.889 146.803V132.934L330.045 132.25V146.118L343 144.882V151.461L330.045 152.697V166.566L322.889 167.25V153.382Z" fill="#EED5AF"/>
<path d="M471 430.209L74 468.25V247.304L272.507 337.504L471 209.25V430.209Z" fill="#82B3D8"/>
</g>
<defs>
<clipPath id="clip0_9536_1736">
<rect width="540" height="540" fill="white"/>
</clipPath>
</defs>
</svg>
