<svg width="540" height="540" viewBox="0 0 540 540" fill="none" xmlns="http://www.w3.org/2000/svg">
<g clip-path="url(#clip0_21468_3341)">
<path d="M223.16 476.181L217.03 472.221H217.02C214.48 470.581 211.33 469.741 207.91 470.071C199.49 470.881 192.66 478.361 192.66 486.781C192.66 491.521 194.82 495.541 198.21 498.011L198.25 498.041C198.63 498.311 199.02 498.571 199.43 498.801L204.29 501.941L204.93 500.551C205.89 500.651 206.88 500.661 207.9 500.551C216.32 499.741 223.15 492.261 223.15 483.841C223.15 481.191 222.47 478.761 221.28 476.701L223.15 476.161L223.16 476.181Z" fill="#499B2D"/>
<path d="M228.709 487.422C228.709 495.842 221.879 503.322 213.459 504.132C205.039 504.942 198.209 498.772 198.209 490.352C198.209 481.932 205.039 474.452 213.459 473.642C221.879 472.832 228.709 479.002 228.709 487.422Z" fill="#2C681A"/>
<path d="M377.81 460.634L371.68 456.674H371.67C369.13 455.034 365.98 454.194 362.56 454.524C354.14 455.334 347.31 462.814 347.31 471.234C347.31 475.974 349.47 479.994 352.86 482.464L352.9 482.494C353.28 482.764 353.67 483.024 354.08 483.254L358.94 486.394L359.58 485.004C360.54 485.104 361.53 485.114 362.55 485.004C370.97 484.194 377.8 476.714 377.8 468.294C377.8 465.644 377.12 463.214 375.93 461.154L377.8 460.614L377.81 460.634Z" fill="#499B2D"/>
<path d="M383.359 471.875C383.359 480.295 376.529 487.775 368.109 488.585C359.689 489.395 352.859 483.225 352.859 474.805C352.859 466.385 359.689 458.905 368.109 458.095C376.529 457.285 383.359 463.455 383.359 471.875Z" fill="#2C681A"/>
<path d="M185.74 454.454L179.61 450.494H179.6C177.06 448.854 173.91 448.014 170.49 448.344C162.07 449.154 155.24 456.634 155.24 465.054C155.24 469.794 157.4 473.814 160.79 476.284L160.83 476.314C161.21 476.584 161.6 476.844 162.01 477.074L166.87 480.214L167.51 478.824C168.47 478.924 169.46 478.934 170.48 478.824C178.9 478.014 185.73 470.534 185.73 462.114C185.73 459.464 185.05 457.034 183.86 454.974L185.73 454.434L185.74 454.454Z" fill="#499B2D"/>
<path d="M191.29 465.687C191.29 474.107 184.46 481.587 176.04 482.397C167.62 483.207 160.79 477.037 160.79 468.617C160.79 460.197 167.62 452.717 176.04 451.907C184.46 451.097 191.29 457.267 191.29 465.687Z" fill="#2C681A"/>
<path d="M344.44 438.93L165.24 456.18C155.2 457.15 146.51 449.25 146.51 439.17V145.38C146.51 136.58 153.2 129.21 161.96 128.37L341.16 111.12C351.2 110.15 359.89 118.05 359.89 128.13V421.92C359.89 430.72 353.2 438.09 344.44 438.93Z" fill="#B6D3AB"/>
<path d="M386.14 137.809L352.57 114.109L299.23 191.489L386.14 137.809Z" fill="#B6D3AB"/>
<path d="M152.12 451.839L186.1 475.879L231.84 396.289L152.12 451.839Z" fill="#B6D3AB"/>
<path d="M393.49 151.857V445.647C393.49 454.447 386.8 461.807 378.04 462.657L198.84 479.907C188.8 480.877 180.11 472.987 180.11 462.897V169.107C180.11 160.307 186.8 152.937 195.56 152.097L374.76 134.837C384.8 133.877 393.49 141.767 393.49 151.857Z" fill="#499B2D"/>
<path d="M230.78 135.506C227.13 135.856 223.97 132.986 223.97 129.326V53.7156L236.39 52.5156V129.316C236.39 132.516 233.96 135.196 230.77 135.496L230.78 135.506Z" fill="#2C681A"/>
<path d="M310.41 127.842C306.76 128.192 303.6 125.322 303.6 121.662V46.0516L316.02 44.8516V121.652C316.02 124.852 313.59 127.532 310.4 127.832L310.41 127.842Z" fill="#2C681A"/>
<path d="M393.49 168.664V171.684L180.11 193.004V189.984L393.49 168.664Z" fill="#88B776"/>
<path d="M393.49 202.172V205.192L180.11 226.512V223.492L393.49 202.172Z" fill="#88B776"/>
<path d="M393.49 236.086V239.106L180.11 260.426V257.406L393.49 236.086Z" fill="#88B776"/>
<path d="M393.49 270.008V273.028L180.11 294.348V291.328L393.49 270.008Z" fill="#88B776"/>
<path d="M393.49 303.922V306.942L180.11 328.262V325.242L393.49 303.922Z" fill="#88B776"/>
<path d="M393.49 337.836V340.856L180.11 362.176V359.156L393.49 337.836Z" fill="#88B776"/>
<path d="M393.49 371.758V374.778L180.11 396.098V393.078L393.49 371.758Z" fill="#88B776"/>
<path d="M393.49 403.156V406.176L180.11 427.496V424.476L393.49 403.156Z" fill="#88B776"/>
<path d="M393.49 434.555V437.575L180.11 458.895V455.875L393.49 434.555Z" fill="#88B776"/>
<path d="M163.51 250.695V261.985C163.51 261.985 158.29 261.605 158.26 274.785C158.23 287.965 158.26 328.995 158.26 328.995C158.26 328.995 158.43 337.275 163.51 338.215V346.125C163.51 346.125 154.66 344.995 154.66 329.375V265.185C154.66 265.185 154.85 252.575 163.51 250.695Z" fill="#2C681A"/>
<path d="M166.05 253.805L163.51 250.695L159.6 263.215L166.05 253.805Z" fill="#2C681A"/>
<path d="M163.51 338.227L166.05 341.337L160.36 342.747L163.51 338.227Z" fill="#2C681A"/>
<path d="M166.05 253.805V265.095C166.05 265.095 160.83 264.715 160.8 277.895C160.77 291.075 160.8 332.105 160.8 332.105C160.8 332.105 160.97 340.385 166.05 341.325V349.235C166.05 349.235 157.2 348.105 157.2 332.485V268.295C157.2 268.295 157.39 255.685 166.05 253.805Z" fill="#499B2D"/>
<path d="M216.5 50.2731V44.0431C216.5 41.5531 218.39 39.4731 220.87 39.2331L311.73 30.4831C314.57 30.2131 317.02 32.4431 317.02 35.2931V41.5231C317.02 44.0131 315.13 46.0931 312.65 46.3331L221.79 55.0831C218.95 55.3531 216.5 53.1231 216.5 50.2731Z" fill="#EED5AF"/>
<path d="M225.07 58.3797L218.4 54.1097L228.85 50.6797L225.07 58.3797Z" fill="#EED5AF"/>
<path d="M315.21 31.5312L321.35 35.4112L313.06 38.5512L315.21 31.5312Z" fill="#EED5AF"/>
<path d="M222.99 54.4137V48.1837C222.99 45.6937 224.88 43.6137 227.36 43.3737L318.22 34.6237C321.06 34.3537 323.51 36.5837 323.51 39.4337V45.6637C323.51 48.1537 321.62 50.2337 319.14 50.4737L228.28 59.2237C225.44 59.4937 222.99 57.2637 222.99 54.4137Z" fill="#EA9E06"/>
</g>
<defs>
<clipPath id="clip0_21468_3341">
<rect width="540" height="540" fill="white"/>
</clipPath>
</defs>
</svg>
