<svg width="540" height="540" viewBox="0 0 540 540" fill="none" xmlns="http://www.w3.org/2000/svg">
<g clip-path="url(#clip0_2150_37053)">
<path d="M432.782 473.853L56.797 510.054C54.3634 510.29 52.3896 508.507 52.3896 506.073V248.852C52.3896 246.419 54.3634 244.254 56.797 244.019L432.782 207.818C435.215 207.582 437.189 209.365 437.189 211.799V469.009C437.189 471.442 435.215 473.607 432.782 473.842V473.853Z" fill="#CC9A4A"/>
<path d="M432.423 141.864L172.455 352.892C170.627 354.372 168.103 354.17 166.814 352.443L82.7033 239.634C81.4136 237.907 81.8509 235.305 83.6789 233.825L343.659 22.7975C345.487 21.3171 348.01 21.519 349.3 23.2461L433.41 136.055C434.7 137.782 434.262 140.384 432.434 141.864H432.423Z" fill="#499B2D"/>
<path d="M404.487 140.867L176.032 326.302C174.204 327.782 171.681 327.581 170.391 325.853L107.062 240.913C105.772 239.186 106.209 236.584 108.037 235.104L336.492 49.6686C338.32 48.1882 340.844 48.3901 342.133 50.1172L405.463 135.057C406.753 136.785 406.315 139.386 404.487 140.867Z" fill="#91CC7A"/>
<path d="M283.297 229.247C302.202 217.73 306.302 189.968 292.456 167.239C278.609 144.511 252.059 135.421 233.155 146.938C214.25 158.455 210.15 186.216 223.996 208.945C237.843 231.674 264.393 240.763 283.297 229.247Z" fill="#499B2D"/>
<path d="M474.445 159.999L214.476 371.026C212.648 372.507 210.125 372.305 208.835 370.578L124.725 257.769C123.435 256.042 123.872 253.44 125.7 251.96L385.68 40.9322C387.508 39.4519 390.031 39.6538 391.321 41.3808L475.431 154.19C476.721 155.917 476.284 158.519 474.456 159.999H474.445Z" fill="#499B2D"/>
<path d="M446.509 159.001L218.054 344.437C216.226 345.917 213.702 345.715 212.413 343.988L149.083 259.048C147.793 257.321 148.231 254.719 150.059 253.239L378.514 67.8033C380.342 66.323 382.865 66.5249 384.155 68.2519L447.484 153.192C448.774 154.919 448.337 157.521 446.509 159.001Z" fill="#91CC7A"/>
<path d="M325.321 247.373C344.226 235.857 348.326 208.095 334.48 185.366C320.633 162.637 294.083 153.548 275.178 165.065C256.274 176.582 252.174 204.343 266.02 227.072C279.867 249.801 306.417 258.89 325.321 247.373Z" fill="#499B2D"/>
<path d="M449.952 483.778L73.967 519.979C71.5334 520.214 69.5596 518.431 69.5596 515.998V258.788C69.5596 256.354 71.5334 254.19 73.967 253.954L449.952 217.753C452.385 217.518 454.359 219.301 454.359 221.735V478.944C454.359 481.378 452.385 483.542 449.952 483.778Z" fill="#EA9E06"/>
<path d="M54.2957 509.505L71.3869 519.374C70.1757 518.634 69.5701 517.243 69.5701 515.987V258.778C69.5701 256.344 71.5439 254.18 73.9775 253.944L56.8078 244.098C54.3742 244.333 52.4004 246.498 52.4004 248.931V506.141C52.4004 507.509 53.0284 508.922 54.2957 509.505Z" fill="#FFD180"/>
<path d="M297.734 408.326L291.902 404.58C291.409 403.918 291.128 403.088 291.128 402.158V327.277C291.128 324.843 293.102 322.679 295.536 322.443L454.37 307.494V391.19L297.734 406.273" fill="#CC9A4A"/>
<path d="M453.978 307.493L476.777 305.071C477.45 305.003 478.089 305.093 478.672 305.317L486.422 309.837V388.284L454.359 391.189L453.978 308.715" fill="#CC9A4A"/>
<path d="M483.203 392.435L301.401 409.941C298.967 410.177 296.994 408.394 296.994 405.96V331.079C296.994 328.646 298.967 326.481 301.401 326.246L483.203 308.74C485.636 308.504 487.61 310.287 487.61 312.721V387.602C487.61 390.035 485.636 392.2 483.203 392.435Z" fill="#FFD180"/>
<path d="M366.405 380.104C376.502 369.508 376.887 353.486 367.264 344.316C357.642 335.147 341.657 336.302 331.56 346.898C321.463 357.493 321.078 373.515 330.701 382.685C340.323 391.855 356.308 390.699 366.405 380.104Z" fill="#EA9E06"/>
<path d="M387.317 39.6649L382.495 38.2855C381.015 37.8593 379.422 38.1846 378.222 39.149L118.231 249.526L129.884 248.561L386.028 40.6742C386.028 40.6742 386.959 39.9789 388.372 39.9228C387.654 39.777 387.317 39.6537 387.317 39.6537V39.6649Z" fill="#3E7F26"/>
<path d="M76.064 239.129C74.2024 236.561 75.3799 233.151 77.8472 231.155L336.156 21.0475C337.356 20.083 338.948 19.7578 340.429 20.1839L345.251 21.5633C345.251 21.5633 345.587 21.6867 346.305 21.8325C344.892 21.8773 343.961 22.5839 343.961 22.5839L83.2527 234.43C83.2527 234.43 82.1985 235.518 82.2097 236.74C82.2209 237.963 82.1536 238.635 82.905 239.634C83.6564 240.632 92.2805 252.205 92.2805 252.205L85.9891 252.811L76.0753 239.129H76.064Z" fill="#3E7F26"/>
</g>
<defs>
<clipPath id="clip0_2150_37053">
<rect width="540" height="540" fill="white"/>
</clipPath>
</defs>
</svg>
