<svg width="540" height="540" viewBox="0 0 540 540" fill="none" xmlns="http://www.w3.org/2000/svg">
<g clip-path="url(#clip0_2150_36623)">
<path d="M438.017 253.03L392.806 177.906L395.161 171.953L383.432 162.312L124.443 184.97V375.972L136.172 385.613L149.159 373.81L383.432 353.3L438.017 253.03Z" fill="#BCD0E1"/>
<path d="M136.172 385.613V194.61L395.161 171.953L449.746 262.671L395.161 362.941L136.172 385.613Z" fill="#4797C2"/>
<path d="M272.027 341.781C240.662 342.329 230.192 325.077 228 304.167L243.416 302.819C245.253 316.962 249.651 329.238 272.042 329.297V278.296C247.829 275.823 233.332 268.478 233.332 246.457C233.332 227.384 249.103 211.139 272.042 207.659V191.147L282.867 190.199V206.889C304.872 206.977 318.644 218.247 321.029 239.32L306.723 240.578C303.969 226.688 296.446 220.009 282.881 219.372V265.235C309.848 267.649 323.783 275.053 323.783 298.717C323.783 319.627 306.723 337.264 282.881 340.818V364.112L272.056 365.06V341.766L272.027 341.781ZM272.027 264.361V220.142C256.611 222.778 247.815 232.345 247.815 243.718C247.815 255.091 251.665 261.903 272.027 264.346V264.361ZM282.852 279.185V328.349C297.527 325.595 308.53 314.725 308.53 301.161C308.53 287.596 302.844 281.658 282.852 279.185Z" fill="#BCD0E1"/>
<path d="M264.284 25.7152C129.377 37.5178 20 156.461 20 291.368C20 426.275 129.362 526.086 264.284 514.283C399.191 502.481 508.568 383.537 508.568 248.63C508.568 113.723 399.206 13.9127 264.284 25.7152ZM89.0529 417.183C61.3902 382.901 44.997 338.682 44.997 289.191C44.997 168.071 143.179 61.3005 264.299 50.7123C326.243 45.2923 382.176 66.0837 422.056 103.89L89.0529 417.183ZM264.284 489.301C201.791 494.765 145.415 473.559 105.461 435.116L438.597 121.69C466.807 156.121 483.586 200.769 483.586 250.807C483.586 371.927 385.404 478.698 264.284 489.286V489.301Z" fill="#B6D3AB"/>
<path d="M278.337 30.3197C144.867 42.0037 36.6743 159.659 36.6743 293.129C36.6743 426.6 144.867 525.329 278.337 513.645C411.808 501.961 520 384.306 520 250.836C520 117.365 411.808 18.6356 278.337 30.3197ZM104.972 417.596C77.6055 383.684 61.39 339.94 61.39 290.967C61.39 171.15 158.52 65.5199 278.337 55.0354C339.616 49.6746 394.956 70.2439 434.406 107.651L104.972 417.596ZM278.337 488.93C216.511 494.335 160.741 473.366 121.217 435.337L450.784 125.273C478.699 159.333 495.284 203.507 495.284 253.013C495.284 372.83 398.154 478.46 278.337 488.945V488.93Z" fill="#499B2D"/>
</g>
<defs>
<clipPath id="clip0_2150_36623">
<rect width="540" height="540" fill="white"/>
</clipPath>
</defs>
</svg>
