<svg width="540" height="540" viewBox="0 0 540 540" fill="none" xmlns="http://www.w3.org/2000/svg">
<g clip-path="url(#clip0_2150_37035)">
<path d="M275.518 519.279C138.024 526.898 102.414 472.117 100.711 452.142C99.1003 433.299 103.744 398.867 104.631 392.916L122.996 258.514C132.704 173.736 188.733 105.35 269.836 97.5329C350.928 89.7271 403.526 146.655 416.676 230.231L436.383 391.504C436.966 396.428 440.7 418.294 439.323 430.627C438.005 442.376 417.119 511.415 275.53 519.267L275.518 519.279Z" fill="#4797C2"/>
<path opacity="0.2" d="M275.518 519.279C138.024 526.898 102.414 472.117 100.711 452.142C99.1003 433.299 103.744 398.867 104.631 392.916L122.996 258.514C132.704 173.736 188.733 105.35 269.836 97.5329C350.928 89.7271 403.526 146.655 416.676 230.231L436.383 391.504C436.966 396.428 440.7 418.294 439.323 430.627C438.005 442.376 417.119 511.415 275.53 519.267L275.518 519.279Z" fill="white"/>
<path d="M321.875 30.0581C325.597 26.2428 331.571 28.938 330.649 34.0252C324.559 67.6403 300.021 94.7097 270.665 97.545C241.647 100.345 215.791 76.7062 209.362 44.853C208.382 40.0108 214.332 36.1254 218.054 39.1474C221.905 42.286 231.006 53.4172 236.128 52.9271C251.436 51.457 262.299 30.8632 270.665 30.0581C279.031 29.2531 294.946 48.855 303.381 47.8399C309.53 47.0932 316.403 35.6937 321.875 30.0815V30.0581Z" fill="#4797C2"/>
<path d="M321.875 30.0581C325.597 26.2428 331.571 28.938 330.649 34.0252C324.559 67.6403 300.021 94.7097 270.665 97.545C241.647 100.345 215.791 76.7062 209.362 44.853C208.382 40.0108 214.332 36.1254 218.054 39.1474C221.905 42.286 231.006 53.4172 236.128 52.9271C251.436 51.457 262.299 30.8632 270.665 30.0581C279.031 29.2531 294.946 48.855 303.381 47.8399C309.53 47.0932 316.403 35.6937 321.875 30.0815V30.0581Z" fill="#4797C2"/>
<path d="M331.209 32.4836C329.552 67.5922 299.472 88.7693 270.291 91.5813C241.436 94.3699 214.822 74.8029 209.245 42.9263C208.475 38.5159 214.927 36.8474 218.999 35.7856C223.678 34.5605 233.701 34.4088 238.636 33.0553C254.423 28.7032 253.863 24.4445 270.198 22.986C284.596 21.7025 293.685 27.6648 304.979 27.3614C315.679 27.0697 331.675 22.4959 331.209 32.4836Z" fill="#4797C2"/>
<path opacity="0.2" d="M321.875 30.0606C325.597 26.2452 331.711 28.8005 330.194 33.6776C317.219 63.0106 291.2 93.6854 271.19 96.824C242.277 101.643 215.791 76.697 209.362 44.8438C208.382 40.0016 214.332 36.1162 218.054 39.1382C221.905 42.2768 231.006 53.408 236.128 52.9179C251.436 51.4478 262.299 30.854 270.665 30.0489C279.031 29.2438 294.945 48.8458 303.381 47.8307C309.53 47.084 316.403 35.6845 321.875 30.0723V30.0606Z" fill="white"/>
<path opacity="0.2" d="M365.057 440.931C394.857 410.7 409.302 293.053 405.101 185.755C382.582 127.58 335.654 91.5843 270.093 97.8966C189.001 105.702 132.972 174.099 123.253 258.878L104.888 393.28C104.141 398.297 100.734 423.546 100.641 442.635C100.641 446.065 100.734 449.297 100.979 452.156C101.667 460.195 107.851 473.87 123.941 486.856C126.147 487.906 128.258 488.828 130.277 489.598C173.425 505.945 291.9 515.151 365.057 440.943V440.931Z" fill="white"/>
<path opacity="0.1" d="M212.943 28.2598C212.943 28.2598 231.554 69.0972 242.906 83.5887C252.777 96.1666 260.536 98.4302 261.517 97.1584C261.96 96.575 246.582 92.748 241.401 67.1487C237.516 47.9668 242.405 34.8871 242.405 34.8871L212.932 28.2598H212.943Z" fill="white"/>
<path opacity="0.1" d="M278.634 28.6459C278.634 28.6459 294.444 44.4675 289.415 73.2754C286.102 92.2823 270.653 97.5445 270.653 97.5445C270.653 97.5445 296.159 84.3015 306.042 58.0839C314.349 36.055 310.254 20 310.254 20L278.634 28.6459Z" fill="white"/>
<path d="M295.855 93.4961C295.855 93.4961 285.657 96.1214 270.653 97.5448C258.285 98.7116 244.528 97.7665 244.528 97.7665" stroke="#003700" stroke-width="3" stroke-miterlimit="10" stroke-linecap="round"/>
<g opacity="0.5">
<path d="M263.769 393.772C234.891 393.748 222.068 378.428 218.136 358.488C217.658 356.038 219.385 353.704 221.87 353.471L224.88 353.179C227.016 352.969 228.976 354.404 229.396 356.505C232.441 371.509 241.017 383.457 263.583 384.192C265.951 384.274 267.923 382.349 267.923 379.98V321.944C267.923 319.774 266.266 317.966 264.108 317.756C236.747 315.06 223.072 305.411 223.072 283.662C223.072 261.913 239.815 245.135 264.469 240.526C266.465 240.153 267.923 238.426 267.923 236.396V224.845C267.923 222.674 269.568 220.866 271.727 220.656C274.2 220.422 276.336 222.359 276.336 224.845V235.124C276.336 237.399 278.121 239.301 280.384 239.359C301.095 239.978 314.501 250.269 318.807 268.156C319.402 270.629 317.64 273.068 315.108 273.313L312.611 273.558C310.592 273.756 308.714 272.484 308.166 270.536C304.479 257.293 295.704 249.884 280.804 248.939C278.389 248.787 276.336 250.724 276.336 253.151V304.536C276.336 306.718 278.016 308.538 280.198 308.725C309.589 311.28 323.917 319.494 323.917 345.747C323.917 367.962 306.672 387.576 279.801 392.523C277.794 392.897 276.336 394.623 276.336 396.665V415.987C276.336 418.157 274.69 419.966 272.532 420.176C270.058 420.409 267.923 418.472 267.923 415.987V397.984C267.923 395.674 266.068 393.772 263.769 393.772ZM267.923 303.276V254.691C267.923 252.007 265.438 249.989 262.813 250.572C244.809 254.574 234.016 265.95 234.016 281.772C234.016 296.182 240.305 304.431 263.139 307.453C265.66 307.791 267.911 305.819 267.911 303.276H267.923ZM276.347 323.368V378.51C276.347 381.217 278.868 383.247 281.493 382.617C300.616 378.032 312.564 364.159 312.564 347.684C312.564 328.898 304.21 321.688 281.026 319.179C278.529 318.911 276.347 320.859 276.347 323.368Z" fill="white"/>
</g>
<path d="M123.008 258.492L104.642 392.894C104.304 395.157 103.429 401.516 102.565 409.579C106.136 388.541 128.433 296.039 153.682 220.279C180.192 140.763 230.223 107.941 244.54 102.107C177.228 120.263 131.688 182.861 123.019 258.503L123.008 258.492Z" fill="#BCD0E1"/>
</g>
<defs>
<clipPath id="clip0_2150_37035">
<rect width="540" height="540" fill="white"/>
</clipPath>
</defs>
</svg>
