<svg width="465" height="468" viewBox="0 0 465 468" fill="none" xmlns="http://www.w3.org/2000/svg">
<path d="M164.424 216.7C81.506 224.685 14.2905 277.02 14.2905 333.582C14.2905 367.423 38.3564 395.114 75.4339 410.195L60.0647 460.484C58.4521 465.777 64.3463 469.414 68.6835 465.789L121.664 421.449C135.221 422.884 149.567 422.984 164.436 421.56C247.354 413.575 314.569 361.24 314.569 304.678C314.569 248.117 247.354 208.715 164.436 216.7H164.424Z" fill="#4797C2"/>
<path opacity="0.2" d="M164.424 216.7C81.506 224.685 14.2905 277.02 14.2905 333.582C14.2905 367.423 38.3564 395.114 75.4339 410.195L60.0647 460.484C58.4521 465.777 64.3463 469.414 68.6835 465.789L121.664 421.449C135.221 422.884 149.567 422.984 164.436 421.56C247.354 413.575 314.569 361.24 314.569 304.678C314.569 248.117 247.354 208.715 164.436 216.7H164.424Z" fill="white"/>
<path d="M413.446 237.058C413.157 237.381 410.421 237.803 407.652 237.403C407.652 237.403 406.273 237.336 404.683 236.625L352.336 203.528C354.015 203.072 355.694 202.594 357.352 202.094C357.352 202.094 395.119 228.195 408.697 235.179C409.832 235.757 413.446 237.058 413.446 237.058Z" fill="#B6D3AB"/>
<path d="M314.575 5.56726C397.493 -2.41763 464.709 36.973 464.709 93.5457C464.709 127.387 440.643 159.705 403.565 181.936L418.934 229.267C420.547 234.249 414.653 239.02 410.316 236.228L357.335 202.087C343.778 206.135 329.432 208.993 314.564 210.428C231.645 218.413 164.43 179.022 164.43 122.449C164.43 65.8766 231.645 13.541 314.564 5.56726H314.575Z" fill="#499B2D"/>
<path d="M275.931 131.511C281.944 125.201 282.172 115.659 276.44 110.197C270.709 104.736 261.189 105.423 255.176 111.732C249.164 118.041 248.936 127.584 254.667 133.046C260.398 138.507 269.919 137.82 275.931 131.511Z" fill="#2C681A"/>
<path d="M330.331 126.269C336.344 119.959 336.572 110.417 330.84 104.955C325.109 99.4933 315.589 100.181 309.576 106.49C303.564 112.799 303.336 122.342 309.067 127.803C314.798 133.265 324.319 132.578 330.331 126.269Z" fill="#2C681A"/>
<path d="M384.653 121.034C390.666 114.725 390.894 105.182 385.162 99.7207C379.431 94.259 369.91 94.9461 363.898 101.256C357.885 107.565 357.657 117.107 363.389 122.569C369.12 128.031 378.64 127.344 384.653 121.034Z" fill="#2C681A"/>
<path d="M164.419 122.456C164.419 65.8831 231.634 13.5475 314.552 5.57377C340.042 3.11602 364.041 5.15117 385.06 10.7673C360.927 1.79262 331.734 -1.99965 300.273 1.02527C217.355 9.01016 150.139 61.3457 150.139 117.907C150.139 157.087 182.39 188.025 229.766 200.692C190.308 186.035 164.419 157.554 164.419 122.445V122.456Z" fill="#B6D3AB"/>
<path d="M250.491 123.052C250.491 114.712 257.253 107.294 265.593 106.493C268.018 106.26 270.309 106.627 272.344 107.449C269.675 105.325 266.161 104.202 262.302 104.58C253.961 105.381 247.199 112.799 247.199 121.139C247.199 127.056 250.602 131.827 255.551 133.829C252.448 131.36 250.491 127.534 250.491 123.052Z" fill="#B6D3AB"/>
<path d="M304.89 117.888C304.89 109.547 311.652 102.13 319.992 101.329C322.417 101.095 324.708 101.462 326.743 102.285C324.074 100.161 320.559 99.0381 316.7 99.4162C308.36 100.217 301.598 107.635 301.598 115.975C301.598 121.892 305.001 126.663 309.95 128.665C306.847 126.196 304.89 122.37 304.89 117.888Z" fill="#B6D3AB"/>
<path d="M359.136 112.513C359.136 104.172 365.897 96.7547 374.238 95.954C376.662 95.7205 378.953 96.0875 380.988 96.9104C378.319 94.7863 374.805 93.6631 370.946 94.0412C362.605 94.8419 355.844 102.26 355.844 110.6C355.844 116.517 359.247 121.288 364.196 123.29C361.093 120.821 359.136 116.995 359.136 112.513Z" fill="#B6D3AB"/>
<path d="M61.4993 403.609C32.2398 387.739 14.2683 363.084 14.2683 333.58C14.2683 277.007 81.4837 224.671 164.402 216.698C195.563 213.695 224.5 217.387 248.488 226.162C222.142 213.094 187.756 206.967 150.134 210.592C67.2155 218.566 0 270.901 0 327.474C0 361.315 24.4218 388.528 61.4993 403.609Z" fill="#BCD0E1"/>
<path d="M60.62 465.576C59.5858 464.352 59.1409 462.595 59.7415 460.616L62.0102 453.176L75.0996 410.326C70.1396 408.314 65.4132 406.067 60.9425 403.609V403.643L45.4621 454.51C44.8727 456.445 45.2841 458.158 46.2628 459.381L60.6089 465.576H60.62Z" fill="#BCD0E1"/>
<path d="M163.341 334.926C163.341 324.116 170.414 316.765 177.087 309.581C182.292 303.876 186.829 298.638 186.829 292.232C186.829 284.359 182.425 279.31 172.55 280.266C162.674 281.222 155.735 288.696 154.8 299.328L144.391 300.328C145.325 284.626 156.402 272.615 172.683 271.047C190.833 269.301 198.039 279.543 198.039 290.753C198.039 300.629 191.366 307.546 184.961 314.296C178.955 320.613 173.217 326.774 173.217 334.915V340.653L163.341 341.599V334.926ZM159.471 361.049C159.471 356.245 163.341 352.141 168.012 351.685C172.683 351.229 176.553 354.599 176.553 359.403C176.553 364.208 172.683 368.311 168.012 368.767C163.341 369.223 159.471 365.854 159.471 361.049Z" fill="#4797C2"/>
<path d="M144.564 297.736C146.499 283.312 157.219 272.513 172.589 271.034C174.902 270.812 177.037 270.789 179.005 270.934C175.302 269.366 170.587 268.676 164.726 269.243C148.445 270.812 137.368 282.822 136.434 298.525L144.297 300.327L144.552 297.747L144.564 297.736Z" fill="#BCD0E1"/>
<path d="M163.241 339.033V334.918C163.241 324.108 170.314 316.757 176.987 309.573C182.191 303.868 186.729 298.63 186.729 292.224C186.729 284.807 182.814 279.902 174.106 280.158C177.342 282.193 178.866 285.819 178.866 290.434C178.866 296.84 174.329 302.078 169.124 307.783C162.451 314.967 155.378 322.318 155.378 333.127V339.8L163.241 341.602V339.044V339.033Z" fill="#BCD0E1"/>
<path d="M161.681 366.66C160.268 365.281 159.39 363.334 159.39 361.055C159.39 356.818 162.404 353.125 166.307 352.002C166.307 352.002 167.619 351.335 170.6 351.646C170.155 351.457 161.169 349.856 161.169 349.856C160.802 349.845 160.435 349.856 160.057 349.889C155.386 350.334 151.516 354.449 151.516 359.253C151.516 362.89 153.74 365.703 156.843 366.66L165.106 368.806C165.106 368.806 162.315 367.36 161.67 366.66H161.681Z" fill="#BCD0E1"/>
</svg>
