<svg width="540" height="540" viewBox="0 0 540 540" fill="none" xmlns="http://www.w3.org/2000/svg">
<path d="M470.892 323.945C469.985 323.702 469.052 323.566 468.105 323.566C467.157 323.566 466.237 323.702 465.317 323.945H429.059V433.168H468.091C481.431 433.168 492.255 408.639 492.255 378.374C492.255 350.246 482.906 327.071 470.865 323.945H470.892Z" fill="#4797C2"/>
<path opacity="0.2" d="M470.892 323.945C469.985 323.702 469.052 323.566 468.105 323.566C467.157 323.566 466.237 323.702 465.317 323.945H429.059V433.168H468.091C481.431 433.168 492.255 408.639 492.255 378.374C492.255 350.246 482.906 327.071 470.865 323.945H470.892Z" fill="black"/>
<path d="M426.299 433.17C439.644 433.17 450.463 408.638 450.463 378.376C450.463 348.114 439.644 323.582 426.299 323.582C412.954 323.582 402.136 348.114 402.136 378.376C402.136 408.638 412.954 433.17 426.299 433.17Z" fill="#4797C2"/>
<path d="M156.265 338.625C155.359 338.381 154.425 338.246 153.478 338.246C152.531 338.246 151.611 338.381 150.691 338.625H114.432V447.848H153.465C166.805 447.848 177.628 423.319 177.628 393.054C177.628 364.926 168.279 341.75 156.238 338.625H156.265Z" fill="#4797C2"/>
<path d="M111.673 447.85C125.018 447.85 135.836 423.318 135.836 393.056C135.836 362.794 125.018 338.262 111.673 338.262C98.3277 338.262 87.5093 362.794 87.5093 393.056C87.5093 423.318 98.3277 447.85 111.673 447.85Z" fill="#BCD0E1"/>
<path d="M53.6308 250.061C52.9138 249.872 52.1967 249.777 51.4661 249.777C50.7355 249.777 50.0049 249.886 49.3014 250.061H21.0249V335.256H51.4661C61.8702 335.256 70.3126 316.126 70.3126 292.517C70.3126 270.572 63.0202 252.51 53.6308 250.061Z" fill="#4797C2"/>
<path d="M18.8465 335.256C29.2551 335.256 37.693 316.121 37.693 292.517C37.693 268.912 29.2551 249.777 18.8465 249.777C8.43786 249.777 0 268.912 0 292.517C0 316.121 8.43786 335.256 18.8465 335.256Z" fill="#BCD0E1"/>
<path d="M204.971 427.57L156.535 397.047C152.706 394.72 149.987 390.946 149.013 386.562C147.065 377.876 141.518 361.641 125.85 344.58C103.243 319.957 90.9175 357.596 90.9175 357.596L38.7075 313.638C38.7075 313.638 41.1022 291.924 38.5857 277.704C35.1222 258.208 26.2739 243.813 12.5957 250.118C10.2821 251.187 11.2157 218.554 11.9868 201.791C12.2439 196.365 17.2227 187.152 23.0674 183.594L37.7063 175.03C37.7063 175.03 49.9369 146.266 74.0734 118.517C94.9899 94.4753 210.707 89.6589 256.355 94.9218C268.775 96.3559 273.362 98.8453 305.075 106.165C336.788 113.484 375.32 127.217 395.519 145.319C402.933 151.962 436.513 204.145 436.513 204.145C436.513 204.145 463.599 243.786 460.149 249.82C457.687 254.109 245.599 404.8 213.291 427.299C210.815 429.031 207.555 429.126 204.971 427.556V427.57Z" fill="#82B3D8"/>
<path d="M444.794 251.832L156.387 275.197C151.395 275.603 146.97 272.559 146.483 268.406L135.89 176.69C135.403 172.509 139.096 168.816 144.116 168.437L389.269 155.043C393.395 154.731 397.238 156.801 398.618 160.048L452.465 241.807C454.427 246.434 450.665 251.372 444.794 251.846V251.832Z" fill="#BCD0E1"/>
<path d="M527.729 311.891L509.221 325.096L531.517 304.532L460.149 249.832L155.778 275.957C152.598 276.228 151.327 280.219 153.775 282.262C163.693 290.569 181.741 305.952 187.45 312.527C191.644 317.344 192.808 323.554 192.808 323.554L208.637 427.081C208.786 428.096 209.544 428.921 210.531 429.165L232.273 434.698C240.174 436.7 248.373 437.255 256.464 436.322L502.808 407.639C510.817 406.719 518.015 402.309 522.466 395.585L540 330.86L527.742 311.864L527.729 311.891ZM234.749 354.929L222.748 344.484L281.804 349.814L234.749 354.929Z" fill="#4797C2"/>
<path d="M183.514 340.994C183.514 340.994 184.015 323.541 210.059 325.719C236.103 327.884 305.063 354.023 305.063 354.023C305.063 354.023 299.8 362.709 293.752 367.052C287.704 371.395 244.288 373.803 236.144 370.705C227.999 367.593 205.757 362.709 183.514 341.008V340.994Z" fill="#BCD0E1"/>
<path d="M517.053 293.52L494.121 313.854C494.121 313.854 509.531 329.562 515.714 330.468C521.897 331.375 539.986 330.468 539.986 330.468C539.986 330.468 540.216 312.393 534.263 306.67C528.31 300.947 517.053 293.52 517.053 293.52Z" fill="#BCD0E1"/>
<path d="M333.879 372.099L364.767 343.552L468.47 330.875L494.122 352.86L468.808 386.143L359.193 398.292L333.879 372.099Z" fill="#4797C2"/>
<path opacity="0.1" d="M333.879 372.099L364.767 343.552L468.47 330.875L494.122 352.86L468.808 386.143L359.193 398.292L333.879 372.099Z" fill="black"/>
<path d="M121.143 254.246L57.4062 189.088C54.4162 185.354 49.248 178.481 52.8198 169.876L70.2998 135.309C73.2357 131.642 78.8639 126.19 84.1404 130.086L107.113 146.903C120.656 159.838 119.168 183.406 121.549 205.296L125.825 252.609C125.825 256.749 123.727 257.479 121.13 254.246H121.143Z" fill="#BCD0E1"/>
</svg>
