<svg width="540" height="540" viewBox="0 0 540 540" fill="none" xmlns="http://www.w3.org/2000/svg">
<g clip-path="url(#clip0_2150_36646)">
<path d="M312.419 176.318C337.094 174.151 359.477 152.112 359.477 123.718C359.477 95.3243 337.961 77.1112 312.419 79.3495C287.455 81.5336 265.361 104.133 265.361 132.527C265.361 160.92 288.032 178.466 312.419 176.336V176.318ZM287.166 130.324C287.166 110.812 297.202 99.3135 312.419 97.9958C327.906 96.642 337.672 107.256 337.672 125.631C337.672 144.007 327.924 156.317 312.419 157.689C297.202 159.025 287.166 149.855 287.166 130.343V130.324Z" fill="#EED5AF"/>
<path d="M419.729 71.679L294.35 287.799L302.96 296.662L316.155 285.886L441.535 69.7656L419.729 71.679Z" fill="#EED5AF"/>
<path d="M423.755 181.785C398.791 183.969 376.697 206.568 376.697 234.962C376.697 263.355 399.368 280.901 423.755 278.771C448.43 276.605 470.813 254.565 470.813 226.171C470.813 197.777 449.296 179.564 423.755 181.803V181.785ZM423.755 260.124C408.538 261.46 398.502 252.29 398.502 232.778C398.502 213.265 408.538 201.767 423.755 200.449C439.242 199.095 449.008 209.709 449.008 228.084C449.008 246.46 439.26 258.771 423.755 260.142V260.124Z" fill="#EED5AF"/>
<path d="M238.178 416.227L229.117 403.05L64.1159 417.491L158.322 317.418C200.398 272.616 227.185 229.132 227.185 187.056C227.185 128.229 187.005 94.4386 123.882 99.9621C58.8451 105.648 18.195 151.767 12.9242 219.187L21.9857 232.363L56.2458 225.775V196.046L55.1086 196.641C65.1087 155.72 89.2062 136.46 123.863 133.428C162.6 130.034 185.073 151.027 185.073 189.295C185.073 224.205 166.896 256.876 135.813 292.598L0 447.473V457.04L9.06141 470.217L18.4117 455.415L229.081 436.985V426.769L236.698 425.884L238.142 416.209L238.178 416.227Z" fill="#EED5AF"/>
<path d="M521.247 300.995L519.009 298.883C518.269 297.673 517.258 296.699 516.013 296.031L515.977 295.995C514.623 295.309 513.034 294.93 511.338 295.092L262.383 316.879C257.455 317.312 253.448 321.663 253.448 326.59V417.764C253.448 422.692 257.455 426.338 262.383 425.923L511.338 404.136C516.265 403.703 520.273 399.353 520.273 394.425V303.251C520.273 302.637 520.201 302.024 520.092 301.464L521.284 301.031L521.247 300.995Z" fill="#2C681A"/>
<path d="M513.935 407.024L264.98 428.811C260.053 429.244 256.045 425.598 256.045 420.652V329.479C256.045 324.551 260.053 320.201 264.98 319.767L513.935 297.98C518.863 297.547 522.87 301.193 522.87 306.139V397.313C522.87 402.241 518.863 406.591 513.935 407.024Z" fill="#499B2D"/>
<path d="M506.083 397.944L272.58 418.377C269.115 418.684 266.299 416.121 266.299 412.655V335.633C266.299 332.167 269.115 329.099 272.58 328.81L506.083 308.376C509.549 308.07 512.365 310.633 512.365 314.099V391.121C512.365 394.586 509.549 397.655 506.083 397.944Z" fill="#B6D3AB"/>
<path d="M421.333 371.727C426.163 353.236 417.256 334.897 401.437 330.765C385.619 326.633 368.88 338.272 364.049 356.763C359.219 375.253 368.127 393.592 383.946 397.724C399.764 401.856 416.503 390.217 421.333 371.727Z" fill="#499B2D"/>
<path d="M529.767 308.831L527.529 306.719C526.789 305.509 525.778 304.534 524.533 303.867L524.497 303.831C523.143 303.145 521.554 302.766 519.858 302.928L270.903 324.715C265.975 325.148 261.968 329.499 261.968 334.426V425.6C261.968 430.528 265.975 434.174 270.903 433.759L519.858 411.972C524.785 411.539 528.793 407.188 528.793 402.261V311.087C528.793 310.473 528.721 309.859 528.612 309.3L529.804 308.867L529.767 308.831Z" fill="#2C681A"/>
<path d="M522.455 414.86L273.501 436.647C268.573 437.08 264.565 433.434 264.565 428.488V337.315C264.565 332.387 268.573 328.036 273.501 327.603L522.455 305.816C527.383 305.383 531.39 309.029 531.39 313.975V405.149C531.39 410.077 527.383 414.427 522.455 414.86Z" fill="#499B2D"/>
<path d="M514.603 405.795L281.1 426.229C277.635 426.535 274.819 423.972 274.819 420.507V343.485C274.819 340.019 277.635 336.95 281.1 336.661L514.603 316.228C518.069 315.921 520.885 318.484 520.885 321.95V398.972C520.885 402.438 518.069 405.506 514.603 405.795Z" fill="#B6D3AB"/>
<path d="M429.856 379.57C434.686 361.08 425.779 342.741 409.96 338.609C394.142 334.477 377.403 346.116 372.572 364.606C367.742 383.097 376.65 401.436 392.469 405.568C408.287 409.7 425.026 398.061 429.856 379.57Z" fill="#499B2D"/>
<path d="M9.09766 460.668L144.911 305.794C175.994 270.072 194.171 237.4 194.171 202.49C194.171 164.223 171.698 143.248 132.961 146.623C93.2678 150.089 67.4373 174.836 60.7405 228.988L22.0038 232.382C27.2566 164.963 67.9066 118.843 132.961 113.157C196.084 107.634 236.265 141.425 236.265 200.252C236.265 242.328 209.478 285.812 167.402 330.613L73.1955 430.686L238.196 416.246V450.199L9.1157 470.235V460.668H9.09766Z" fill="#EEB138"/>
<path d="M273.97 141.371C273.97 112.96 296.064 90.3784 321.028 88.1943C346.57 85.956 368.086 104.729 368.086 132.563C368.086 160.397 345.703 183.014 321.028 185.162C296.353 187.31 273.97 169.187 273.97 141.353V141.371ZM346.281 134.476C346.281 116.119 336.534 105.487 321.028 106.841C305.812 108.176 295.775 119.675 295.775 139.169C295.775 158.664 305.812 167.852 321.028 166.516C336.516 165.162 346.281 153.682 346.281 134.458V134.476ZM428.339 80.5227L450.144 78.6094L324.747 294.73L302.941 296.643L428.339 80.5227ZM385.307 243.827C385.307 215.415 407.4 192.834 432.365 190.65C457.329 188.466 479.423 207.184 479.423 235.018C479.423 262.852 457.04 285.47 432.365 287.618C407.689 289.766 385.307 271.643 385.307 243.809V243.827ZM457.617 236.932C457.617 218.574 447.87 207.942 432.365 209.296C417.148 210.632 407.112 222.13 407.112 241.625C407.112 261.119 417.148 270.307 432.365 268.971C447.852 267.618 457.617 256.137 457.617 236.913V236.932Z" fill="#EEB138"/>
<path d="M538.377 317.909L536.139 315.797C535.399 314.587 534.388 313.613 533.143 312.945L533.107 312.909C531.753 312.223 530.164 311.844 528.468 312.006L279.513 333.793C274.585 334.226 270.578 338.577 270.578 343.504V434.678C270.578 439.606 274.585 443.252 279.513 442.837L528.468 421.05C533.395 420.617 537.403 416.267 537.403 411.339V320.165C537.403 319.551 537.33 318.938 537.222 318.378L538.413 317.945L538.377 317.909Z" fill="#2C681A"/>
<path d="M531.065 423.954L282.11 445.741C277.183 446.174 273.175 442.528 273.175 437.582V346.408C273.175 341.48 277.183 337.13 282.11 336.697L531.065 314.91C535.993 314.477 540 318.123 540 323.069V414.243C540 419.17 535.993 423.521 531.065 423.954Z" fill="#499B2D"/>
<path d="M523.213 414.873L289.71 435.307C286.245 435.614 283.429 433.05 283.429 429.585V352.563C283.429 349.097 286.245 346.028 289.71 345.739L523.213 325.306C526.679 324.999 529.495 327.563 529.495 331.028V408.05C529.495 411.516 526.679 414.585 523.213 414.873Z" fill="#B6D3AB"/>
<path d="M438.478 388.641C443.308 370.15 434.401 351.811 418.582 347.679C402.764 343.547 386.025 355.186 381.194 373.677C376.364 392.167 385.272 410.506 401.091 414.638C416.909 418.77 433.648 407.131 438.478 388.641Z" fill="#499B2D"/>
<path d="M450.146 78.6285L441.536 69.7656L419.73 71.679L428.341 80.5238L450.146 78.6285Z" fill="#EED5AF"/>
</g>
<defs>
<clipPath id="clip0_2150_36646">
<rect width="540" height="540" fill="white"/>
</clipPath>
</defs>
</svg>
