<svg width="540" height="540" viewBox="0 0 540 540" fill="none" xmlns="http://www.w3.org/2000/svg">
<path d="M504.316 449.668L37.6195 497.682C34.5563 497.978 32.063 495.734 32.063 492.659V143.373C32.063 140.31 34.5444 137.579 37.6195 137.282L504.316 89.2685C507.379 88.9717 509.873 91.2157 509.873 94.2908V443.577C509.873 446.64 507.391 449.371 504.316 449.668Z" fill="#499B2D"/>
<path d="M32.063 238.353L509.873 181.007L507.759 90.1328L32.063 150.565V238.353Z" fill="#2C681A"/>
<path d="M507.759 90.1324C506.809 89.4794 505.61 89.1469 504.316 89.2657L37.6193 137.279C34.5561 137.576 32.0628 140.307 32.0628 143.37V492.657C32.0628 494.247 32.7277 495.613 33.7962 496.515L21.2466 484.369C20.4749 483.491 20 482.315 20 480.986V131.711C20 128.648 22.4814 125.917 25.5565 125.62L492.253 77.6065C493.785 77.4641 495.174 77.9509 496.183 78.8532L507.759 90.1324Z" fill="#B6D3AB"/>
<path d="M33.6894 139.291C32.6802 140.395 32.0628 141.844 32.0628 143.375V492.662C32.0628 494.253 32.7277 495.618 33.7962 496.52L21.2466 484.374C20.4749 483.496 20 482.32 20 480.991V131.716C20 129.757 21.0092 127.941 22.5408 126.801" fill="#B6D3AB"/>
<path d="M42.2024 215.158L32.063 206.752V143.375C32.063 140.311 34.5444 137.581 37.6195 137.284L504.316 89.2702C505.622 89.1396 506.81 89.472 507.759 90.1369L517.163 97.5574" fill="#88B776"/>
<path d="M520 166.062L42.1904 215.156V151.779C42.1904 148.716 44.6718 145.985 47.7469 145.688L514.444 97.6748C517.507 97.378 520 99.6219 520 102.697V166.074V166.062Z" fill="#499B2D"/>
<path opacity="0.2" d="M32.2288 302.602L31.9082 299.278L509.706 250.195L510.027 253.508L32.2288 302.602Z" fill="white"/>
<path opacity="0.2" d="M302.134 191.316H298.797V472.857H302.134V191.316Z" fill="white"/>
<path opacity="0.2" d="M157.333 206.266H153.997V486.322H157.333V206.266Z" fill="white"/>
<path opacity="0.2" d="M428.057 177.746H424.721V459.286H428.057V177.746Z" fill="white"/>
<path opacity="0.2" d="M32.2288 409.114L31.9082 405.801L509.706 356.707L510.027 360.031L32.2288 409.114Z" fill="white"/>
<path d="M398.073 357.214C419.365 334.87 420.176 301.08 399.882 281.742C379.589 262.403 345.877 264.84 324.585 287.183C303.292 309.527 302.482 343.318 322.775 362.656C343.068 381.994 376.78 379.558 398.073 357.214Z" fill="#EED5AF"/>
<path d="M324.882 286.894C334.404 277.028 347.226 270.319 361.331 268.954C390.74 266.117 414.593 287.666 414.593 317.087C414.593 346.507 390.752 372.639 361.331 375.477L334.202 287.226L324.882 286.894Z" fill="#EA9E06"/>
<path d="M406.825 358.132C428.117 335.788 428.927 301.998 408.634 282.66C388.341 263.321 354.629 265.758 333.336 288.101C312.044 310.445 311.234 344.236 331.527 363.574C351.82 382.912 385.532 380.476 406.825 358.132Z" fill="#EEB138"/>
<g opacity="0.75">
<path d="M337.514 307.907C337.514 298.907 344.519 291.676 352.426 290.917C360.334 290.157 367.339 296.034 367.339 304.855C367.339 313.677 360.239 320.907 352.426 321.667C344.614 322.427 337.514 316.74 337.514 307.919V307.907ZM360.441 305.52C360.441 299.703 357.342 296.354 352.438 296.829C347.535 297.304 344.436 300.961 344.436 307.147C344.436 313.333 347.618 316.206 352.438 315.743C357.259 315.28 360.441 311.611 360.441 305.508V305.52ZM387.617 288.079L389.695 287.877C391.31 287.723 392.295 289.385 391.452 290.845L354.219 355.339C353.839 355.992 353.174 356.431 352.462 356.49L350.384 356.692C348.77 356.846 347.784 355.184 348.627 353.724L385.86 289.231C386.24 288.578 386.905 288.138 387.617 288.079ZM372.812 340.082C372.812 331.082 379.817 323.852 387.724 323.092C395.632 322.332 402.637 328.209 402.637 337.031C402.637 345.852 395.537 353.083 387.724 353.843C379.912 354.602 372.812 348.915 372.812 340.094V340.082ZM395.738 337.696C395.738 331.878 392.652 328.53 387.736 329.005C382.821 329.48 379.734 333.136 379.734 339.322C379.734 345.508 382.916 348.381 387.736 347.918C392.557 347.455 395.738 343.786 395.738 337.684V337.696Z" fill="white"/>
</g>
<path d="M33.6896 139.286L22.541 126.796C23.4077 126.154 24.4407 125.727 25.5567 125.62L492.253 77.6065C493.785 77.4641 495.174 77.9509 496.183 78.8532L507.759 90.1324C506.81 89.4794 505.61 89.1469 504.316 89.2657L37.6195 137.279C36.0879 137.422 34.6988 138.182 33.6896 139.286Z" fill="#2C681A"/>
<path d="M175.154 78.832L146.505 81.5984V126.798L175.154 124.044V78.832Z" fill="#499B2D"/>
<path d="M136.982 71.5703L146.504 81.6028V126.803L136.982 114.894V71.5703Z" fill="#B6D3AB"/>
<path d="M165.62 68.8008L175.154 78.8333L146.504 81.5997L136.982 71.5672L165.62 68.8008Z" fill="#2C681A"/>
<path d="M413.809 53.2812L385.16 56.0476V101.247L413.809 98.4929V53.2812Z" fill="#499B2D"/>
<path d="M375.639 46.0156L385.161 56.0482V101.248L375.639 89.3395V46.0156Z" fill="#B6D3AB"/>
<path d="M404.276 43.25L413.81 53.2825L385.161 56.0489L375.639 46.0164L404.276 43.25Z" fill="#2C681A"/>
</svg>
