<svg width="575" height="580" viewBox="0 0 575 580" fill="none" xmlns="http://www.w3.org/2000/svg">
<path d="M428.5 53.4657L414.003 43.9315C410.037 41.2217 405.052 39.831 399.606 40.3615L165.641 62.8422C152.724 64.0895 142.25 75.545 142.25 88.4341V508.686C142.25 516.113 145.741 522.392 151.172 526.149H151.158L166.92 536.5L167.739 529.589L399.606 507.309C412.523 506.062 422.997 494.607 422.997 481.718V61.4658C422.997 58.9998 422.609 56.6772 421.905 54.5123L428.5 53.4657Z" fill="#BCD0E1"/>
<path d="M400.067 506.45L165.683 528.89C152.743 530.135 142.25 520.704 142.25 507.823V88.3461C142.25 75.4802 152.743 64.0312 165.683 62.8004L400.067 40.3604C413.007 39.1153 423.5 48.5464 423.5 61.4266V480.918C423.5 493.784 413.007 505.233 400.067 506.464V506.45Z" fill="#B6D3AB"/>
<path d="M413.817 517.584L179.433 540.139C166.493 541.391 156 531.911 156 518.965V97.3421C156 84.4104 166.493 72.9029 179.433 71.6658L413.817 49.1109C426.757 47.8595 437.25 57.3389 437.25 70.2849V491.922C437.25 504.854 426.757 516.362 413.817 517.599V517.584Z" fill="#88B776"/>
<path d="M396.047 491.21L199.703 510.163C189.383 511.156 181 503.572 181 493.225V132.339C181 121.993 189.368 112.783 199.703 111.79L396.047 92.8374C406.367 91.8444 414.75 99.4282 414.75 109.775V470.661C414.75 481.007 406.382 490.217 396.047 491.21Z" fill="#2C681A"/>
<path d="M337.427 85.0802L272.073 91.4766C269.41 91.7401 267.25 89.7494 267.25 87.0416C267.25 84.3337 269.41 81.9332 272.073 81.6698L337.427 75.2734C340.09 75.0099 342.25 77.0006 342.25 79.7084C342.25 82.4163 340.09 84.8167 337.427 85.0802Z" fill="#2C681A"/>
<path d="M256.625 92.7285C259.041 92.461 261 90.0238 261 87.2744C261 84.5251 259.041 82.5188 256.625 82.7715C254.209 83.039 252.25 85.4762 252.25 88.2256C252.25 90.9749 254.209 92.9812 256.625 92.7285Z" fill="#2C681A"/>
<mask id="mask0_18925_3914" style="mask-type:luminance" maskUnits="userSpaceOnUse" x="181" y="92" width="235" height="418">
<path d="M396.73 490.358L200.359 509.264C190.037 510.255 181.653 502.689 181.653 492.367V132.357C181.653 122.035 190.023 112.847 200.359 111.857L396.73 92.9504C407.051 91.9599 415.435 99.5253 415.435 109.847V469.858C415.435 480.18 407.066 489.367 396.73 490.358Z" fill="white"/>
</mask>
<g mask="url(#mask0_18925_3914)">
<path opacity="0.05" d="M261.814 54.3517L434.039 449.003L469.699 442.385L296.038 47.9922L261.814 54.3517Z" fill="white"/>
<path opacity="0.05" d="M319.769 43.6L491.993 438.251L502.071 436.385L328.411 41.9922L319.769 43.6Z" fill="white"/>
</g>
</svg>
