<svg width="575" height="580" viewBox="0 0 575 580" fill="none" xmlns="http://www.w3.org/2000/svg">
<path d="M428.58 53.2343L414.083 43.682C410.11 40.9769 405.122 39.5822 399.691 40.1105L165.83 62.6386C152.918 63.8854 142.436 75.3608 142.436 88.2732V509.227C142.436 516.666 145.923 522.964 151.354 526.725L167.119 537.102L167.943 530.17L399.712 507.853C412.625 506.607 423.107 495.131 423.107 482.219V61.2649C423.107 58.7923 422.726 56.4677 422.008 54.3121L428.601 53.2554L428.58 53.2343Z" fill="#BCD0E1"/>
<path d="M399.691 507.832L165.83 530.36C152.918 531.607 142.436 522.139 142.436 509.227V88.273C142.436 75.3606 152.897 63.8852 165.83 62.6384L399.691 40.1103C412.603 38.8634 423.086 48.3311 423.086 61.2436V482.197C423.086 495.11 412.625 506.585 399.691 507.832Z" fill="#BCD0E1"/>
<path d="M414.171 517.359L180.31 539.887C167.398 541.134 156.916 531.667 156.916 518.754V97.8004C156.916 84.8879 167.376 73.4126 180.31 72.1657L414.171 49.6376C427.083 48.3908 437.565 57.8585 437.565 70.7709V491.725C437.565 504.637 427.104 516.112 414.171 517.359Z" fill="#82B3D8"/>
<path d="M395.461 494.781L199.006 513.696C188.672 514.689 180.303 507.123 180.303 496.789V136.636C180.303 126.301 188.672 117.13 199.006 116.115L395.461 97.2009C405.795 96.2076 414.164 103.773 414.164 114.108V474.261C414.164 484.595 405.795 493.767 395.461 494.781Z" fill="#BCD0E1"/>
<path d="M337.089 85.0636L271.893 91.3402C269.23 91.5938 267.075 89.6496 267.075 86.9868C267.075 84.324 269.23 81.9782 271.893 81.7246L337.089 75.448C339.752 75.1944 341.908 77.1387 341.908 79.8015C341.908 82.4643 339.752 84.81 337.089 85.0636Z" fill="#4797C2"/>
<path d="M257.354 92.7434C260.017 92.4898 262.172 90.1228 262.172 87.4812C262.172 84.8184 260.017 82.8741 257.354 83.1277C254.691 83.3813 252.536 85.7482 252.536 88.3899C252.536 91.0527 254.691 92.997 257.354 92.7434Z" fill="#4797C2"/>
<path d="M324.626 346.465L206.216 357.856C203.279 358.13 200.912 355.996 200.912 353.058C200.912 350.121 203.279 347.521 206.216 347.247L324.626 335.856C327.563 335.581 329.93 337.716 329.93 340.653C329.93 343.591 327.563 346.19 324.626 346.465Z" fill="#4797C2"/>
<path d="M387.81 377.816L206.233 395.294C203.295 395.568 200.928 393.434 200.928 390.496C200.928 387.559 203.295 384.959 206.233 384.685L387.81 367.207C390.747 366.933 393.114 369.067 393.114 372.005C393.114 374.942 390.747 377.542 387.81 377.816Z" fill="#4797C2"/>
<path d="M324.626 421.32L206.216 432.711C203.279 432.986 200.912 430.851 200.912 427.914C200.912 424.976 203.279 422.377 206.216 422.102L324.626 410.711C327.563 410.437 329.93 412.571 329.93 415.509C329.93 418.446 327.563 421.045 324.626 421.32Z" fill="#4797C2"/>
<path d="M387.81 456.48L206.233 473.958C203.295 474.232 200.928 472.098 200.928 469.16C200.928 466.223 203.295 463.623 206.233 463.349L387.81 445.871C390.747 445.597 393.114 447.731 393.114 450.669C393.114 453.606 390.747 456.206 387.81 456.48Z" fill="#4797C2"/>
<path d="M379.083 250.099L365.325 251.431V246.76L379.083 245.429L379.295 250.078H379.083V250.099ZM351.568 252.762L337.81 254.094V249.423L351.568 248.092V252.762ZM324.052 255.404L310.294 256.735V252.065L324.052 250.733V255.404ZM296.537 258.046L282.779 259.377V254.706L296.537 253.375V258.046ZM269.021 260.687L255.263 262.019V257.348L269.021 256.017V260.687ZM241.506 263.329L227.748 264.66V259.99L241.506 258.658V263.329ZM213.821 265.949C208.369 266.097 203.487 263.498 200.761 259.018L204.818 256.291C206.762 259.504 210.249 261.363 214.138 261.258L213.821 265.949ZM392.82 241.35L388.91 239.173C390.157 237.145 390.812 234.883 390.812 232.601V226.958L395.483 226.515V232.157C395.483 235.348 394.553 238.54 392.82 241.371V241.35ZM203.275 244.182L198.605 244.626V230.868L203.275 230.424V244.182ZM395.483 212.736L390.812 213.18V199.422L395.483 198.978V212.736ZM203.275 216.645L198.605 217.089V203.331L203.275 202.888V216.645ZM395.483 185.199L390.812 185.643V171.885L395.483 171.441V185.199ZM203.275 189.109L198.605 189.553V175.795L203.275 175.351V189.109ZM395.483 157.662L390.812 158.106V144.348L395.483 143.905V157.662ZM203.275 161.572L198.605 162.016V156.458C198.605 153.224 199.535 150.012 201.331 147.159L205.22 149.378C203.952 151.407 203.275 153.711 203.275 156.014V161.572ZM389.227 132.239C387.262 129.048 383.754 127.209 379.865 127.336L380.161 122.645C385.613 122.476 390.516 125.033 393.264 129.513L389.227 132.26V132.239ZM366.255 128.625L352.498 129.957V125.286L366.255 123.955V128.625ZM338.74 131.267L324.982 132.598V127.928L338.74 126.597V131.267ZM311.224 133.909L297.466 135.24V130.57L311.224 129.238V133.909ZM283.709 136.55L269.951 137.882V133.211L283.709 131.88V136.55ZM256.193 139.192L242.435 140.523V135.853L256.193 134.522V139.192ZM228.678 141.834L215.004 143.144L214.92 138.473L228.678 137.142V141.813V141.834Z" fill="#4797C2"/>
</svg>
