<svg width="540" height="540" viewBox="0 0 540 540" fill="none" xmlns="http://www.w3.org/2000/svg">
<path d="M504.316 449.418L37.6195 497.432C34.5563 497.728 32.063 495.484 32.063 492.409V143.123C32.063 140.06 34.5444 137.329 37.6195 137.032L504.316 89.0185C507.379 88.7217 509.873 90.9657 509.873 94.0408V443.327C509.873 446.39 507.391 449.121 504.316 449.418Z" fill="#499B2D"/>
<path d="M32.063 238.107L509.873 180.761L507.759 89.8867L32.063 150.319V238.107Z" fill="#2C681A"/>
<path d="M507.759 89.8863C506.809 89.2333 505.61 88.9008 504.316 89.0196L37.6193 137.033C34.5561 137.33 32.0628 140.061 32.0628 143.124V492.41C32.0628 494.001 32.7277 495.367 33.7962 496.269L21.2466 484.123C20.4749 483.245 20 482.069 20 480.739V131.465C20 128.402 22.4814 125.671 25.5565 125.374L492.253 77.3605C493.785 77.218 495.174 77.7048 496.183 78.6071L507.759 89.8863Z" fill="#B6D3AB"/>
<path d="M33.6894 139.037C32.6802 140.141 32.0628 141.59 32.0628 143.121V492.408C32.0628 493.999 32.7277 495.364 33.7962 496.266L21.2466 484.121C20.4749 483.242 20 482.067 20 480.737V131.462C20 129.503 21.0092 127.687 22.5408 126.547" fill="#B6D3AB"/>
<path d="M42.2024 214.908L32.063 206.502V143.125C32.063 140.061 34.5444 137.331 37.6195 137.034L504.316 89.0202C505.622 88.8896 506.81 89.222 507.759 89.8869L517.163 97.3074" fill="#88B776"/>
<path d="M520 165.812L42.1904 214.906V151.529C42.1904 148.466 44.6718 145.735 47.7469 145.438L514.444 97.4248C517.507 97.128 520 99.3719 520 102.447V165.824V165.812Z" fill="#499B2D"/>
<path opacity="0.2" d="M32.2288 302.352L31.9082 299.028L509.706 249.945L510.027 253.258L32.2288 302.352Z" fill="white"/>
<path opacity="0.2" d="M302.134 191.066H298.797V472.607H302.134V191.066Z" fill="white"/>
<path opacity="0.2" d="M157.333 206.016H153.997V486.072H157.333V206.016Z" fill="white"/>
<path opacity="0.2" d="M428.057 177.496H424.721V459.036H428.057V177.496Z" fill="white"/>
<path opacity="0.2" d="M32.2288 408.86L31.9082 405.547L509.706 356.453L510.027 359.778L32.2288 408.86Z" fill="white"/>
<path d="M398.073 356.96C419.366 334.616 420.176 300.826 399.883 281.488C379.59 262.149 345.878 264.586 324.585 286.93C303.292 309.273 302.482 343.064 322.775 362.402C343.069 381.741 376.781 379.304 398.073 356.96Z" fill="#BCD0E1"/>
<path d="M324.882 286.644C334.404 276.778 347.227 270.069 361.332 268.704C390.741 265.867 414.593 287.416 414.593 316.837C414.593 346.257 390.753 372.389 361.332 375.227L334.202 286.976L324.882 286.644Z" fill="#4794BF"/>
<path d="M406.825 357.882C428.118 335.538 428.928 301.748 408.635 282.41C388.342 263.071 354.63 265.508 333.337 287.851C312.044 310.195 311.234 343.986 331.527 363.324C351.82 382.662 385.532 380.226 406.825 357.882Z" fill="#5F9FBD"/>
<g opacity="0.75">
<path d="M365.701 354.327C353.685 353.876 348.806 347.358 347.25 339.071C346.989 337.658 347.963 336.316 349.399 336.174L352.023 335.924C353.258 335.806 354.398 336.637 354.623 337.86C355.621 343.119 357.924 347.453 365.392 348.213C366.817 348.355 368.075 347.239 368.075 345.803V325.951C368.075 324.728 367.161 323.707 365.95 323.553C355.573 322.235 349.435 318.554 349.435 308.617C349.435 299.962 356.179 292.458 366.199 290.143C367.292 289.893 368.063 288.92 368.063 287.792V284.028C368.063 282.782 369.013 281.737 370.26 281.618L370.628 281.582C372.053 281.44 373.287 282.568 373.287 283.993V287.032C373.287 288.314 374.285 289.347 375.567 289.442C383.89 290.06 389.387 294.393 391.192 302.063C391.536 303.5 390.539 304.924 389.066 305.067L386.846 305.281C385.683 305.387 384.626 304.639 384.282 303.523C382.952 299.119 380.316 296.59 376.161 295.711C374.677 295.402 373.287 296.578 373.287 298.098V315.254C373.287 316.489 374.225 317.522 375.448 317.664C387.012 318.934 392.984 322.662 392.984 333.407C392.984 342.917 385.647 351.098 375.152 353.496C374.059 353.745 373.287 354.719 373.287 355.847V362.876C373.287 364.122 372.338 365.167 371.091 365.286L370.723 365.321C369.298 365.464 368.063 364.336 368.063 362.911V356.773C368.063 355.467 367.019 354.41 365.701 354.351V354.327ZM368.063 314.256V298.917C368.063 297.255 366.425 296.055 364.858 296.613C359.432 298.561 356.404 302.597 356.404 307.228C356.404 312.202 357.888 315.266 365.19 316.643C366.674 316.928 368.063 315.776 368.063 314.256ZM373.276 326.96V344.592C373.276 346.325 375.045 347.488 376.647 346.835C381.967 344.663 385.647 340.08 385.647 334.642C385.647 328.801 383.462 325.927 376.137 324.586C374.653 324.313 373.276 325.464 373.276 326.972V326.96Z" fill="white"/>
</g>
<path d="M33.6896 139.04L22.541 126.55C23.4077 125.908 24.4407 125.481 25.5567 125.374L492.253 77.3605C493.785 77.218 495.174 77.7048 496.183 78.6071L507.759 89.8863C506.81 89.2333 505.61 88.9008 504.316 89.0196L37.6195 137.033C36.0879 137.176 34.6988 137.936 33.6896 139.04Z" fill="#2C681A"/>
<path d="M175.154 78.582L146.505 81.3484V126.548L175.154 123.794V78.582Z" fill="#499B2D"/>
<path d="M136.982 71.3164L146.504 81.3489V126.549L136.982 114.64V71.3164Z" fill="#B6D3AB"/>
<path d="M165.62 68.5508L175.154 78.5833L146.504 81.3497L136.982 71.3172L165.62 68.5508Z" fill="#2C681A"/>
<path d="M413.81 53.0312L385.161 55.7976V100.997L413.81 98.2429V53.0312Z" fill="#499B2D"/>
<path d="M375.639 45.7656L385.161 55.7982V100.998L375.639 89.0895V45.7656Z" fill="#B6D3AB"/>
<path d="M404.276 43L413.81 53.0325L385.161 55.7989L375.639 45.7664L404.276 43Z" fill="#2C681A"/>
</svg>
