<svg width="540" height="540" viewBox="0 0 540 540" fill="none" xmlns="http://www.w3.org/2000/svg">
<path d="M504.316 449.418L37.6195 497.432C34.5563 497.728 32.063 495.484 32.063 492.409V143.123C32.063 140.06 34.5444 137.329 37.6195 137.032L504.316 89.0185C507.379 88.7217 509.873 90.9657 509.873 94.0408V443.327C509.873 446.39 507.391 449.121 504.316 449.418Z" fill="#499B2D"/>
<path d="M32.063 238.107L509.873 180.761L507.759 89.8867L32.063 150.319V238.107Z" fill="#2C681A"/>
<path d="M507.759 89.8863C506.809 89.2333 505.61 88.9008 504.316 89.0196L37.6193 137.033C34.5561 137.33 32.0628 140.061 32.0628 143.124V492.41C32.0628 494.001 32.7277 495.367 33.7962 496.269L21.2466 484.123C20.4749 483.245 20 482.069 20 480.739V131.465C20 128.402 22.4814 125.671 25.5565 125.374L492.253 77.3605C493.785 77.218 495.174 77.7048 496.183 78.6071L507.759 89.8863Z" fill="#B6D3AB"/>
<path d="M33.6894 139.037C32.6802 140.141 32.0628 141.59 32.0628 143.121V492.408C32.0628 493.999 32.7277 495.364 33.7962 496.266L21.2466 484.121C20.4749 483.242 20 482.067 20 480.737V131.462C20 129.503 21.0092 127.687 22.5408 126.547" fill="#B6D3AB"/>
<path d="M42.2024 214.908L32.063 206.502V143.125C32.063 140.061 34.5444 137.331 37.6195 137.034L504.316 89.0202C505.622 88.8896 506.81 89.222 507.759 89.8869L517.163 97.3074" fill="#88B776"/>
<path d="M520 165.812L42.1904 214.906V151.529C42.1904 148.466 44.6718 145.735 47.7469 145.438L514.444 97.4248C517.507 97.128 520 99.3719 520 102.447V165.824V165.812Z" fill="#499B2D"/>
<path opacity="0.2" d="M32.2288 302.352L31.9082 299.028L509.706 249.945L510.027 253.258L32.2288 302.352Z" fill="white"/>
<path opacity="0.2" d="M302.134 191.066H298.797V472.607H302.134V191.066Z" fill="white"/>
<path opacity="0.2" d="M157.333 206.016H153.997V486.072H157.333V206.016Z" fill="white"/>
<path opacity="0.2" d="M428.057 177.496H424.721V459.036H428.057V177.496Z" fill="white"/>
<path opacity="0.2" d="M32.2288 408.86L31.9082 405.547L509.706 356.453L510.027 359.778L32.2288 408.86Z" fill="white"/>
<path d="M398.073 356.96C419.366 334.616 420.176 300.826 399.883 281.488C379.59 262.149 345.878 264.586 324.585 286.93C303.292 309.273 302.482 343.064 322.775 362.402C343.069 381.741 376.781 379.304 398.073 356.96Z" fill="#BCD0E1"/>
<path d="M324.882 286.644C334.404 276.778 347.227 270.069 361.332 268.704C390.741 265.867 414.593 287.416 414.593 316.837C414.593 346.257 390.753 372.389 361.332 375.227L334.202 286.976L324.882 286.644Z" fill="#4794BF"/>
<path d="M406.825 357.882C428.118 335.538 428.928 301.748 408.635 282.41C388.342 263.071 354.63 265.508 333.337 287.851C312.044 310.195 311.234 343.986 331.527 363.324C351.82 382.662 385.532 380.226 406.825 357.882Z" fill="#5F9FBD"/>
<path d="M33.6896 139.04L22.541 126.55C23.4077 125.908 24.4407 125.481 25.5567 125.374L492.253 77.3605C493.785 77.218 495.174 77.7048 496.183 78.6071L507.759 89.8863C506.81 89.2333 505.61 88.9008 504.316 89.0196L37.6195 137.033C36.0879 137.176 34.6988 137.936 33.6896 139.04Z" fill="#2C681A"/>
<path d="M175.154 78.582L146.505 81.3484V126.548L175.154 123.794V78.582Z" fill="#499B2D"/>
<path d="M136.982 71.3164L146.504 81.3489V126.549L136.982 114.64V71.3164Z" fill="#B6D3AB"/>
<path d="M165.62 68.5508L175.154 78.5833L146.504 81.3497L136.982 71.3172L165.62 68.5508Z" fill="#2C681A"/>
<path d="M413.81 53.0312L385.161 55.7976V100.997L413.81 98.2429V53.0312Z" fill="#499B2D"/>
<path d="M375.639 45.7656L385.161 55.7982V100.998L375.639 89.0895V45.7656Z" fill="#B6D3AB"/>
<path d="M404.276 43L413.81 53.0325L385.161 55.7989L375.639 45.7664L404.276 43Z" fill="#2C681A"/>
</svg>
