<svg width="540" height="540" viewBox="0 0 540 540" fill="none" xmlns="http://www.w3.org/2000/svg">
<g clip-path="url(#clip0_21835_1455)">
<path d="M327.53 309.718C328.01 306.828 328.26 303.878 328.26 300.878C328.26 284.668 323.68 273.808 314.69 266.488C319.55 267.728 323.78 268.848 326.14 269.418C315.93 262.658 298.92 257.798 289.68 255.818C283.71 254.538 277.05 253.618 269.73 252.968V187.348C289.15 188.278 299.92 197.828 303.85 217.698H303.95L323.51 225.798C322.47 220.458 320.93 216.488 320.82 216.208L324.32 215.898C320.91 185.748 301.22 169.618 269.72 169.488V145.598L254.23 146.948V170.568C221.42 175.538 198.84 198.778 198.84 226.078C198.84 257.578 219.58 268.098 254.23 271.628V344.608C222.2 344.518 215.91 326.958 213.28 306.718L191.23 308.648C194.38 338.558 209.34 363.238 254.23 362.458V395.798L269.72 394.448V361.108C282.77 359.158 294.39 354.268 303.78 347.288C306.93 346.118 309.82 344.808 311.9 343.478C320.59 335.998 324.31 329.458 327.55 318.958C327.73 317.508 327.56 313.238 327.56 311.738C327.56 311.048 327.54 310.368 327.52 309.708L327.53 309.718ZM254.24 251.698C225.1 248.208 219.59 238.718 219.59 222.178C219.59 205.638 232.19 192.198 254.24 188.438V251.698ZM269.73 272.918C283.84 274.658 292.96 277.608 298.6 282.478C302.21 285.598 304.38 289.498 305.51 294.388C305.51 294.408 305.51 294.418 305.52 294.438C305.63 294.908 305.72 295.388 305.81 295.868C305.81 295.888 305.82 295.918 305.82 295.938C305.9 296.408 305.98 296.888 306.04 297.368C306.04 297.418 306.05 297.458 306.06 297.498C306.12 297.968 306.18 298.448 306.22 298.928C306.22 298.998 306.24 299.058 306.24 299.118C306.29 299.598 306.32 300.088 306.35 300.578C306.35 300.658 306.36 300.728 306.37 300.798C306.4 301.308 306.42 301.838 306.44 302.368C306.44 302.428 306.44 302.488 306.44 302.548C306.46 303.138 306.47 303.738 306.47 304.358C306.47 305.078 306.44 305.788 306.4 306.488C306.39 306.698 306.37 306.908 306.35 307.118C306.31 307.628 306.26 308.138 306.2 308.648C306.17 308.868 306.15 309.078 306.12 309.288C306.04 309.868 305.94 310.438 305.83 311.008C305.81 311.118 305.79 311.228 305.77 311.338C305.63 312.018 305.47 312.698 305.29 313.368C305.25 313.518 305.2 313.668 305.16 313.818C305.01 314.338 304.86 314.858 304.69 315.368C304.63 315.548 304.57 315.738 304.5 315.918C304.32 316.448 304.12 316.968 303.91 317.488C303.86 317.608 303.82 317.738 303.76 317.858C303.49 318.508 303.2 319.158 302.89 319.788C302.87 319.828 302.85 319.868 302.83 319.908C302.54 320.488 302.24 321.068 301.92 321.628C301.85 321.758 301.77 321.888 301.69 322.028C301.4 322.538 301.09 323.038 300.78 323.528C300.71 323.628 300.65 323.728 300.59 323.838C299.8 325.038 298.95 326.198 298.02 327.318C297.96 327.388 297.9 327.458 297.84 327.528C297.43 328.018 297 328.508 296.56 328.988C296.49 329.058 296.42 329.138 296.36 329.208C295.34 330.298 294.26 331.338 293.11 332.318C293.11 332.318 293.09 332.328 293.09 332.338C292.54 332.818 291.97 333.278 291.39 333.728C291.32 333.778 291.25 333.838 291.19 333.888C290.6 334.338 290 334.788 289.38 335.208C283.77 339.098 277.07 341.898 269.72 343.278V272.928L269.73 272.918Z" fill="#B6D3AB"/>
<path d="M273.901 155.069L269.541 153.269V145.609L254.051 146.959V170.579C221.241 175.549 198.661 198.789 198.661 226.089C198.661 251.079 211.721 262.859 234.421 268.429C224.021 261.429 218.321 250.689 218.321 234.199C218.321 230.689 218.701 227.249 219.421 223.899L239.501 192.929C248.641 185.789 260.321 180.719 273.701 178.689V178.609L273.891 178.689V155.069H273.901Z" fill="#B6D3AB"/>
<path d="M213.29 306.738L232.95 314.838L210.9 316.768L191.24 308.668L213.29 306.738Z" fill="#88B776"/>
<path d="M273.9 352.729L254.24 344.629V276.539L273.9 279.759V352.729Z" fill="#88B776"/>
<path d="M254.24 251.699L273.9 259.799V196.539C273.9 196.539 266.4 196.829 264.07 197.659C261.32 198.629 254.24 203.909 254.24 203.909V251.699Z" fill="#88B776"/>
<path d="M273.9 403.92L254.24 395.82V369.02L273.9 370.58V403.92Z" fill="#88B776"/>
<path d="M254.24 146.969L273.9 155.069L289.39 153.709L269.73 145.609L254.24 146.969Z" fill="#88B776"/>
<path d="M273.9 370.579C229.01 371.359 214.05 346.679 210.9 316.769L232.95 314.839C235.57 335.089 241.88 352.649 273.9 352.729V279.749C239.25 276.219 218.51 265.699 218.51 234.199C218.51 206.899 241.09 183.659 273.9 178.689V155.069L289.39 153.719V177.609C320.89 177.739 340.58 193.869 343.99 224.019L323.52 225.809C319.58 205.939 308.82 196.379 289.4 195.459V261.079C327.99 264.529 347.94 275.119 347.94 308.979C347.94 338.899 323.53 364.139 289.4 369.229V402.569L273.91 403.919V370.579H273.9ZM273.9 259.809V196.549C251.85 200.319 239.25 214.019 239.25 230.289C239.25 246.559 244.76 256.319 273.9 259.809ZM289.39 281.029V351.379C310.39 347.439 326.14 331.889 326.14 312.459C326.14 293.029 318 284.559 289.39 281.029Z" fill="#499B2D"/>
<path d="M418.93 183.379L432.66 236.639L445.12 245.339L443.64 214.359L418.93 183.379Z" fill="#EED5AF"/>
<path d="M352.83 103.619C330.45 95.4989 305.59 92.1989 279.41 94.7489C194.63 103.009 123.73 170.139 106.03 252.389L84.8101 242.859C102.5 160.599 173.41 93.4889 258.19 85.2189C292.98 81.8289 325.43 88.7889 352.83 103.629V103.619Z" fill="#B6D3AB"/>
<path d="M413.68 215.397C404.5 175.797 379.71 143.647 345.97 124.957C388.82 140.077 421.48 174.817 433.64 219.857C433.96 221.817 435.98 222.637 436.22 224.637L434.97 225.267C435.78 228.747 436.45 232.287 437.01 235.887L415.13 216.117C414.71 215.737 414.22 215.497 413.68 215.407V215.397Z" fill="#3E7F26"/>
<path d="M445.23 272.417L424.52 263.137C424.23 263.037 423.96 262.877 423.72 262.667L379.34 222.557C378.55 221.847 378.23 220.807 378.35 219.767C378.44 219.017 378.77 218.277 379.34 217.657L389.02 207.047C389.78 206.207 390.8 205.777 391.8 205.777C392.13 205.777 392.45 205.827 392.77 205.927H392.78C393.01 206.007 393.23 206.117 393.44 206.237L413.19 215.317C412.14 215.267 411.04 215.697 410.24 216.577L400.56 227.187C400.11 227.677 399.8 228.257 399.66 228.847C399.36 230.027 399.66 231.277 400.56 232.087L444.94 272.197C445.03 272.277 445.13 272.357 445.22 272.417H445.23Z" fill="#B6D3AB"/>
<path d="M482.75 208.908C481.46 208.448 479.89 208.828 478.83 209.978L455.7 235.338C454.57 226.098 452.72 217.138 450.23 208.538L457.61 200.438C458.53 199.418 459.85 199.018 461.02 199.238H461.03L461.09 199.258C461.5 199.338 461.89 199.518 462.25 199.768L482.75 208.888V208.908Z" fill="#B6D3AB"/>
<path d="M453.89 291.72C438.21 376.42 366.06 446.32 279.41 454.79C244.61 458.19 212.15 451.21 184.74 436.35C140.09 412.16 108.87 367.04 102.84 311.79L86.8104 329.38L82.3804 334.23C81.0304 335.7 78.8304 335.91 77.4804 334.7L77.4604 334.68L67.8104 325.94C66.4604 324.72 66.4604 322.53 67.8104 321.04L99.6604 286.13L112.19 272.41C113.02 271.5 114.21 271.16 115.23 271.43C115.25 271.44 115.27 271.44 115.29 271.45C115.65 271.56 115.98 271.74 116.28 272.01L160.66 312.11C162.01 313.33 162.01 315.53 160.66 317.01L150.98 327.63C149.93 328.77 148.36 329.16 147.07 328.68L146.51 328.42C146.35 328.34 146.22 328.22 146.08 328.11L125.72 309.7C126.15 313.01 126.68 316.27 127.32 319.49C135.55 361.28 160.97 395.28 196.07 414.7C220.68 428.34 250.06 434.81 281.61 431.77C357.99 424.41 421.65 363.79 435.83 290.2L440.15 290.57L453.88 291.74L453.89 291.72Z" fill="#499B2D"/>
<path d="M115.22 271.43C114.19 271.16 113 271.49 112.18 272.41L99.6502 286.13L67.8002 321.04C67.3302 321.56 67.0102 322.17 66.8802 322.8C66.6202 323.94 66.9202 325.15 67.8002 325.94L77.4502 334.68L57.0802 325.69V325.67C56.7902 325.54 56.5002 325.39 56.2502 325.17L46.5802 316.41C45.8602 315.76 45.5202 314.82 45.5702 313.86C45.6102 313.04 45.9502 312.2 46.5802 311.51L78.4302 276.6L90.9602 262.87C91.5902 262.18 92.4402 261.82 93.2702 261.82C93.6202 261.82 93.9502 261.88 94.2702 262.01H94.2902C94.4102 262.06 94.5202 262.1 94.6302 262.17L115.23 271.44L115.22 271.43Z" fill="#B6D3AB"/>
<path d="M146.51 328.41L127.32 319.47C126.68 316.26 126.15 312.99 125.72 309.68L146.08 328.09C146.22 328.21 146.35 328.32 146.51 328.4V328.41Z" fill="#3E7F26"/>
<path d="M184.74 436.349C137.13 419.069 100.77 379.989 86.8101 329.379L102.84 311.789C108.87 367.039 140.09 412.159 184.74 436.349Z" fill="#B6D3AB"/>
<path d="M453.89 291.718L440.16 290.548L435.84 290.178C421.65 363.768 357.99 424.388 281.62 431.748C250.07 434.778 220.69 428.318 196.08 414.678C215.7 421.608 237.48 424.418 260.4 422.218C336.78 414.858 400.44 354.238 414.62 280.648L432.67 282.178L453.89 291.708V291.718Z" fill="#3E7F26"/>
<path d="M493.42 223.15L449.04 271.81C448.22 272.71 447.02 273.05 445.99 272.78H445.96L445.23 272.43C445.14 272.37 445.04 272.29 444.95 272.21L400.57 232.1C399.22 230.87 399.22 228.68 400.57 227.2L410.25 216.59C411.05 215.71 412.15 215.28 413.2 215.34C413.37 215.34 413.53 215.36 413.69 215.4C414.23 215.49 414.72 215.74 415.14 216.11L437.02 235.88C436.46 232.29 435.79 228.74 434.98 225.26C434.57 223.44 434.12 221.64 433.65 219.85C421.48 174.82 388.83 140.07 345.98 124.95C326.35 118.01 304.56 115.2 281.63 117.4C206.89 124.59 144.33 182.79 128.38 254.25L106.05 252.37C123.74 170.12 194.65 103 279.43 94.7302C305.61 92.1802 330.47 95.4902 352.85 103.6C399.83 120.65 435.87 158.9 450.26 208.53C452.75 217.13 454.6 226.09 455.73 235.33L478.86 209.97C479.92 208.82 481.48 208.44 482.78 208.9C482.83 208.92 482.9 208.94 482.95 208.97C483.24 209.1 483.52 209.27 483.77 209.49L493.45 218.23C494.79 219.46 494.79 221.65 493.45 223.13L493.42 223.15Z" fill="#499B2D"/>
<path d="M445.96 272.762C445.7 272.692 445.46 272.582 445.23 272.422L445.96 272.762Z" fill="#499B2D"/>
<path d="M57.0802 325.689V325.669C56.7902 325.539 56.5002 325.389 56.2502 325.169L46.5802 316.409C45.8602 315.759 45.5202 314.819 45.5702 313.859C51.7902 316.479 62.2402 320.879 66.8702 322.809C66.6102 323.949 66.9102 325.159 67.7902 325.949L77.4402 334.689L57.0702 325.699L57.0802 325.689Z" fill="#3E7F26"/>
<path d="M445.23 272.42L424.52 263.14C424.23 263.04 423.96 262.88 423.72 262.67L379.34 222.56C378.55 221.85 378.23 220.81 378.35 219.77L399.65 228.85C399.35 230.03 399.65 231.28 400.55 232.09L444.93 272.2C445.02 272.28 445.12 272.36 445.21 272.42H445.23Z" fill="#3E7F26"/>
<path d="M461.285 381.724C461.285 414.39 434.808 443.417 402.142 446.562C369.477 449.708 343 425.781 343 393.116C343 360.451 369.477 331.424 402.142 328.278C434.808 325.132 461.285 349.059 461.285 381.724Z" fill="#E1AFAC"/>
<path d="M361.668 348.193C372.25 337.239 386.485 329.779 402.143 328.278C434.808 325.132 461.285 349.059 461.285 381.724C461.285 414.39 434.808 443.417 402.143 446.562L372.011 348.559L361.668 348.193Z" fill="#DB9B97"/>
<path d="M471 382.724C471 415.39 444.523 444.417 411.858 447.562C379.192 450.708 352.715 426.781 352.715 394.116C352.715 361.451 379.192 332.424 411.858 329.278C444.523 326.132 471 350.059 471 382.724Z" fill="#D2817C"/>
<path d="M443.101 362.587L434.688 354.977L411.858 380.008L389.035 359.377L380.614 368.6L403.445 389.231L380.614 414.254L389.035 421.864L411.858 396.841L434.688 417.471L443.101 408.24L420.278 387.61L443.101 362.587Z" fill="white"/>
</g>
<defs>
<clipPath id="clip0_21835_1455">
<rect width="540" height="540" fill="white"/>
</clipPath>
</defs>
</svg>
