<svg width="575" height="580" viewBox="0 0 575 580" fill="none" xmlns="http://www.w3.org/2000/svg">
<path d="M429.25 53.4657L414.753 43.9315C410.787 41.2217 405.802 39.831 400.356 40.3615L166.391 62.8422C153.474 64.0895 143 75.545 143 88.4341V508.686C143 516.113 146.491 522.392 151.922 526.149H151.908L167.67 536.5L168.489 529.589L400.356 507.309C413.273 506.062 423.747 494.607 423.747 481.718V61.4658C423.747 58.9998 423.359 56.6772 422.655 54.5123L429.25 53.4657Z" fill="#BCD0E1"/>
<path d="M400.817 506.45L166.433 528.89C153.493 530.135 143 520.704 143 507.823V88.3461C143 75.4802 153.493 64.0312 166.433 62.8004L400.817 40.3604C413.757 39.1153 424.25 48.5464 424.25 61.4266V480.918C424.25 493.784 413.757 505.233 400.817 506.464V506.45Z" fill="#B6D3AB"/>
<path d="M414.567 517.584L180.183 540.139C167.243 541.391 156.75 531.911 156.75 518.965V97.3421C156.75 84.4104 167.243 72.9029 180.183 71.6658L414.567 49.1109C427.507 47.8595 438 57.3389 438 70.2849V491.922C438 504.854 427.507 516.362 414.567 517.599V517.584Z" fill="#88B776"/>
<path d="M396.797 491.21L200.453 510.163C190.133 511.156 181.75 503.572 181.75 493.225V132.339C181.75 121.993 190.118 112.783 200.453 111.79L396.797 92.8374C407.117 91.8444 415.5 99.4282 415.5 109.775V470.661C415.5 481.007 407.132 490.217 396.797 491.21Z" fill="#2C681A"/>
<path d="M338.177 85.0802L272.823 91.4766C270.16 91.7401 268 89.7494 268 87.0416C268 84.3337 270.16 81.9332 272.823 81.6698L338.177 75.2734C340.84 75.0099 343 77.0006 343 79.7084C343 82.4163 340.84 84.8167 338.177 85.0802Z" fill="#2C681A"/>
<path d="M257.375 92.7285C259.791 92.461 261.75 90.0238 261.75 87.2744C261.75 84.5251 259.791 82.5188 257.375 82.7715C254.959 83.039 253 85.4762 253 88.2256C253 90.9749 254.959 92.9812 257.375 92.7285Z" fill="#2C681A"/>
<path d="M276.041 346.25L225.75 306.035L237.871 291.201L276.324 321.942L360.933 241.25L372.75 254.028L276.041 346.25Z" fill="#EEB138"/>
<mask id="mask0_18992_467" style="mask-type:luminance" maskUnits="userSpaceOnUse" x="182" y="92" width="235" height="418">
<path d="M397.48 490.358L201.109 509.264C190.787 510.255 182.403 502.689 182.403 492.367V132.357C182.403 122.035 190.773 112.847 201.109 111.857L397.48 92.9504C407.801 91.9599 416.185 99.5253 416.185 109.847V469.858C416.185 480.18 407.816 489.367 397.48 490.358Z" fill="white"/>
</mask>
<g mask="url(#mask0_18992_467)">
<path opacity="0.05" d="M262.564 54.3517L434.789 449.003L470.449 442.385L296.788 47.9922L262.564 54.3517Z" fill="white"/>
<path opacity="0.05" d="M320.519 43.6L492.743 438.251L502.821 436.385L329.161 41.9922L320.519 43.6Z" fill="white"/>
</g>
</svg>
