<svg width="540" height="540" viewBox="0 0 540 540" fill="none" xmlns="http://www.w3.org/2000/svg">
<g clip-path="url(#clip0_20845_1821)">
<path d="M315.5 166.077C339.89 163.947 362 142.212 362 114.192C362 86.1723 340.733 68.2243 315.5 70.4333C290.833 72.5897 269 94.8636 269 122.884C269 150.904 291.4 168.181 315.5 166.077ZM290.557 120.714C290.557 101.477 300.479 90.1432 315.513 88.8284C330.824 87.4872 340.47 97.9668 340.47 116.073C340.47 134.178 330.824 146.341 315.513 147.682C300.479 148.997 290.557 139.964 290.557 120.714Z" fill="#EED5AF"/>
<path d="M421.228 62.1408L296 276.471L304.589 285.25L317.772 274.58L443 60.25L421.228 62.1408Z" fill="#EED5AF"/>
<path d="M425.5 171.435C400.833 173.614 379 196.12 379 224.432C379 252.744 401.4 270.201 425.5 268.076C449.89 265.923 472 243.962 472 215.65C472 187.338 450.733 169.203 425.5 171.435ZM425.5 249.489C410.466 250.817 400.544 241.677 400.544 222.24C400.544 202.803 410.466 191.35 425.5 190.022C440.811 188.667 450.456 199.255 450.456 217.55C450.456 235.844 440.811 248.134 425.5 249.489Z" fill="#EED5AF"/>
<path d="M520.974 289.12L518.77 287.031C518.045 285.849 517.029 284.876 515.802 284.219L515.763 284.18C514.417 283.496 512.86 283.129 511.171 283.286L264.839 304.757C259.958 305.177 256 309.474 256 314.336V404.186C256 409.048 259.958 412.648 264.839 412.215L511.171 390.744C516.053 390.324 520.011 386.027 520.011 381.165V291.315C520.011 290.697 519.945 290.106 519.826 289.541L521 289.12H520.974Z" fill="#2C681A"/>
<path d="M514.161 393.745L267.839 415.217C262.958 415.637 259 412.05 259 407.188V317.334C259 312.472 262.958 308.188 267.839 307.755L514.161 286.283C519.042 285.863 523 289.45 523 294.312V384.166C523 389.028 519.042 393.312 514.161 393.745Z" fill="#499B2D"/>
<path d="M507.773 384.996L276.227 405.225C272.79 405.529 270 402.981 270 399.547V323.265C270 319.832 272.79 316.808 276.227 316.504L507.773 296.275C511.21 295.971 514 298.519 514 301.953V378.235C514 381.668 511.21 384.692 507.773 384.996Z" fill="#B6D3AB"/>
<path d="M425 349.73C425 367.902 411.563 383.753 395 385.151C378.424 386.549 365 372.942 365 354.77C365 336.598 378.437 320.747 395 319.349C411.576 317.951 425 331.558 425 349.73Z" fill="#499B2D"/>
<path d="M529.974 297.12L527.77 295.031C527.045 293.849 526.029 292.876 524.802 292.219L524.763 292.18C523.417 291.496 521.86 291.129 520.172 291.286L273.839 312.757C268.958 313.177 265 317.474 265 322.336V412.186C265 417.048 268.958 420.648 273.839 420.215L520.172 398.744C525.053 398.324 529.011 394.027 529.011 389.165V299.315C529.011 298.697 528.945 298.106 528.826 297.541L530 297.12H529.974Z" fill="#2C681A"/>
<path d="M523.161 402.578L276.839 424.216C271.958 424.64 268 421.025 268 416.125V325.575C268 320.675 271.958 316.359 276.839 315.922L523.161 294.284C528.042 293.86 532 297.475 532 302.375V392.925C532 397.825 528.042 402.141 523.161 402.578Z" fill="#499B2D"/>
<path d="M514.798 392.996L284.202 413.225C280.778 413.529 278 410.981 278 407.547V331.265C278 327.832 280.778 324.808 284.202 324.504L514.798 304.275C518.222 303.971 521 306.519 521 309.953V386.235C521 389.668 518.222 392.692 514.798 392.996Z" fill="#B6D3AB"/>
<path d="M432 357.115C432 376.114 419.011 392.685 403 394.147C386.976 395.608 374 381.383 374 362.385C374 343.386 386.989 326.815 403 325.353C419.024 323.892 432 338.117 432 357.115Z" fill="#499B2D"/>
<path d="M277 132.139C277 104.133 298.832 81.8467 323.498 79.6904C348.729 77.4815 369.995 96.0074 369.995 123.448C369.995 150.888 347.873 173.201 323.498 175.331C299.399 177.434 277 159.579 277 132.139ZM348.452 125.341C348.452 107.236 338.808 96.7569 323.498 98.098C308.464 99.4128 298.542 110.747 298.542 129.982C298.542 149.218 308.464 158.264 323.498 156.949C338.808 155.608 348.452 144.301 348.452 125.341ZM429.537 72.1302L451.079 70.25L327.174 283.37L305.631 285.25L429.537 72.1302ZM387.005 233.17C387.005 205.164 408.837 182.878 433.502 180.722C458.734 178.513 480 197.038 480 224.479C480 251.919 457.878 274.232 433.502 276.362C409.404 278.465 387.005 260.61 387.005 233.17ZM458.458 226.359C458.458 208.254 448.813 197.775 433.502 199.116C418.469 200.431 408.547 211.765 408.547 231C408.547 250.236 418.469 259.282 433.502 257.967C448.813 256.626 458.458 245.319 458.458 226.359Z" fill="#EEB138"/>
<path d="M537.974 306.12L535.779 304.031C535.056 302.848 534.044 301.876 532.822 301.219L532.782 301.18C531.442 300.496 529.891 300.129 528.209 300.286L282.806 321.757C277.943 322.177 274 326.474 274 331.336V421.186C274 426.048 277.943 429.648 282.806 429.215L528.209 407.744C533.071 407.324 537.014 403.027 537.014 398.165V308.315C537.014 307.697 536.949 307.106 536.83 306.541L538 306.12H537.974Z" fill="#2C681A"/>
<path d="M531.161 410.745L284.839 432.217C279.958 432.637 276 429.05 276 424.188V334.334C276 329.472 279.958 325.188 284.839 324.755L531.161 303.283C536.042 302.863 540 306.45 540 311.312V401.166C540 406.028 536.042 410.312 531.161 410.745Z" fill="#499B2D"/>
<path d="M523.798 401.182L293.202 421.226C289.778 421.527 287 419.001 287 415.6V340.017C287 336.615 289.778 333.619 293.202 333.318L523.798 313.274C527.222 312.973 530 315.499 530 318.9V394.483C530 397.885 527.222 400.881 523.798 401.182Z" fill="#B6D3AB"/>
<path d="M441 366.192C441 384.639 427.787 400.731 411.5 402.15C395.2 403.569 382 389.756 382 371.308C382 352.861 395.213 336.769 411.5 335.35C427.8 333.931 441 347.744 441 366.192Z" fill="#499B2D"/>
<path d="M451 69.3008L442.787 60.25L422 62.1992L430.2 71.25L451 69.3008Z" fill="#EED5AF"/>
<path d="M26 200.25L16 201.356L25.0656 212.25L26 200.25Z" fill="#EED5AF"/>
<path d="M172.381 252.718C202.824 237.46 225.287 213.086 225.287 175.256C225.287 129.02 188.302 90.2297 124.619 95.7806C60.9365 101.331 17.3955 148.567 15.0476 201.537L50.6349 198.433C54.8558 160.247 82.951 132.572 124.619 128.941C165.351 125.39 185.492 147.909 185.492 179.662C185.492 216.085 166.3 238.302 122.746 242.103L99.3333 244.142V278.237L110.097 288.339V277.303L124.619 276.04C171.919 271.91 195.319 291.825 195.319 334.772C195.319 373.996 171.444 401.29 119 405.868C71.1194 410.051 47.0076 387.295 40.0827 353.753L49.2236 352.95L38.4603 342.848L1 346.11C3.34786 404.276 46.8889 444.842 118.063 438.621C187.365 432.57 237 391.82 237 331.115C237 284.879 211.714 259.545 172.381 252.705V252.718Z" fill="#EED5AF"/>
<path d="M12 356.818L49.4603 353.547C53.2063 393.029 77.0807 421.378 130 416.748C182.444 412.157 206.319 384.785 206.319 345.447C206.319 302.363 182.906 282.404 135.619 286.547L110.333 288.763V254.57L133.746 252.526C177.287 248.713 196.492 226.433 196.492 189.905C196.492 158.06 176.364 135.476 135.619 139.038C93.951 142.679 65.8558 170.434 61.6349 208.729L26.0476 211.843C28.3955 158.72 71.9365 111.362 135.619 105.782C199.302 100.215 236.287 139.117 236.287 185.486C236.287 223.412 213.811 247.869 183.381 263.171C222.714 270.031 248 295.451 248 341.806C248 402.686 198.365 443.553 129.063 449.621C57.8889 455.848 14.3479 415.165 12 356.845V356.818Z" fill="#EEB138"/>
</g>
<defs>
<clipPath id="clip0_20845_1821">
<rect width="540" height="540" fill="white"/>
</clipPath>
</defs>
</svg>
