<svg width="540" height="540" viewBox="0 0 540 540" fill="none" xmlns="http://www.w3.org/2000/svg">
<g clip-path="url(#clip0_19138_2079)">
<path d="M287.066 259.852C366.309 259.84 448.552 334.449 449.179 406.685C449.179 407.558 448.922 408.42 448.407 409.125C444.086 415.081 427.608 465.029 280.864 477.992C127.068 491.582 75.877 453.23 67.8396 448.014C66.2948 447.018 64.8844 445.775 65.0075 443.939C69.5076 375.263 143.288 277.852 229.886 265.046" fill="#49982D"/>
<path opacity="0.2" d="M229.898 265.054C118.449 284.398 65.0078 404.623 65.0078 445.168C65.0078 445.168 72.0265 457.056 126.072 471.631C126.072 471.631 292.171 368.936 319.26 263.789C316.148 262.424 298.316 259.748 287.066 259.871" fill="white"/>
<path d="M229.729 227.129V265.099C229.729 265.099 236.591 278.163 260.412 274.603C287.166 270.607 287.312 258.528 287.312 258.528V220.961L229.74 227.129H229.729Z" fill="#49982D"/>
<path opacity="0.2" d="M285.935 221.109L229.729 227.132V265.102C229.729 265.102 251.11 264.207 262.27 257.143C283.192 243.901 285.532 226.628 285.532 226.628L285.935 221.121V221.109Z" fill="white"/>
<path d="M349.361 129.304C349.361 180.55 307.82 226.088 256.584 231.014C205.337 235.95 163.807 198.405 163.807 147.169C163.807 92.1055 187.281 53.1722 254.636 43.1311C305.547 35.5415 349.361 78.0568 349.361 129.304Z" fill="#49982D"/>
<path opacity="0.2" d="M314.368 129.303C314.368 180.55 274.584 223.3 223.337 228.237C188.613 215.543 163.303 191.766 163.303 140.531C163.303 89.2953 192.128 60.9965 228.028 49.2538C276.957 33.2574 314.357 78.0564 314.357 129.303H314.368Z" fill="white"/>
<path d="M163.796 147.17C158.154 88.5802 202.55 48.1358 256.573 42.9305C306.365 38.1394 330.365 71.9233 338.358 84.6287C342.096 90.584 358.641 112.95 369.623 110.375C377.324 108.562 376.597 115.345 367.731 118.021C340.473 126.226 281.883 122.163 256.573 100.916C225.834 75.1025 163.796 147.17 163.796 147.17Z" fill="#49982D"/>
<path opacity="0.2" d="M115.247 334.8C167.602 372.547 258.688 423.939 350.301 426.458C510.456 430.857 341.928 471.145 310.103 474.727C278.491 478.287 143.467 496.679 65.1081 446.898C65.1081 446.898 64.8618 420.346 84.2053 380.327C98.2875 351.177 115.258 334.789 115.258 334.789L115.247 334.8Z" fill="white"/>
<path d="M465.852 449.694C489.459 424.922 490.357 387.459 467.858 366.018C445.36 344.578 407.984 347.279 384.377 372.052C360.77 396.824 359.871 434.287 382.37 455.727C404.869 477.168 442.245 474.467 465.852 449.694Z" fill="#EED5AF"/>
<path d="M469.728 453.389C493.335 428.617 494.234 391.154 471.735 369.714C449.236 348.273 411.86 350.975 388.253 375.747C364.646 400.52 363.748 437.982 386.247 459.423C408.745 480.863 446.122 478.162 469.728 453.389Z" fill="#EEB138"/>
<path d="M421.418 445.596L395.549 425.032L401.784 417.431L421.564 433.159L465.087 391.875L471.165 398.424L421.418 445.596Z" fill="white"/>
</g>
<defs>
<clipPath id="clip0_19138_2079">
<rect width="540" height="540" fill="white"/>
</clipPath>
</defs>
</svg>
