<svg width="540" height="540" viewBox="0 0 540 540" fill="none" xmlns="http://www.w3.org/2000/svg">
<g clip-path="url(#clip0_2150_36764)">
<path d="M436.596 96.8286L422.665 91.6465L367.831 88.4732L351.848 57.4824L357.234 46.1138L343.303 40.9316L318.775 92.7673L263.941 105.533L303.622 140.731L294.262 196.177L343.303 166.103L392.358 187.588L382.984 133.788L410.321 104.762L405.619 116.029L436.596 96.8286Z" fill="#B6D3AB"/>
<path d="M357.235 46.0996L381.762 93.6557L436.597 96.829L396.916 138.97L406.276 192.771L357.235 171.286L308.179 201.359L317.554 145.914L277.873 110.716L332.707 97.9499L357.235 46.0996Z" fill="#499B2D"/>
<path d="M303.623 140.732L317.554 145.915L308.179 201.36L294.263 196.178L303.623 140.732Z" fill="#88B776"/>
<path d="M277.873 110.715L263.942 105.533L303.623 140.731L317.554 145.913L277.873 110.715Z" fill="#B6D3AB"/>
<path d="M318.777 92.7656L332.707 97.9477L277.873 110.714L263.942 105.532L318.777 92.7656Z" fill="#88B776"/>
<path d="M422.666 91.6463L436.596 96.8284L381.762 93.6551L379.433 89.1426L422.666 91.6463Z" fill="#88B776"/>
<path d="M406.276 192.769L392.36 187.586L356.361 171.807L357.235 171.283L406.276 192.769Z" fill="#88B776"/>
<path d="M299.955 47.2643L293.157 44.7315L266.417 43.1885L258.629 28.0789L261.249 22.5328L254.466 20L242.501 45.2846L215.76 51.5148L235.106 68.6769L230.55 95.7084L254.466 81.0354L278.382 91.5161L273.812 65.2853L287.131 51.1364L284.845 56.6242L299.955 47.2643Z" fill="#B6D3AB"/>
<path d="M261.249 22.5312L273.214 45.7198L299.955 47.2628L280.594 67.8165L285.165 94.0473L261.249 83.5667L237.332 98.2396L241.903 71.2082L222.558 54.0315L249.298 47.8013L261.249 22.5312Z" fill="#499B2D"/>
<path d="M235.106 68.6777L241.904 71.2106L237.334 98.242L230.55 95.7091L235.106 68.6777Z" fill="#88B776"/>
<path d="M222.559 54.032L215.761 51.5137L235.106 68.6758L241.904 71.2086L222.559 54.032Z" fill="#B6D3AB"/>
<path d="M242.501 45.2832L249.299 47.8015L222.559 54.0317L215.761 51.5134L242.501 45.2832Z" fill="#88B776"/>
<path d="M293.157 44.7316L299.955 47.2645L273.215 45.7215L272.079 43.5234L293.157 44.7316Z" fill="#88B776"/>
<path d="M285.167 94.049L278.384 91.5162L260.829 83.8304L261.251 83.5684L285.167 94.049Z" fill="#88B776"/>
<path d="M496.514 169.628L489.716 167.095L462.976 165.552L455.188 150.442L457.808 144.896L451.025 142.363L439.06 167.648L412.319 173.864L431.679 191.04L427.109 218.072L451.025 203.399L474.941 213.879L470.371 187.649L483.704 173.5L481.404 178.987L496.514 169.628Z" fill="#B6D3AB"/>
<path d="M457.808 144.895L469.774 168.068L496.514 169.626L477.168 190.18L481.725 216.411L457.808 205.93L433.892 220.588L438.463 193.557L419.117 176.395L445.857 170.165L457.808 144.895Z" fill="#499B2D"/>
<path d="M431.68 191.039L438.463 193.557L433.893 220.589L427.109 218.07L431.68 191.039Z" fill="#88B776"/>
<path d="M419.117 176.396L412.319 173.863L431.679 191.04L438.463 193.558L419.117 176.396Z" fill="#B6D3AB"/>
<path d="M439.06 167.646L445.858 170.165L419.117 176.395L412.319 173.862L439.06 167.646Z" fill="#88B776"/>
<path d="M489.716 167.094L496.514 169.627L469.774 168.069L468.638 165.871L489.716 167.094Z" fill="#88B776"/>
<path d="M481.726 216.41L474.943 213.878L457.388 206.192L457.81 205.93L481.726 216.41Z" fill="#88B776"/>
<path d="M301.704 506.638L299.084 495.298C332.724 487.539 349.784 466.534 349.784 432.865H361.43C361.43 472.11 340.774 497.627 301.704 506.638Z" fill="#EA9E06"/>
<path d="M356.378 432.865H349.784C349.784 466.534 332.724 487.539 299.084 495.298L300.394 500.99C335.563 491.659 354.806 468.223 356.364 432.865H356.378Z" fill="#EEB138"/>
<path d="M297.933 479.638L293.536 477.003C292.314 475.737 290.771 474.791 289.024 474.281C287.801 473.932 286.491 473.786 285.108 473.903L253.826 476.639C247.625 477.178 242.56 482.695 242.56 488.896V505.505C242.56 508.373 243.651 510.905 245.442 512.74C246.33 513.657 247.378 514.399 248.557 514.923L253.346 518.271L254.685 515.709L285.108 513.045C291.309 512.507 296.375 506.99 296.375 500.789V484.18C296.375 482.884 296.142 481.661 295.734 480.541L297.933 479.638Z" fill="#EED5AF"/>
<path d="M129.529 448.909C128.161 452.694 124.551 455.183 120.533 455.227C77.4311 455.692 43.4854 422.649 43.4854 378.703C43.4854 334.757 77.8678 295.28 121.348 288.569C124.667 288.06 127.826 290.127 128.786 293.344C132.178 304.698 139.238 333.374 139.238 375.777C139.238 416.128 133.11 438.996 129.529 448.924V448.909Z" fill="#EEB138"/>
<path d="M291.369 517.22L260.087 519.957C253.886 520.495 248.82 515.866 248.82 509.68V493.071C248.82 486.87 253.886 481.368 260.087 480.814L291.369 478.078C297.57 477.539 302.636 482.168 302.636 488.355V504.964C302.636 511.165 297.57 516.667 291.369 517.22Z" fill="#EEB138"/>
<path d="M348.809 435.515C394.938 431.483 432.319 390.812 432.319 344.697C432.319 298.582 394.924 264.447 348.809 268.494C348.809 268.494 364.719 302.716 364.166 351.844C363.642 398.745 348.809 435.529 348.809 435.529V435.515Z" fill="#EEB138"/>
<path d="M346.61 435.515C358.653 435.515 368.416 398.048 368.416 351.83C368.416 305.612 358.653 268.145 346.61 268.145C334.567 268.145 324.805 305.612 324.805 351.83C324.805 398.048 334.567 435.515 346.61 435.515Z" fill="#EED5AF"/>
<path d="M237.902 150.485C167.085 156.686 109.47 220.502 109.47 292.76C109.47 292.76 112.265 295.162 115.817 294.711C120.431 294.129 121.115 291.741 121.115 291.741C121.115 225.902 173.504 167.764 237.902 162.13C302.3 156.497 354.689 205.48 354.689 271.304C354.689 271.304 357.426 273.487 361.37 273.138C365.315 272.789 366.334 270.285 366.334 270.285C366.334 198.027 308.72 144.284 237.902 150.485Z" fill="#EA9E06"/>
<path d="M243.972 154.255C267.612 152.187 289.796 156.685 308.938 166.264C288.573 154.196 264.148 148.257 237.902 150.543C167.085 156.744 109.47 220.559 109.47 292.818C109.47 292.818 111.144 294.244 113.531 294.681C115.671 222.976 173.359 160.412 243.972 154.24V154.255Z" fill="#EED5AF"/>
<path d="M273.012 164.648C320.16 175.886 354.397 218.085 354.397 271.304C354.397 271.304 357.134 273.473 361.079 273.138C362.476 273.022 363.48 272.643 364.223 272.206C360.147 217.78 322.911 175.58 273.012 164.663V164.648Z" fill="#CC9A4A"/>
</g>
<defs>
<clipPath id="clip0_2150_36764">
<rect width="540" height="540" fill="white"/>
</clipPath>
</defs>
</svg>
