<svg width="540" height="540" viewBox="0 0 540 540" fill="none" xmlns="http://www.w3.org/2000/svg">
<g clip-path="url(#clip0_2150_36985)">
<path d="M287.027 35.5389C158.368 48.0978 54.0547 163.978 54.0547 294.373C54.0547 424.768 158.354 520.295 287.027 507.736C415.687 495.177 520 379.297 520 248.902C520 118.507 415.701 22.9801 287.027 35.5389ZM289.919 477.537C176.077 488.498 83.7856 405.103 83.7856 291.247C83.7856 177.391 176.077 76.2313 289.919 65.2698C403.761 54.3084 496.053 137.717 496.053 251.56C496.053 365.402 403.761 466.575 289.919 477.537Z" fill="#5FA2C0"/>
<path opacity="0.2" d="M286.766 35.5389C158.106 48.0978 53.7935 163.978 53.7935 294.373C53.7935 424.768 158.093 520.295 286.766 507.736C415.426 495.177 519.739 379.297 519.739 248.902C519.739 118.507 415.439 22.9801 286.766 35.5389ZM289.658 477.537C175.816 488.498 83.5244 405.103 83.5244 291.247C83.5244 177.391 175.816 76.2313 289.658 65.2698C403.5 54.3084 495.791 137.717 495.791 251.56C495.791 365.402 403.5 466.575 289.658 477.537Z" fill="white"/>
<path d="M234.754 475.376C252.312 478.543 270.806 479.369 289.92 477.524C403.762 466.563 496.053 365.389 496.053 251.547C496.053 144.329 414.2 64.1142 309.571 64.2933C396.216 80.3499 461.998 153.83 461.998 248.27C461.998 362.112 369.707 463.285 255.865 474.247C248.745 474.935 241.722 475.252 234.796 475.211L234.768 475.362L234.754 475.376Z" fill="#4797C2"/>
<path d="M317.585 34.4791C308.51 34.2863 299.283 34.6306 289.919 35.5395C159.662 48.0846 54.0549 163.855 54.0549 294.112C54.0549 403.148 128.045 487.783 228.557 505.106V505.051C111.148 502.82 20 411.865 20 290.834C20 160.577 125.594 44.8071 255.864 32.262C277.223 30.2102 297.92 31.0502 317.585 34.4791Z" fill="#BCD0E1"/>
<path d="M250.824 422.649L145.451 338.455L182.591 291.979L244.228 341.223L408.706 159.354L452.841 199.261L250.824 422.649Z" fill="#5FA2C0"/>
<path d="M160.929 282.764L182.59 291.976L145.451 338.452L123.79 329.24L160.929 282.764Z" fill="#BCD0E1"/>
<path d="M387.044 150.139L408.705 159.351L244.228 341.221L225.996 326.651L387.044 150.139Z" fill="#BCD0E1"/>
<path d="M250.824 422.647L229.163 413.434L123.79 329.24L145.451 338.453L250.824 422.647Z" fill="#4797C2"/>
</g>
<defs>
<clipPath id="clip0_2150_36985">
<rect width="540" height="540" fill="white"/>
</clipPath>
</defs>
</svg>
