<svg width="1518" height="1518" viewBox="0 0 1518 1518" fill="none" xmlns="http://www.w3.org/2000/svg">
<path d="M0 990C546.763 990 990 546.763 990 0" stroke="#0E680E" stroke-miterlimit="10"/>
<path d="M0 1031C569.413 1031 1031 569.413 1031 0" stroke="#0E680E" stroke-miterlimit="10"/>
<path d="M0 1071C591.488 1071 1071 591.488 1071 0" stroke="#0E680E" stroke-miterlimit="10"/>
<path d="M0 1112C614.138 1112 1112 614.138 1112 0" stroke="#0E680E" stroke-miterlimit="10"/>
<path d="M0 1152C636.212 1152 1152 636.254 1152 0" stroke="#0E680E" stroke-miterlimit="10"/>
<path d="M0 1193C658.862 1193 1193 658.862 1193 0" stroke="#0E680E" stroke-miterlimit="10"/>
<path d="M0 1233C680.937 1233 1233 680.937 1233 0" stroke="#0E680E" stroke-miterlimit="10"/>
<path d="M0 1274C703.629 1274 1274 703.629 1274 0" stroke="#0E680E" stroke-miterlimit="10"/>
<path d="M0 1314C725.703 1314 1314 725.703 1314 0" stroke="#0E680E" stroke-miterlimit="10"/>
<path d="M0 1355C748.353 1355 1355 748.353 1355 0" stroke="#0E680E" stroke-miterlimit="10"/>
<path d="M0 1395C770.451 1395 1395 770.451 1395 0" stroke="#0E680E" stroke-miterlimit="10"/>
<path d="M0 1436C793.078 1436 1436 793.078 1436 0" stroke="#0E680E" stroke-miterlimit="10"/>
<path d="M0 1476C815.175 1476 1476 815.175 1476 0" stroke="#0E680E" stroke-miterlimit="10"/>
<path d="M0 1517C837.802 1517 1517 837.802 1517 0" stroke="#0E680E" stroke-miterlimit="10"/>
</svg>
