<svg width="1080" height="1214" viewBox="0 0 1080 1214" fill="none" xmlns="http://www.w3.org/2000/svg">
<path fill-rule="evenodd" clip-rule="evenodd" d="M957 0.441406V131.779C957 673.277 556.572 1092.44 0 1092.44V968.306C486.182 968.306 832.891 606.581 832.891 131.779V0.441406H957Z" fill="url(#paint0_linear_26359_11654)"/>
<path fill-rule="evenodd" clip-rule="evenodd" d="M957 0.441406V131.779C957 673.277 556.572 1092.44 0 1092.44V968.306C486.182 968.306 832.891 606.581 832.891 131.779V0.441406H957Z" fill="url(#paint1_linear_26359_11654)"/>
<path fill-rule="evenodd" clip-rule="evenodd" d="M955.907 0.109375V98.7808C955.907 664.64 562.905 1089.32 0 1089.32V1213.44C637.068 1213.44 1080 727.421 1080 98.7808V0.109375H955.907Z" fill="url(#paint2_linear_26359_11654)"/>
<path fill-rule="evenodd" clip-rule="evenodd" d="M955.907 0.109375V98.7808C955.907 664.64 562.905 1089.32 0 1089.32V1213.44C637.068 1213.44 1080 727.421 1080 98.7808V0.109375H955.907Z" fill="url(#paint3_linear_26359_11654)"/>
<defs>
<linearGradient id="paint0_linear_26359_11654" x1="93.962" y1="1313.84" x2="825.472" y2="414.338" gradientUnits="userSpaceOnUse">
<stop offset="0.366942" stop-color="#015F01"/>
<stop offset="0.997525" stop-color="#1EAE1E"/>
</linearGradient>
<linearGradient id="paint1_linear_26359_11654" x1="93.962" y1="1313.84" x2="825.472" y2="414.338" gradientUnits="userSpaceOnUse">
<stop offset="0.366942" stop-color="#0A4007"/>
<stop offset="0.997525" stop-color="#0E680E"/>
</linearGradient>
<linearGradient id="paint2_linear_26359_11654" x1="1106.79" y1="258.828" x2="103.849" y2="1009.46" gradientUnits="userSpaceOnUse">
<stop stop-color="#015F01"/>
<stop offset="1" stop-color="#1FAF1F"/>
</linearGradient>
<linearGradient id="paint3_linear_26359_11654" x1="1106.79" y1="258.828" x2="103.849" y2="1009.46" gradientUnits="userSpaceOnUse">
<stop stop-color="#0A4007"/>
<stop offset="1" stop-color="#0E680E"/>
</linearGradient>
</defs>
</svg>
