<svg width="1080" height="1214" viewBox="0 0 1080 1214" fill="none" xmlns="http://www.w3.org/2000/svg">
<path fill-rule="evenodd" clip-rule="evenodd" d="M957 0.445312V131.783C957 673.28 556.572 1092.45 0 1092.45V968.31C486.182 968.31 832.891 606.585 832.891 131.783V0.445312H957Z" fill="url(#paint0_linear_26359_11669)"/>
<path fill-rule="evenodd" clip-rule="evenodd" d="M957 0.445312V131.783C957 673.28 556.572 1092.45 0 1092.45V968.31C486.182 968.31 832.891 606.585 832.891 131.783V0.445312H957Z" fill="url(#paint1_linear_26359_11669)"/>
<path fill-rule="evenodd" clip-rule="evenodd" d="M955.907 0.113281V98.7847C955.907 664.644 562.905 1089.32 0 1089.32V1213.45C637.068 1213.45 1080 727.425 1080 98.7847V0.113281H955.907Z" fill="url(#paint2_linear_26359_11669)"/>
<path fill-rule="evenodd" clip-rule="evenodd" d="M955.907 0.113281V98.7847C955.907 664.644 562.905 1089.32 0 1089.32V1213.45C637.068 1213.45 1080 727.425 1080 98.7847V0.113281H955.907Z" fill="url(#paint3_linear_26359_11669)"/>
<defs>
<linearGradient id="paint0_linear_26359_11669" x1="93.962" y1="1313.85" x2="825.472" y2="414.342" gradientUnits="userSpaceOnUse">
<stop offset="0.366942" stop-color="#015F01"/>
<stop offset="0.997525" stop-color="#1EAE1E"/>
</linearGradient>
<linearGradient id="paint1_linear_26359_11669" x1="93.962" y1="1313.85" x2="825.472" y2="414.342" gradientUnits="userSpaceOnUse">
<stop offset="0.366942" stop-color="#2D5477"/>
<stop offset="0.997525" stop-color="#82AFCD"/>
</linearGradient>
<linearGradient id="paint2_linear_26359_11669" x1="1106.79" y1="258.832" x2="103.849" y2="1009.46" gradientUnits="userSpaceOnUse">
<stop stop-color="#015F01"/>
<stop offset="1" stop-color="#1FAF1F"/>
</linearGradient>
<linearGradient id="paint3_linear_26359_11669" x1="1106.79" y1="258.832" x2="103.849" y2="1009.46" gradientUnits="userSpaceOnUse">
<stop stop-color="#2D5477"/>
<stop offset="1" stop-color="#6C91A9"/>
</linearGradient>
</defs>
</svg>
