<svg width="1343" height="1415" viewBox="0 0 1343 1415" fill="none" xmlns="http://www.w3.org/2000/svg">
<mask id="mask0_26359_9856" style="mask-type:alpha" maskUnits="userSpaceOnUse" x="0" y="0" width="1343" height="1415">
<path fill-rule="evenodd" clip-rule="evenodd" d="M0 1414.95C741.214 1414.95 1342.09 1017.58 1342.09 0V1414.95H0Z" fill="#E9F4E7"/>
</mask>
<g mask="url(#mask0_26359_9856)">
<ellipse cx="130.558" cy="558.34" rx="3.33577" ry="3.55613" fill="#4A9D2D"/>
<ellipse cx="771.025" cy="558.34" rx="3.33577" ry="3.55613" fill="#4A9D2D"/>
<ellipse cx="450.793" cy="558.34" rx="3.33577" ry="3.55613" fill="#4A9D2D"/>
<ellipse cx="1091.26" cy="558.34" rx="3.33577" ry="3.55613" fill="#4A9D2D"/>
<ellipse cx="290.675" cy="558.34" rx="3.33577" ry="3.55613" fill="#4A9D2D"/>
<ellipse cx="931.144" cy="558.34" rx="3.33577" ry="3.55613" fill="#4A9D2D"/>
<ellipse cx="610.909" cy="558.34" rx="3.33577" ry="3.55613" fill="#4A9D2D"/>
<ellipse cx="1251.38" cy="558.34" rx="3.33577" ry="3.55613" fill="#4A9D2D"/>
<ellipse cx="210.617" cy="558.34" rx="3.33577" ry="3.55613" fill="#4A9D2D"/>
<ellipse cx="851.084" cy="558.34" rx="3.33577" ry="3.55613" fill="#4A9D2D"/>
<ellipse cx="530.85" cy="558.34" rx="3.33577" ry="3.55613" fill="#4A9D2D"/>
<ellipse cx="1171.32" cy="558.34" rx="3.33577" ry="3.55613" fill="#4A9D2D"/>
<ellipse cx="370.733" cy="558.34" rx="3.33577" ry="3.55613" fill="#4A9D2D"/>
<ellipse cx="1011.2" cy="558.34" rx="3.33577" ry="3.55613" fill="#4A9D2D"/>
<ellipse cx="690.97" cy="558.34" rx="3.33577" ry="3.55613" fill="#4A9D2D"/>
<ellipse cx="1331.44" cy="558.34" rx="3.33577" ry="3.55613" fill="#4A9D2D"/>
<ellipse cx="170.585" cy="558.34" rx="3.33577" ry="3.55613" fill="#4A9D2D"/>
<ellipse cx="811.057" cy="558.34" rx="3.33577" ry="3.55613" fill="#4A9D2D"/>
<ellipse cx="490.821" cy="558.34" rx="3.33577" ry="3.55613" fill="#4A9D2D"/>
<ellipse cx="1131.29" cy="558.34" rx="3.33577" ry="3.55613" fill="#4A9D2D"/>
<ellipse cx="330.704" cy="558.34" rx="3.33577" ry="3.55613" fill="#4A9D2D"/>
<ellipse cx="971.172" cy="558.34" rx="3.33577" ry="3.55613" fill="#4A9D2D"/>
<ellipse cx="650.938" cy="558.34" rx="3.33577" ry="3.55613" fill="#4A9D2D"/>
<ellipse cx="1291.41" cy="558.34" rx="3.33577" ry="3.55613" fill="#4A9D2D"/>
<ellipse cx="250.645" cy="558.34" rx="3.33577" ry="3.55613" fill="#4A9D2D"/>
<ellipse cx="891.113" cy="558.34" rx="3.33577" ry="3.55613" fill="#4A9D2D"/>
<ellipse cx="570.88" cy="558.34" rx="3.33577" ry="3.55613" fill="#4A9D2D"/>
<ellipse cx="1211.35" cy="558.34" rx="3.33577" ry="3.55613" fill="#4A9D2D"/>
<ellipse cx="410.764" cy="558.34" rx="3.33577" ry="3.55613" fill="#4A9D2D"/>
<ellipse cx="1051.23" cy="558.34" rx="3.33577" ry="3.55613" fill="#4A9D2D"/>
<ellipse cx="730.996" cy="558.34" rx="3.33577" ry="3.55613" fill="#4A9D2D"/>
<ellipse cx="130.558" cy="516.782" rx="3.33577" ry="3.55613" fill="#4A9D2D"/>
<ellipse cx="771.025" cy="516.782" rx="3.33577" ry="3.55613" fill="#4A9D2D"/>
<ellipse cx="450.792" cy="516.782" rx="3.33577" ry="3.55613" fill="#4A9D2D"/>
<ellipse cx="1091.26" cy="516.782" rx="3.33577" ry="3.55613" fill="#4A9D2D"/>
<ellipse cx="290.675" cy="516.782" rx="3.33577" ry="3.55613" fill="#4A9D2D"/>
<ellipse cx="931.144" cy="516.782" rx="3.33577" ry="3.55613" fill="#4A9D2D"/>
<ellipse cx="610.909" cy="516.782" rx="3.33577" ry="3.55613" fill="#4A9D2D"/>
<ellipse cx="1251.38" cy="516.782" rx="3.33577" ry="3.55613" fill="#4A9D2D"/>
<ellipse cx="210.617" cy="516.782" rx="3.33577" ry="3.55613" fill="#4A9D2D"/>
<ellipse cx="851.084" cy="516.782" rx="3.33577" ry="3.55613" fill="#4A9D2D"/>
<ellipse cx="530.85" cy="516.782" rx="3.33577" ry="3.55613" fill="#4A9D2D"/>
<ellipse cx="1171.32" cy="516.782" rx="3.33577" ry="3.55613" fill="#4A9D2D"/>
<ellipse cx="370.733" cy="516.782" rx="3.33577" ry="3.55613" fill="#4A9D2D"/>
<ellipse cx="1011.2" cy="516.782" rx="3.33577" ry="3.55613" fill="#4A9D2D"/>
<ellipse cx="690.97" cy="516.782" rx="3.33577" ry="3.55613" fill="#4A9D2D"/>
<ellipse cx="1331.44" cy="516.782" rx="3.33577" ry="3.55613" fill="#4A9D2D"/>
<ellipse cx="170.585" cy="516.782" rx="3.33577" ry="3.55613" fill="#4A9D2D"/>
<ellipse cx="811.057" cy="516.782" rx="3.33577" ry="3.55613" fill="#4A9D2D"/>
<ellipse cx="490.821" cy="516.782" rx="3.33577" ry="3.55613" fill="#4A9D2D"/>
<ellipse cx="1131.29" cy="516.782" rx="3.33577" ry="3.55613" fill="#4A9D2D"/>
<ellipse cx="330.704" cy="516.782" rx="3.33577" ry="3.55613" fill="#4A9D2D"/>
<ellipse cx="971.172" cy="516.782" rx="3.33577" ry="3.55613" fill="#4A9D2D"/>
<ellipse cx="650.938" cy="516.782" rx="3.33577" ry="3.55613" fill="#4A9D2D"/>
<ellipse cx="1291.41" cy="516.782" rx="3.33577" ry="3.55613" fill="#4A9D2D"/>
<ellipse cx="250.645" cy="516.782" rx="3.33577" ry="3.55613" fill="#4A9D2D"/>
<ellipse cx="891.113" cy="516.782" rx="3.33577" ry="3.55613" fill="#4A9D2D"/>
<ellipse cx="570.88" cy="516.782" rx="3.33577" ry="3.55613" fill="#4A9D2D"/>
<ellipse cx="1211.35" cy="516.782" rx="3.33577" ry="3.55613" fill="#4A9D2D"/>
<ellipse cx="410.763" cy="516.782" rx="3.33577" ry="3.55613" fill="#4A9D2D"/>
<ellipse cx="1051.23" cy="516.782" rx="3.33577" ry="3.55613" fill="#4A9D2D"/>
<ellipse cx="730.996" cy="516.782" rx="3.33577" ry="3.55613" fill="#4A9D2D"/>
<ellipse cx="130.558" cy="473.545" rx="3.33577" ry="3.55613" fill="#4A9D2D"/>
<ellipse cx="771.025" cy="473.545" rx="3.33577" ry="3.55613" fill="#4A9D2D"/>
<ellipse cx="450.792" cy="473.545" rx="3.33577" ry="3.55613" fill="#4A9D2D"/>
<ellipse cx="1091.26" cy="473.545" rx="3.33577" ry="3.55613" fill="#4A9D2D"/>
<ellipse cx="290.675" cy="473.545" rx="3.33577" ry="3.55613" fill="#4A9D2D"/>
<ellipse cx="931.144" cy="473.545" rx="3.33577" ry="3.55613" fill="#4A9D2D"/>
<ellipse cx="610.909" cy="473.545" rx="3.33577" ry="3.55613" fill="#4A9D2D"/>
<ellipse cx="1251.38" cy="473.545" rx="3.33577" ry="3.55613" fill="#4A9D2D"/>
<ellipse cx="210.617" cy="473.545" rx="3.33577" ry="3.55613" fill="#4A9D2D"/>
<ellipse cx="851.084" cy="473.545" rx="3.33577" ry="3.55613" fill="#4A9D2D"/>
<ellipse cx="530.85" cy="473.545" rx="3.33577" ry="3.55613" fill="#4A9D2D"/>
<ellipse cx="1171.32" cy="473.545" rx="3.33577" ry="3.55613" fill="#4A9D2D"/>
<ellipse cx="370.733" cy="473.545" rx="3.33577" ry="3.55613" fill="#4A9D2D"/>
<ellipse cx="1011.2" cy="473.545" rx="3.33577" ry="3.55613" fill="#4A9D2D"/>
<ellipse cx="690.97" cy="473.545" rx="3.33577" ry="3.55613" fill="#4A9D2D"/>
<ellipse cx="1331.44" cy="473.545" rx="3.33577" ry="3.55613" fill="#4A9D2D"/>
<ellipse cx="170.585" cy="473.545" rx="3.33577" ry="3.55613" fill="#4A9D2D"/>
<ellipse cx="811.057" cy="473.545" rx="3.33577" ry="3.55613" fill="#4A9D2D"/>
<ellipse cx="490.821" cy="473.545" rx="3.33577" ry="3.55613" fill="#4A9D2D"/>
<ellipse cx="1131.29" cy="473.545" rx="3.33577" ry="3.55613" fill="#4A9D2D"/>
<ellipse cx="330.704" cy="473.545" rx="3.33577" ry="3.55613" fill="#4A9D2D"/>
<ellipse cx="971.172" cy="473.545" rx="3.33577" ry="3.55613" fill="#4A9D2D"/>
<ellipse cx="650.938" cy="473.545" rx="3.33577" ry="3.55613" fill="#4A9D2D"/>
<ellipse cx="1291.41" cy="473.545" rx="3.33577" ry="3.55613" fill="#4A9D2D"/>
<ellipse cx="250.646" cy="473.545" rx="3.33577" ry="3.55613" fill="#4A9D2D"/>
<ellipse cx="891.113" cy="473.545" rx="3.33577" ry="3.55613" fill="#4A9D2D"/>
<ellipse cx="570.88" cy="473.545" rx="3.33577" ry="3.55613" fill="#4A9D2D"/>
<ellipse cx="1211.35" cy="473.545" rx="3.33577" ry="3.55613" fill="#4A9D2D"/>
<ellipse cx="410.764" cy="473.545" rx="3.33577" ry="3.55613" fill="#4A9D2D"/>
<ellipse cx="1051.23" cy="473.545" rx="3.33577" ry="3.55613" fill="#4A9D2D"/>
<ellipse cx="730.996" cy="473.545" rx="3.33577" ry="3.55613" fill="#4A9D2D"/>
<ellipse cx="130.558" cy="430.305" rx="3.33577" ry="3.55613" fill="#4A9D2D"/>
<ellipse cx="771.025" cy="430.305" rx="3.33577" ry="3.55613" fill="#4A9D2D"/>
<ellipse cx="450.792" cy="430.305" rx="3.33577" ry="3.55613" fill="#4A9D2D"/>
<ellipse cx="1091.26" cy="430.305" rx="3.33577" ry="3.55613" fill="#4A9D2D"/>
<ellipse cx="290.675" cy="430.305" rx="3.33577" ry="3.55613" fill="#4A9D2D"/>
<ellipse cx="931.144" cy="430.305" rx="3.33577" ry="3.55613" fill="#4A9D2D"/>
<ellipse cx="610.909" cy="430.305" rx="3.33577" ry="3.55613" fill="#4A9D2D"/>
<ellipse cx="1251.38" cy="430.305" rx="3.33577" ry="3.55613" fill="#4A9D2D"/>
<ellipse cx="210.617" cy="430.305" rx="3.33577" ry="3.55613" fill="#4A9D2D"/>
<ellipse cx="851.084" cy="430.305" rx="3.33577" ry="3.55613" fill="#4A9D2D"/>
<ellipse cx="530.85" cy="430.305" rx="3.33577" ry="3.55613" fill="#4A9D2D"/>
<ellipse cx="1171.32" cy="430.305" rx="3.33577" ry="3.55613" fill="#4A9D2D"/>
<ellipse cx="370.733" cy="430.305" rx="3.33577" ry="3.55613" fill="#4A9D2D"/>
<ellipse cx="1011.2" cy="430.305" rx="3.33577" ry="3.55613" fill="#4A9D2D"/>
<ellipse cx="690.97" cy="430.305" rx="3.33577" ry="3.55613" fill="#4A9D2D"/>
<ellipse cx="1331.44" cy="430.305" rx="3.33577" ry="3.55613" fill="#4A9D2D"/>
<ellipse cx="170.585" cy="430.305" rx="3.33577" ry="3.55613" fill="#4A9D2D"/>
<ellipse cx="811.057" cy="430.305" rx="3.33577" ry="3.55613" fill="#4A9D2D"/>
<ellipse cx="490.821" cy="430.305" rx="3.33577" ry="3.55613" fill="#4A9D2D"/>
<ellipse cx="1131.29" cy="430.305" rx="3.33577" ry="3.55613" fill="#4A9D2D"/>
<ellipse cx="330.704" cy="430.305" rx="3.33577" ry="3.55613" fill="#4A9D2D"/>
<ellipse cx="971.172" cy="430.305" rx="3.33577" ry="3.55613" fill="#4A9D2D"/>
<ellipse cx="650.938" cy="430.305" rx="3.33577" ry="3.55613" fill="#4A9D2D"/>
<ellipse cx="1291.41" cy="430.305" rx="3.33577" ry="3.55613" fill="#4A9D2D"/>
<ellipse cx="250.646" cy="430.305" rx="3.33577" ry="3.55613" fill="#4A9D2D"/>
<ellipse cx="891.113" cy="430.305" rx="3.33577" ry="3.55613" fill="#4A9D2D"/>
<ellipse cx="570.88" cy="430.305" rx="3.33577" ry="3.55613" fill="#4A9D2D"/>
<ellipse cx="1211.35" cy="430.305" rx="3.33577" ry="3.55613" fill="#4A9D2D"/>
<ellipse cx="410.764" cy="430.305" rx="3.33577" ry="3.55613" fill="#4A9D2D"/>
<ellipse cx="1051.23" cy="430.305" rx="3.33577" ry="3.55613" fill="#4A9D2D"/>
<ellipse cx="730.996" cy="430.305" rx="3.33577" ry="3.55613" fill="#4A9D2D"/>
<ellipse cx="130.558" cy="387.067" rx="3.33577" ry="3.55613" fill="#4A9D2D"/>
<ellipse cx="771.025" cy="387.067" rx="3.33577" ry="3.55613" fill="#4A9D2D"/>
<ellipse cx="450.792" cy="387.067" rx="3.33577" ry="3.55613" fill="#4A9D2D"/>
<ellipse cx="1091.26" cy="387.067" rx="3.33577" ry="3.55613" fill="#4A9D2D"/>
<ellipse cx="290.675" cy="387.067" rx="3.33577" ry="3.55613" fill="#4A9D2D"/>
<ellipse cx="931.144" cy="387.067" rx="3.33577" ry="3.55613" fill="#4A9D2D"/>
<ellipse cx="610.909" cy="387.067" rx="3.33577" ry="3.55613" fill="#4A9D2D"/>
<ellipse cx="1251.38" cy="387.067" rx="3.33577" ry="3.55613" fill="#4A9D2D"/>
<ellipse cx="210.617" cy="387.067" rx="3.33577" ry="3.55613" fill="#4A9D2D"/>
<ellipse cx="851.084" cy="387.067" rx="3.33577" ry="3.55613" fill="#4A9D2D"/>
<ellipse cx="530.85" cy="387.067" rx="3.33577" ry="3.55613" fill="#4A9D2D"/>
<ellipse cx="1171.32" cy="387.067" rx="3.33577" ry="3.55613" fill="#4A9D2D"/>
<ellipse cx="370.733" cy="387.067" rx="3.33577" ry="3.55613" fill="#4A9D2D"/>
<ellipse cx="1011.2" cy="387.067" rx="3.33577" ry="3.55613" fill="#4A9D2D"/>
<ellipse cx="690.97" cy="387.067" rx="3.33577" ry="3.55613" fill="#4A9D2D"/>
<ellipse cx="1331.44" cy="387.067" rx="3.33577" ry="3.55613" fill="#4A9D2D"/>
<ellipse cx="170.585" cy="387.067" rx="3.33577" ry="3.55613" fill="#4A9D2D"/>
<ellipse cx="811.057" cy="387.067" rx="3.33577" ry="3.55613" fill="#4A9D2D"/>
<ellipse cx="490.821" cy="387.067" rx="3.33577" ry="3.55613" fill="#4A9D2D"/>
<ellipse cx="1131.29" cy="387.067" rx="3.33577" ry="3.55613" fill="#4A9D2D"/>
<ellipse cx="330.704" cy="387.067" rx="3.33577" ry="3.55613" fill="#4A9D2D"/>
<ellipse cx="971.172" cy="387.067" rx="3.33577" ry="3.55613" fill="#4A9D2D"/>
<ellipse cx="650.938" cy="387.067" rx="3.33577" ry="3.55613" fill="#4A9D2D"/>
<ellipse cx="1291.41" cy="387.067" rx="3.33577" ry="3.55613" fill="#4A9D2D"/>
<ellipse cx="250.646" cy="387.067" rx="3.33577" ry="3.55613" fill="#4A9D2D"/>
<ellipse cx="891.113" cy="387.067" rx="3.33577" ry="3.55613" fill="#4A9D2D"/>
<ellipse cx="570.88" cy="387.067" rx="3.33577" ry="3.55613" fill="#4A9D2D"/>
<ellipse cx="1211.35" cy="387.067" rx="3.33577" ry="3.55613" fill="#4A9D2D"/>
<ellipse cx="410.764" cy="387.067" rx="3.33577" ry="3.55613" fill="#4A9D2D"/>
<ellipse cx="1051.23" cy="387.067" rx="3.33577" ry="3.55613" fill="#4A9D2D"/>
<ellipse cx="730.996" cy="387.067" rx="3.33577" ry="3.55613" fill="#4A9D2D"/>
<ellipse cx="130.558" cy="343.827" rx="3.33577" ry="3.55613" fill="#4A9D2D"/>
<ellipse cx="771.025" cy="343.827" rx="3.33577" ry="3.55613" fill="#4A9D2D"/>
<ellipse cx="450.793" cy="343.827" rx="3.33577" ry="3.55613" fill="#4A9D2D"/>
<ellipse cx="1091.26" cy="343.827" rx="3.33577" ry="3.55613" fill="#4A9D2D"/>
<ellipse cx="290.675" cy="343.827" rx="3.33577" ry="3.55613" fill="#4A9D2D"/>
<ellipse cx="931.144" cy="343.827" rx="3.33577" ry="3.55613" fill="#4A9D2D"/>
<ellipse cx="610.909" cy="343.827" rx="3.33577" ry="3.55613" fill="#4A9D2D"/>
<ellipse cx="1251.38" cy="343.827" rx="3.33577" ry="3.55613" fill="#4A9D2D"/>
<ellipse cx="210.617" cy="343.827" rx="3.33577" ry="3.55613" fill="#4A9D2D"/>
<ellipse cx="851.084" cy="343.827" rx="3.33577" ry="3.55613" fill="#4A9D2D"/>
<ellipse cx="530.85" cy="343.827" rx="3.33577" ry="3.55613" fill="#4A9D2D"/>
<ellipse cx="1171.32" cy="343.827" rx="3.33577" ry="3.55613" fill="#4A9D2D"/>
<ellipse cx="370.733" cy="343.827" rx="3.33577" ry="3.55613" fill="#4A9D2D"/>
<ellipse cx="1011.2" cy="343.827" rx="3.33577" ry="3.55613" fill="#4A9D2D"/>
<ellipse cx="690.97" cy="343.827" rx="3.33577" ry="3.55613" fill="#4A9D2D"/>
<ellipse cx="1331.44" cy="343.827" rx="3.33577" ry="3.55613" fill="#4A9D2D"/>
<ellipse cx="170.585" cy="343.827" rx="3.33577" ry="3.55613" fill="#4A9D2D"/>
<ellipse cx="811.057" cy="343.827" rx="3.33577" ry="3.55613" fill="#4A9D2D"/>
<ellipse cx="490.821" cy="343.827" rx="3.33577" ry="3.55613" fill="#4A9D2D"/>
<ellipse cx="1131.29" cy="343.827" rx="3.33577" ry="3.55613" fill="#4A9D2D"/>
<ellipse cx="330.704" cy="343.827" rx="3.33577" ry="3.55613" fill="#4A9D2D"/>
<ellipse cx="971.172" cy="343.827" rx="3.33577" ry="3.55613" fill="#4A9D2D"/>
<ellipse cx="650.938" cy="343.827" rx="3.33577" ry="3.55613" fill="#4A9D2D"/>
<ellipse cx="1291.41" cy="343.827" rx="3.33577" ry="3.55613" fill="#4A9D2D"/>
<ellipse cx="250.645" cy="343.827" rx="3.33577" ry="3.55613" fill="#4A9D2D"/>
<ellipse cx="891.113" cy="343.827" rx="3.33577" ry="3.55613" fill="#4A9D2D"/>
<ellipse cx="570.88" cy="343.827" rx="3.33577" ry="3.55613" fill="#4A9D2D"/>
<ellipse cx="1211.35" cy="343.827" rx="3.33577" ry="3.55613" fill="#4A9D2D"/>
<ellipse cx="410.764" cy="343.827" rx="3.33577" ry="3.55613" fill="#4A9D2D"/>
<ellipse cx="1051.23" cy="343.827" rx="3.33577" ry="3.55613" fill="#4A9D2D"/>
<ellipse cx="730.996" cy="343.827" rx="3.33577" ry="3.55613" fill="#4A9D2D"/>
<ellipse cx="130.558" cy="601.012" rx="3.33577" ry="3.55613" fill="#4A9D2D"/>
<ellipse cx="771.025" cy="601.012" rx="3.33577" ry="3.55613" fill="#4A9D2D"/>
<ellipse cx="450.793" cy="601.012" rx="3.33577" ry="3.55613" fill="#4A9D2D"/>
<ellipse cx="1091.26" cy="601.012" rx="3.33577" ry="3.55613" fill="#4A9D2D"/>
<ellipse cx="290.675" cy="601.012" rx="3.33577" ry="3.55613" fill="#4A9D2D"/>
<ellipse cx="931.144" cy="601.012" rx="3.33577" ry="3.55613" fill="#4A9D2D"/>
<ellipse cx="610.909" cy="601.012" rx="3.33577" ry="3.55613" fill="#4A9D2D"/>
<ellipse cx="1251.38" cy="601.012" rx="3.33577" ry="3.55613" fill="#4A9D2D"/>
<ellipse cx="210.617" cy="601.012" rx="3.33577" ry="3.55613" fill="#4A9D2D"/>
<ellipse cx="851.084" cy="601.012" rx="3.33577" ry="3.55613" fill="#4A9D2D"/>
<ellipse cx="530.85" cy="601.012" rx="3.33577" ry="3.55613" fill="#4A9D2D"/>
<ellipse cx="1171.32" cy="601.012" rx="3.33577" ry="3.55613" fill="#4A9D2D"/>
<ellipse cx="370.733" cy="601.012" rx="3.33577" ry="3.55613" fill="#4A9D2D"/>
<ellipse cx="1011.2" cy="601.012" rx="3.33577" ry="3.55613" fill="#4A9D2D"/>
<ellipse cx="690.97" cy="601.012" rx="3.33577" ry="3.55613" fill="#4A9D2D"/>
<ellipse cx="1331.44" cy="601.012" rx="3.33577" ry="3.55613" fill="#4A9D2D"/>
<ellipse cx="170.585" cy="601.012" rx="3.33577" ry="3.55613" fill="#4A9D2D"/>
<ellipse cx="811.057" cy="601.012" rx="3.33577" ry="3.55613" fill="#4A9D2D"/>
<ellipse cx="490.821" cy="601.012" rx="3.33577" ry="3.55613" fill="#4A9D2D"/>
<ellipse cx="1131.29" cy="601.012" rx="3.33577" ry="3.55613" fill="#4A9D2D"/>
<ellipse cx="330.704" cy="601.012" rx="3.33577" ry="3.55613" fill="#4A9D2D"/>
<ellipse cx="971.172" cy="601.012" rx="3.33577" ry="3.55613" fill="#4A9D2D"/>
<ellipse cx="650.938" cy="601.012" rx="3.33577" ry="3.55613" fill="#4A9D2D"/>
<ellipse cx="1291.41" cy="601.012" rx="3.33577" ry="3.55613" fill="#4A9D2D"/>
<ellipse cx="250.646" cy="601.012" rx="3.33577" ry="3.55613" fill="#4A9D2D"/>
<ellipse cx="891.113" cy="601.012" rx="3.33577" ry="3.55613" fill="#4A9D2D"/>
<ellipse cx="570.88" cy="601.012" rx="3.33577" ry="3.55613" fill="#4A9D2D"/>
<ellipse cx="1211.35" cy="601.012" rx="3.33577" ry="3.55613" fill="#4A9D2D"/>
<ellipse cx="410.764" cy="601.012" rx="3.33577" ry="3.55613" fill="#4A9D2D"/>
<ellipse cx="1051.23" cy="601.012" rx="3.33577" ry="3.55613" fill="#4A9D2D"/>
<ellipse cx="730.996" cy="601.012" rx="3.33577" ry="3.55613" fill="#4A9D2D"/>
<ellipse cx="130.558" cy="643.684" rx="3.33577" ry="3.55613" fill="#4A9D2D"/>
<ellipse cx="771.025" cy="643.684" rx="3.33577" ry="3.55613" fill="#4A9D2D"/>
<ellipse cx="450.792" cy="643.684" rx="3.33577" ry="3.55613" fill="#4A9D2D"/>
<ellipse cx="1091.26" cy="643.684" rx="3.33577" ry="3.55613" fill="#4A9D2D"/>
<ellipse cx="290.675" cy="643.684" rx="3.33577" ry="3.55613" fill="#4A9D2D"/>
<ellipse cx="931.144" cy="643.684" rx="3.33577" ry="3.55613" fill="#4A9D2D"/>
<ellipse cx="610.909" cy="643.684" rx="3.33577" ry="3.55613" fill="#4A9D2D"/>
<ellipse cx="1251.38" cy="643.684" rx="3.33577" ry="3.55613" fill="#4A9D2D"/>
<ellipse cx="210.617" cy="643.684" rx="3.33577" ry="3.55613" fill="#4A9D2D"/>
<ellipse cx="851.084" cy="643.684" rx="3.33577" ry="3.55613" fill="#4A9D2D"/>
<ellipse cx="530.85" cy="643.684" rx="3.33577" ry="3.55613" fill="#4A9D2D"/>
<ellipse cx="1171.32" cy="643.684" rx="3.33577" ry="3.55613" fill="#4A9D2D"/>
<ellipse cx="370.733" cy="643.684" rx="3.33577" ry="3.55613" fill="#4A9D2D"/>
<ellipse cx="1011.2" cy="643.684" rx="3.33577" ry="3.55613" fill="#4A9D2D"/>
<ellipse cx="690.97" cy="643.684" rx="3.33577" ry="3.55613" fill="#4A9D2D"/>
<ellipse cx="1331.44" cy="643.684" rx="3.33577" ry="3.55613" fill="#4A9D2D"/>
<ellipse cx="170.585" cy="643.684" rx="3.33577" ry="3.55613" fill="#4A9D2D"/>
<ellipse cx="811.057" cy="643.684" rx="3.33577" ry="3.55613" fill="#4A9D2D"/>
<ellipse cx="490.821" cy="643.684" rx="3.33577" ry="3.55613" fill="#4A9D2D"/>
<ellipse cx="1131.29" cy="643.684" rx="3.33577" ry="3.55613" fill="#4A9D2D"/>
<ellipse cx="330.704" cy="643.684" rx="3.33577" ry="3.55613" fill="#4A9D2D"/>
<ellipse cx="971.172" cy="643.684" rx="3.33577" ry="3.55613" fill="#4A9D2D"/>
<ellipse cx="650.938" cy="643.684" rx="3.33577" ry="3.55613" fill="#4A9D2D"/>
<ellipse cx="1291.41" cy="643.684" rx="3.33577" ry="3.55613" fill="#4A9D2D"/>
<ellipse cx="250.646" cy="643.684" rx="3.33577" ry="3.55613" fill="#4A9D2D"/>
<ellipse cx="891.113" cy="643.684" rx="3.33577" ry="3.55613" fill="#4A9D2D"/>
<ellipse cx="570.88" cy="643.684" rx="3.33577" ry="3.55613" fill="#4A9D2D"/>
<ellipse cx="1211.35" cy="643.684" rx="3.33577" ry="3.55613" fill="#4A9D2D"/>
<ellipse cx="410.764" cy="643.684" rx="3.33577" ry="3.55613" fill="#4A9D2D"/>
<ellipse cx="1051.23" cy="643.684" rx="3.33577" ry="3.55613" fill="#4A9D2D"/>
<ellipse cx="730.996" cy="643.684" rx="3.33577" ry="3.55613" fill="#4A9D2D"/>
<ellipse cx="130.558" cy="686.36" rx="3.33577" ry="3.55613" fill="#4A9D2D"/>
<ellipse cx="771.025" cy="686.36" rx="3.33577" ry="3.55613" fill="#4A9D2D"/>
<ellipse cx="450.793" cy="686.36" rx="3.33577" ry="3.55613" fill="#4A9D2D"/>
<ellipse cx="1091.26" cy="686.36" rx="3.33577" ry="3.55613" fill="#4A9D2D"/>
<ellipse cx="290.675" cy="686.36" rx="3.33577" ry="3.55613" fill="#4A9D2D"/>
<ellipse cx="931.144" cy="686.36" rx="3.33577" ry="3.55613" fill="#4A9D2D"/>
<ellipse cx="610.909" cy="686.36" rx="3.33577" ry="3.55613" fill="#4A9D2D"/>
<ellipse cx="1251.38" cy="686.36" rx="3.33577" ry="3.55613" fill="#4A9D2D"/>
<ellipse cx="210.617" cy="686.36" rx="3.33577" ry="3.55613" fill="#4A9D2D"/>
<ellipse cx="851.084" cy="686.36" rx="3.33577" ry="3.55613" fill="#4A9D2D"/>
<ellipse cx="530.85" cy="686.36" rx="3.33577" ry="3.55613" fill="#4A9D2D"/>
<ellipse cx="1171.32" cy="686.36" rx="3.33577" ry="3.55613" fill="#4A9D2D"/>
<ellipse cx="370.733" cy="686.36" rx="3.33577" ry="3.55613" fill="#4A9D2D"/>
<ellipse cx="1011.2" cy="686.36" rx="3.33577" ry="3.55613" fill="#4A9D2D"/>
<ellipse cx="690.97" cy="686.36" rx="3.33577" ry="3.55613" fill="#4A9D2D"/>
<ellipse cx="1331.44" cy="686.36" rx="3.33577" ry="3.55613" fill="#4A9D2D"/>
<ellipse cx="170.585" cy="686.36" rx="3.33577" ry="3.55613" fill="#4A9D2D"/>
<ellipse cx="811.057" cy="686.36" rx="3.33577" ry="3.55613" fill="#4A9D2D"/>
<ellipse cx="490.821" cy="686.36" rx="3.33577" ry="3.55613" fill="#4A9D2D"/>
<ellipse cx="1131.29" cy="686.36" rx="3.33577" ry="3.55613" fill="#4A9D2D"/>
<ellipse cx="330.704" cy="686.36" rx="3.33577" ry="3.55613" fill="#4A9D2D"/>
<ellipse cx="971.172" cy="686.36" rx="3.33577" ry="3.55613" fill="#4A9D2D"/>
<ellipse cx="650.938" cy="686.36" rx="3.33577" ry="3.55613" fill="#4A9D2D"/>
<ellipse cx="1291.41" cy="686.36" rx="3.33577" ry="3.55613" fill="#4A9D2D"/>
<ellipse cx="250.645" cy="686.36" rx="3.33577" ry="3.55613" fill="#4A9D2D"/>
<ellipse cx="891.113" cy="686.36" rx="3.33577" ry="3.55613" fill="#4A9D2D"/>
<ellipse cx="570.88" cy="686.36" rx="3.33577" ry="3.55613" fill="#4A9D2D"/>
<ellipse cx="1211.35" cy="686.36" rx="3.33577" ry="3.55613" fill="#4A9D2D"/>
<ellipse cx="410.764" cy="686.36" rx="3.33577" ry="3.55613" fill="#4A9D2D"/>
<ellipse cx="1051.23" cy="686.36" rx="3.33577" ry="3.55613" fill="#4A9D2D"/>
<ellipse cx="730.996" cy="686.36" rx="3.33577" ry="3.55613" fill="#4A9D2D"/>
<ellipse cx="130.558" cy="729.032" rx="3.33577" ry="3.55613" fill="#4A9D2D"/>
<ellipse cx="771.025" cy="729.032" rx="3.33577" ry="3.55613" fill="#4A9D2D"/>
<ellipse cx="450.792" cy="729.032" rx="3.33577" ry="3.55613" fill="#4A9D2D"/>
<ellipse cx="1091.26" cy="729.032" rx="3.33577" ry="3.55613" fill="#4A9D2D"/>
<ellipse cx="290.675" cy="729.032" rx="3.33577" ry="3.55613" fill="#4A9D2D"/>
<ellipse cx="931.144" cy="729.032" rx="3.33577" ry="3.55613" fill="#4A9D2D"/>
<ellipse cx="610.909" cy="729.032" rx="3.33577" ry="3.55613" fill="#4A9D2D"/>
<ellipse cx="1251.38" cy="729.032" rx="3.33577" ry="3.55613" fill="#4A9D2D"/>
<ellipse cx="210.617" cy="729.032" rx="3.33577" ry="3.55613" fill="#4A9D2D"/>
<ellipse cx="851.084" cy="729.032" rx="3.33577" ry="3.55613" fill="#4A9D2D"/>
<ellipse cx="530.85" cy="729.032" rx="3.33577" ry="3.55613" fill="#4A9D2D"/>
<ellipse cx="1171.32" cy="729.032" rx="3.33577" ry="3.55613" fill="#4A9D2D"/>
<ellipse cx="370.733" cy="729.032" rx="3.33577" ry="3.55613" fill="#4A9D2D"/>
<ellipse cx="1011.2" cy="729.032" rx="3.33577" ry="3.55613" fill="#4A9D2D"/>
<ellipse cx="690.97" cy="729.032" rx="3.33577" ry="3.55613" fill="#4A9D2D"/>
<ellipse cx="1331.44" cy="729.032" rx="3.33577" ry="3.55613" fill="#4A9D2D"/>
<ellipse cx="170.585" cy="729.032" rx="3.33577" ry="3.55613" fill="#4A9D2D"/>
<ellipse cx="811.057" cy="729.032" rx="3.33577" ry="3.55613" fill="#4A9D2D"/>
<ellipse cx="490.821" cy="729.032" rx="3.33577" ry="3.55613" fill="#4A9D2D"/>
<ellipse cx="1131.29" cy="729.032" rx="3.33577" ry="3.55613" fill="#4A9D2D"/>
<ellipse cx="330.704" cy="729.032" rx="3.33577" ry="3.55613" fill="#4A9D2D"/>
<ellipse cx="971.172" cy="729.032" rx="3.33577" ry="3.55613" fill="#4A9D2D"/>
<ellipse cx="650.938" cy="729.032" rx="3.33577" ry="3.55613" fill="#4A9D2D"/>
<ellipse cx="1291.41" cy="729.032" rx="3.33577" ry="3.55613" fill="#4A9D2D"/>
<ellipse cx="250.646" cy="729.032" rx="3.33577" ry="3.55613" fill="#4A9D2D"/>
<ellipse cx="891.113" cy="729.032" rx="3.33577" ry="3.55613" fill="#4A9D2D"/>
<ellipse cx="570.88" cy="729.032" rx="3.33577" ry="3.55613" fill="#4A9D2D"/>
<ellipse cx="1211.35" cy="729.032" rx="3.33577" ry="3.55613" fill="#4A9D2D"/>
<ellipse cx="410.764" cy="729.032" rx="3.33577" ry="3.55613" fill="#4A9D2D"/>
<ellipse cx="1051.23" cy="729.032" rx="3.33577" ry="3.55613" fill="#4A9D2D"/>
<ellipse cx="730.996" cy="729.032" rx="3.33577" ry="3.55613" fill="#4A9D2D"/>
<ellipse cx="130.558" cy="771.706" rx="3.33577" ry="3.55613" fill="#4A9D2D"/>
<ellipse cx="771.025" cy="771.706" rx="3.33577" ry="3.55613" fill="#4A9D2D"/>
<ellipse cx="450.793" cy="771.706" rx="3.33577" ry="3.55613" fill="#4A9D2D"/>
<ellipse cx="1091.26" cy="771.706" rx="3.33577" ry="3.55613" fill="#4A9D2D"/>
<ellipse cx="290.675" cy="771.706" rx="3.33577" ry="3.55613" fill="#4A9D2D"/>
<ellipse cx="931.144" cy="771.706" rx="3.33577" ry="3.55613" fill="#4A9D2D"/>
<ellipse cx="610.909" cy="771.706" rx="3.33577" ry="3.55613" fill="#4A9D2D"/>
<ellipse cx="1251.38" cy="771.706" rx="3.33577" ry="3.55613" fill="#4A9D2D"/>
<ellipse cx="210.617" cy="771.706" rx="3.33577" ry="3.55613" fill="#4A9D2D"/>
<ellipse cx="851.084" cy="771.706" rx="3.33577" ry="3.55613" fill="#4A9D2D"/>
<ellipse cx="530.85" cy="771.706" rx="3.33577" ry="3.55613" fill="#4A9D2D"/>
<ellipse cx="1171.32" cy="771.706" rx="3.33577" ry="3.55613" fill="#4A9D2D"/>
<ellipse cx="370.733" cy="771.706" rx="3.33577" ry="3.55613" fill="#4A9D2D"/>
<ellipse cx="1011.2" cy="771.706" rx="3.33577" ry="3.55613" fill="#4A9D2D"/>
<ellipse cx="690.97" cy="771.706" rx="3.33577" ry="3.55613" fill="#4A9D2D"/>
<ellipse cx="1331.44" cy="771.706" rx="3.33577" ry="3.55613" fill="#4A9D2D"/>
<ellipse cx="170.585" cy="771.706" rx="3.33577" ry="3.55613" fill="#4A9D2D"/>
<ellipse cx="811.057" cy="771.706" rx="3.33577" ry="3.55613" fill="#4A9D2D"/>
<ellipse cx="490.821" cy="771.706" rx="3.33577" ry="3.55613" fill="#4A9D2D"/>
<ellipse cx="1131.29" cy="771.706" rx="3.33577" ry="3.55613" fill="#4A9D2D"/>
<ellipse cx="330.704" cy="771.706" rx="3.33577" ry="3.55613" fill="#4A9D2D"/>
<ellipse cx="971.172" cy="771.706" rx="3.33577" ry="3.55613" fill="#4A9D2D"/>
<ellipse cx="650.938" cy="771.706" rx="3.33577" ry="3.55613" fill="#4A9D2D"/>
<ellipse cx="1291.41" cy="771.706" rx="3.33577" ry="3.55613" fill="#4A9D2D"/>
<ellipse cx="250.646" cy="771.706" rx="3.33577" ry="3.55613" fill="#4A9D2D"/>
<ellipse cx="891.113" cy="771.706" rx="3.33577" ry="3.55613" fill="#4A9D2D"/>
<ellipse cx="570.88" cy="771.706" rx="3.33577" ry="3.55613" fill="#4A9D2D"/>
<ellipse cx="1211.35" cy="771.706" rx="3.33577" ry="3.55613" fill="#4A9D2D"/>
<ellipse cx="410.764" cy="771.706" rx="3.33577" ry="3.55613" fill="#4A9D2D"/>
<ellipse cx="1051.23" cy="771.706" rx="3.33577" ry="3.55613" fill="#4A9D2D"/>
<ellipse cx="730.996" cy="771.706" rx="3.33577" ry="3.55613" fill="#4A9D2D"/>
<ellipse cx="130.558" cy="814.379" rx="3.33577" ry="3.55613" fill="#4A9D2D"/>
<ellipse cx="771.025" cy="814.379" rx="3.33577" ry="3.55613" fill="#4A9D2D"/>
<ellipse cx="450.792" cy="814.379" rx="3.33577" ry="3.55613" fill="#4A9D2D"/>
<ellipse cx="1091.26" cy="814.379" rx="3.33577" ry="3.55613" fill="#4A9D2D"/>
<ellipse cx="290.675" cy="814.379" rx="3.33577" ry="3.55613" fill="#4A9D2D"/>
<ellipse cx="931.144" cy="814.379" rx="3.33577" ry="3.55613" fill="#4A9D2D"/>
<ellipse cx="610.909" cy="814.379" rx="3.33577" ry="3.55613" fill="#4A9D2D"/>
<ellipse cx="1251.38" cy="814.379" rx="3.33577" ry="3.55613" fill="#4A9D2D"/>
<ellipse cx="210.617" cy="814.379" rx="3.33577" ry="3.55613" fill="#4A9D2D"/>
<ellipse cx="851.084" cy="814.379" rx="3.33577" ry="3.55613" fill="#4A9D2D"/>
<ellipse cx="530.85" cy="814.379" rx="3.33577" ry="3.55613" fill="#4A9D2D"/>
<ellipse cx="1171.32" cy="814.379" rx="3.33577" ry="3.55613" fill="#4A9D2D"/>
<ellipse cx="370.733" cy="814.379" rx="3.33577" ry="3.55613" fill="#4A9D2D"/>
<ellipse cx="1011.2" cy="814.379" rx="3.33577" ry="3.55613" fill="#4A9D2D"/>
<ellipse cx="690.97" cy="814.379" rx="3.33577" ry="3.55613" fill="#4A9D2D"/>
<ellipse cx="1331.44" cy="814.379" rx="3.33577" ry="3.55613" fill="#4A9D2D"/>
<ellipse cx="170.585" cy="814.379" rx="3.33577" ry="3.55613" fill="#4A9D2D"/>
<ellipse cx="811.057" cy="814.379" rx="3.33577" ry="3.55613" fill="#4A9D2D"/>
<ellipse cx="490.821" cy="814.379" rx="3.33577" ry="3.55613" fill="#4A9D2D"/>
<ellipse cx="1131.29" cy="814.379" rx="3.33577" ry="3.55613" fill="#4A9D2D"/>
<ellipse cx="330.704" cy="814.379" rx="3.33577" ry="3.55613" fill="#4A9D2D"/>
<ellipse cx="971.172" cy="814.379" rx="3.33577" ry="3.55613" fill="#4A9D2D"/>
<ellipse cx="650.938" cy="814.379" rx="3.33577" ry="3.55613" fill="#4A9D2D"/>
<ellipse cx="1291.41" cy="814.379" rx="3.33577" ry="3.55613" fill="#4A9D2D"/>
<ellipse cx="250.646" cy="814.379" rx="3.33577" ry="3.55613" fill="#4A9D2D"/>
<ellipse cx="891.113" cy="814.379" rx="3.33577" ry="3.55613" fill="#4A9D2D"/>
<ellipse cx="570.88" cy="814.379" rx="3.33577" ry="3.55613" fill="#4A9D2D"/>
<ellipse cx="1211.35" cy="814.379" rx="3.33577" ry="3.55613" fill="#4A9D2D"/>
<ellipse cx="410.764" cy="814.379" rx="3.33577" ry="3.55613" fill="#4A9D2D"/>
<ellipse cx="1051.23" cy="814.379" rx="3.33577" ry="3.55613" fill="#4A9D2D"/>
<ellipse cx="730.996" cy="814.379" rx="3.33577" ry="3.55613" fill="#4A9D2D"/>
<ellipse cx="130.558" cy="857.055" rx="3.33577" ry="3.55613" fill="#4A9D2D"/>
<ellipse cx="771.025" cy="857.055" rx="3.33577" ry="3.55613" fill="#4A9D2D"/>
<ellipse cx="450.793" cy="857.055" rx="3.33577" ry="3.55613" fill="#4A9D2D"/>
<ellipse cx="1091.26" cy="857.055" rx="3.33577" ry="3.55613" fill="#4A9D2D"/>
<ellipse cx="290.675" cy="857.055" rx="3.33577" ry="3.55613" fill="#4A9D2D"/>
<ellipse cx="931.144" cy="857.055" rx="3.33577" ry="3.55613" fill="#4A9D2D"/>
<ellipse cx="610.909" cy="857.055" rx="3.33577" ry="3.55613" fill="#4A9D2D"/>
<ellipse cx="1251.38" cy="857.055" rx="3.33577" ry="3.55613" fill="#4A9D2D"/>
<ellipse cx="210.617" cy="857.055" rx="3.33577" ry="3.55613" fill="#4A9D2D"/>
<ellipse cx="851.084" cy="857.055" rx="3.33577" ry="3.55613" fill="#4A9D2D"/>
<ellipse cx="530.85" cy="857.055" rx="3.33577" ry="3.55613" fill="#4A9D2D"/>
<ellipse cx="1171.32" cy="857.055" rx="3.33577" ry="3.55613" fill="#4A9D2D"/>
<ellipse cx="370.733" cy="857.055" rx="3.33577" ry="3.55613" fill="#4A9D2D"/>
<ellipse cx="1011.2" cy="857.055" rx="3.33577" ry="3.55613" fill="#4A9D2D"/>
<ellipse cx="690.97" cy="857.055" rx="3.33577" ry="3.55613" fill="#4A9D2D"/>
<ellipse cx="1331.44" cy="857.055" rx="3.33577" ry="3.55613" fill="#4A9D2D"/>
<ellipse cx="170.585" cy="857.055" rx="3.33577" ry="3.55613" fill="#4A9D2D"/>
<ellipse cx="811.057" cy="857.055" rx="3.33577" ry="3.55613" fill="#4A9D2D"/>
<ellipse cx="490.821" cy="857.055" rx="3.33577" ry="3.55613" fill="#4A9D2D"/>
<ellipse cx="1131.29" cy="857.055" rx="3.33577" ry="3.55613" fill="#4A9D2D"/>
<ellipse cx="330.704" cy="857.055" rx="3.33577" ry="3.55613" fill="#4A9D2D"/>
<ellipse cx="971.172" cy="857.055" rx="3.33577" ry="3.55613" fill="#4A9D2D"/>
<ellipse cx="650.938" cy="857.055" rx="3.33577" ry="3.55613" fill="#4A9D2D"/>
<ellipse cx="1291.41" cy="857.055" rx="3.33577" ry="3.55613" fill="#4A9D2D"/>
<ellipse cx="250.646" cy="857.055" rx="3.33577" ry="3.55613" fill="#4A9D2D"/>
<ellipse cx="891.113" cy="857.055" rx="3.33577" ry="3.55613" fill="#4A9D2D"/>
<ellipse cx="570.88" cy="857.055" rx="3.33577" ry="3.55613" fill="#4A9D2D"/>
<ellipse cx="1211.35" cy="857.055" rx="3.33577" ry="3.55613" fill="#4A9D2D"/>
<ellipse cx="410.764" cy="857.055" rx="3.33577" ry="3.55613" fill="#4A9D2D"/>
<ellipse cx="1051.23" cy="857.055" rx="3.33577" ry="3.55613" fill="#4A9D2D"/>
<ellipse cx="730.996" cy="857.055" rx="3.33577" ry="3.55613" fill="#4A9D2D"/>
<ellipse cx="130.558" cy="899.727" rx="3.33577" ry="3.55613" fill="#4A9D2D"/>
<ellipse cx="771.025" cy="899.727" rx="3.33577" ry="3.55613" fill="#4A9D2D"/>
<ellipse cx="450.792" cy="899.727" rx="3.33577" ry="3.55613" fill="#4A9D2D"/>
<ellipse cx="1091.26" cy="899.727" rx="3.33577" ry="3.55613" fill="#4A9D2D"/>
<ellipse cx="290.675" cy="899.727" rx="3.33577" ry="3.55613" fill="#4A9D2D"/>
<ellipse cx="931.144" cy="899.727" rx="3.33577" ry="3.55613" fill="#4A9D2D"/>
<ellipse cx="610.909" cy="899.727" rx="3.33577" ry="3.55613" fill="#4A9D2D"/>
<ellipse cx="1251.38" cy="899.727" rx="3.33577" ry="3.55613" fill="#4A9D2D"/>
<ellipse cx="210.617" cy="899.727" rx="3.33577" ry="3.55613" fill="#4A9D2D"/>
<ellipse cx="851.084" cy="899.727" rx="3.33577" ry="3.55613" fill="#4A9D2D"/>
<ellipse cx="530.85" cy="899.727" rx="3.33577" ry="3.55613" fill="#4A9D2D"/>
<ellipse cx="1171.32" cy="899.727" rx="3.33577" ry="3.55613" fill="#4A9D2D"/>
<ellipse cx="370.733" cy="899.727" rx="3.33577" ry="3.55613" fill="#4A9D2D"/>
<ellipse cx="1011.2" cy="899.727" rx="3.33577" ry="3.55613" fill="#4A9D2D"/>
<ellipse cx="690.97" cy="899.727" rx="3.33577" ry="3.55613" fill="#4A9D2D"/>
<ellipse cx="1331.44" cy="899.727" rx="3.33577" ry="3.55613" fill="#4A9D2D"/>
<ellipse cx="170.585" cy="899.727" rx="3.33577" ry="3.55613" fill="#4A9D2D"/>
<ellipse cx="811.057" cy="899.727" rx="3.33577" ry="3.55613" fill="#4A9D2D"/>
<ellipse cx="490.821" cy="899.727" rx="3.33577" ry="3.55613" fill="#4A9D2D"/>
<ellipse cx="1131.29" cy="899.727" rx="3.33577" ry="3.55613" fill="#4A9D2D"/>
<ellipse cx="330.704" cy="899.727" rx="3.33577" ry="3.55613" fill="#4A9D2D"/>
<ellipse cx="971.172" cy="899.727" rx="3.33577" ry="3.55613" fill="#4A9D2D"/>
<ellipse cx="650.938" cy="899.727" rx="3.33577" ry="3.55613" fill="#4A9D2D"/>
<ellipse cx="1291.41" cy="899.727" rx="3.33577" ry="3.55613" fill="#4A9D2D"/>
<ellipse cx="250.646" cy="899.727" rx="3.33577" ry="3.55613" fill="#4A9D2D"/>
<ellipse cx="891.113" cy="899.727" rx="3.33577" ry="3.55613" fill="#4A9D2D"/>
<ellipse cx="570.88" cy="899.727" rx="3.33577" ry="3.55613" fill="#4A9D2D"/>
<ellipse cx="1211.35" cy="899.727" rx="3.33577" ry="3.55613" fill="#4A9D2D"/>
<ellipse cx="410.764" cy="899.727" rx="3.33577" ry="3.55613" fill="#4A9D2D"/>
<ellipse cx="1051.23" cy="899.727" rx="3.33577" ry="3.55613" fill="#4A9D2D"/>
<ellipse cx="730.996" cy="899.727" rx="3.33577" ry="3.55613" fill="#4A9D2D"/>
<ellipse cx="130.558" cy="942.401" rx="3.33577" ry="3.55613" fill="#4A9D2D"/>
<ellipse cx="771.025" cy="942.401" rx="3.33577" ry="3.55613" fill="#4A9D2D"/>
<ellipse cx="450.793" cy="942.401" rx="3.33577" ry="3.55613" fill="#4A9D2D"/>
<ellipse cx="1091.26" cy="942.401" rx="3.33577" ry="3.55613" fill="#4A9D2D"/>
<ellipse cx="290.675" cy="942.401" rx="3.33577" ry="3.55613" fill="#4A9D2D"/>
<ellipse cx="931.144" cy="942.401" rx="3.33577" ry="3.55613" fill="#4A9D2D"/>
<ellipse cx="610.909" cy="942.401" rx="3.33577" ry="3.55613" fill="#4A9D2D"/>
<ellipse cx="1251.38" cy="942.401" rx="3.33577" ry="3.55613" fill="#4A9D2D"/>
<ellipse cx="210.617" cy="942.401" rx="3.33577" ry="3.55613" fill="#4A9D2D"/>
<ellipse cx="851.084" cy="942.401" rx="3.33577" ry="3.55613" fill="#4A9D2D"/>
<ellipse cx="530.85" cy="942.401" rx="3.33577" ry="3.55613" fill="#4A9D2D"/>
<ellipse cx="1171.32" cy="942.401" rx="3.33577" ry="3.55613" fill="#4A9D2D"/>
<ellipse cx="370.733" cy="942.401" rx="3.33577" ry="3.55613" fill="#4A9D2D"/>
<ellipse cx="1011.2" cy="942.401" rx="3.33577" ry="3.55613" fill="#4A9D2D"/>
<ellipse cx="690.97" cy="942.401" rx="3.33577" ry="3.55613" fill="#4A9D2D"/>
<ellipse cx="1331.44" cy="942.401" rx="3.33577" ry="3.55613" fill="#4A9D2D"/>
<ellipse cx="170.585" cy="942.401" rx="3.33577" ry="3.55613" fill="#4A9D2D"/>
<ellipse cx="811.057" cy="942.401" rx="3.33577" ry="3.55613" fill="#4A9D2D"/>
<ellipse cx="490.821" cy="942.401" rx="3.33577" ry="3.55613" fill="#4A9D2D"/>
<ellipse cx="1131.29" cy="942.401" rx="3.33577" ry="3.55613" fill="#4A9D2D"/>
<ellipse cx="330.704" cy="942.401" rx="3.33577" ry="3.55613" fill="#4A9D2D"/>
<ellipse cx="971.172" cy="942.401" rx="3.33577" ry="3.55613" fill="#4A9D2D"/>
<ellipse cx="650.938" cy="942.401" rx="3.33577" ry="3.55613" fill="#4A9D2D"/>
<ellipse cx="1291.41" cy="942.401" rx="3.33577" ry="3.55613" fill="#4A9D2D"/>
<ellipse cx="250.646" cy="942.401" rx="3.33577" ry="3.55613" fill="#4A9D2D"/>
<ellipse cx="891.113" cy="942.401" rx="3.33577" ry="3.55613" fill="#4A9D2D"/>
<ellipse cx="570.88" cy="942.401" rx="3.33577" ry="3.55613" fill="#4A9D2D"/>
<ellipse cx="1211.35" cy="942.401" rx="3.33577" ry="3.55613" fill="#4A9D2D"/>
<ellipse cx="410.764" cy="942.401" rx="3.33577" ry="3.55613" fill="#4A9D2D"/>
<ellipse cx="1051.23" cy="942.401" rx="3.33577" ry="3.55613" fill="#4A9D2D"/>
<ellipse cx="730.996" cy="942.401" rx="3.33577" ry="3.55613" fill="#4A9D2D"/>
<ellipse cx="130.558" cy="985.069" rx="3.33577" ry="3.55613" fill="#4A9D2D"/>
<ellipse cx="771.025" cy="985.069" rx="3.33577" ry="3.55613" fill="#4A9D2D"/>
<ellipse cx="450.793" cy="985.069" rx="3.33577" ry="3.55613" fill="#4A9D2D"/>
<ellipse cx="1091.26" cy="985.069" rx="3.33577" ry="3.55613" fill="#4A9D2D"/>
<ellipse cx="290.675" cy="985.069" rx="3.33577" ry="3.55613" fill="#4A9D2D"/>
<ellipse cx="931.144" cy="985.069" rx="3.33577" ry="3.55613" fill="#4A9D2D"/>
<ellipse cx="610.909" cy="985.069" rx="3.33577" ry="3.55613" fill="#4A9D2D"/>
<ellipse cx="1251.38" cy="985.069" rx="3.33577" ry="3.55613" fill="#4A9D2D"/>
<ellipse cx="210.617" cy="985.069" rx="3.33577" ry="3.55613" fill="#4A9D2D"/>
<ellipse cx="851.084" cy="985.069" rx="3.33577" ry="3.55613" fill="#4A9D2D"/>
<ellipse cx="530.85" cy="985.069" rx="3.33577" ry="3.55613" fill="#4A9D2D"/>
<ellipse cx="1171.32" cy="985.069" rx="3.33577" ry="3.55613" fill="#4A9D2D"/>
<ellipse cx="370.733" cy="985.069" rx="3.33577" ry="3.55613" fill="#4A9D2D"/>
<ellipse cx="1011.2" cy="985.069" rx="3.33577" ry="3.55613" fill="#4A9D2D"/>
<ellipse cx="690.97" cy="985.069" rx="3.33577" ry="3.55613" fill="#4A9D2D"/>
<ellipse cx="1331.44" cy="985.069" rx="3.33577" ry="3.55613" fill="#4A9D2D"/>
<ellipse cx="170.585" cy="985.069" rx="3.33577" ry="3.55613" fill="#4A9D2D"/>
<ellipse cx="811.057" cy="985.069" rx="3.33577" ry="3.55613" fill="#4A9D2D"/>
<ellipse cx="490.821" cy="985.069" rx="3.33577" ry="3.55613" fill="#4A9D2D"/>
<ellipse cx="1131.29" cy="985.069" rx="3.33577" ry="3.55613" fill="#4A9D2D"/>
<ellipse cx="330.704" cy="985.069" rx="3.33577" ry="3.55613" fill="#4A9D2D"/>
<ellipse cx="971.172" cy="985.069" rx="3.33577" ry="3.55613" fill="#4A9D2D"/>
<ellipse cx="650.938" cy="985.069" rx="3.33577" ry="3.55613" fill="#4A9D2D"/>
<ellipse cx="1291.41" cy="985.069" rx="3.33577" ry="3.55613" fill="#4A9D2D"/>
<ellipse cx="250.645" cy="985.069" rx="3.33577" ry="3.55613" fill="#4A9D2D"/>
<ellipse cx="891.113" cy="985.069" rx="3.33577" ry="3.55613" fill="#4A9D2D"/>
<ellipse cx="570.88" cy="985.069" rx="3.33577" ry="3.55613" fill="#4A9D2D"/>
<ellipse cx="1211.35" cy="985.069" rx="3.33577" ry="3.55613" fill="#4A9D2D"/>
<ellipse cx="410.764" cy="985.069" rx="3.33577" ry="3.55613" fill="#4A9D2D"/>
<ellipse cx="1051.23" cy="985.069" rx="3.33577" ry="3.55613" fill="#4A9D2D"/>
<ellipse cx="730.996" cy="985.069" rx="3.33577" ry="3.55613" fill="#4A9D2D"/>
<ellipse cx="130.558" cy="1027.75" rx="3.33577" ry="3.55613" fill="#4A9D2D"/>
<ellipse cx="771.025" cy="1027.75" rx="3.33577" ry="3.55613" fill="#4A9D2D"/>
<ellipse cx="450.793" cy="1027.75" rx="3.33577" ry="3.55613" fill="#4A9D2D"/>
<ellipse cx="1091.26" cy="1027.75" rx="3.33577" ry="3.55613" fill="#4A9D2D"/>
<ellipse cx="290.675" cy="1027.75" rx="3.33577" ry="3.55613" fill="#4A9D2D"/>
<ellipse cx="931.144" cy="1027.75" rx="3.33577" ry="3.55613" fill="#4A9D2D"/>
<ellipse cx="610.909" cy="1027.75" rx="3.33577" ry="3.55613" fill="#4A9D2D"/>
<ellipse cx="1251.38" cy="1027.75" rx="3.33577" ry="3.55613" fill="#4A9D2D"/>
<ellipse cx="210.617" cy="1027.75" rx="3.33577" ry="3.55613" fill="#4A9D2D"/>
<ellipse cx="851.084" cy="1027.75" rx="3.33577" ry="3.55613" fill="#4A9D2D"/>
<ellipse cx="530.85" cy="1027.75" rx="3.33577" ry="3.55613" fill="#4A9D2D"/>
<ellipse cx="1171.32" cy="1027.75" rx="3.33577" ry="3.55613" fill="#4A9D2D"/>
<ellipse cx="370.733" cy="1027.75" rx="3.33577" ry="3.55613" fill="#4A9D2D"/>
<ellipse cx="1011.2" cy="1027.75" rx="3.33577" ry="3.55613" fill="#4A9D2D"/>
<ellipse cx="690.97" cy="1027.75" rx="3.33577" ry="3.55613" fill="#4A9D2D"/>
<ellipse cx="1331.44" cy="1027.75" rx="3.33577" ry="3.55613" fill="#4A9D2D"/>
<ellipse cx="170.585" cy="1027.75" rx="3.33577" ry="3.55613" fill="#4A9D2D"/>
<ellipse cx="811.057" cy="1027.75" rx="3.33577" ry="3.55613" fill="#4A9D2D"/>
<ellipse cx="490.821" cy="1027.75" rx="3.33577" ry="3.55613" fill="#4A9D2D"/>
<ellipse cx="1131.29" cy="1027.75" rx="3.33577" ry="3.55613" fill="#4A9D2D"/>
<ellipse cx="330.704" cy="1027.75" rx="3.33577" ry="3.55613" fill="#4A9D2D"/>
<ellipse cx="971.172" cy="1027.75" rx="3.33577" ry="3.55613" fill="#4A9D2D"/>
<ellipse cx="650.938" cy="1027.75" rx="3.33577" ry="3.55613" fill="#4A9D2D"/>
<ellipse cx="1291.41" cy="1027.75" rx="3.33577" ry="3.55613" fill="#4A9D2D"/>
<ellipse cx="250.646" cy="1027.75" rx="3.33577" ry="3.55613" fill="#4A9D2D"/>
<ellipse cx="891.113" cy="1027.75" rx="3.33577" ry="3.55613" fill="#4A9D2D"/>
<ellipse cx="570.88" cy="1027.75" rx="3.33577" ry="3.55613" fill="#4A9D2D"/>
<ellipse cx="1211.35" cy="1027.75" rx="3.33577" ry="3.55613" fill="#4A9D2D"/>
<ellipse cx="410.764" cy="1027.75" rx="3.33577" ry="3.55613" fill="#4A9D2D"/>
<ellipse cx="1051.23" cy="1027.75" rx="3.33577" ry="3.55613" fill="#4A9D2D"/>
<ellipse cx="730.996" cy="1027.75" rx="3.33577" ry="3.55613" fill="#4A9D2D"/>
<ellipse cx="130.558" cy="1070.42" rx="3.33577" ry="3.55613" fill="#4A9D2D"/>
<ellipse cx="771.025" cy="1070.42" rx="3.33577" ry="3.55613" fill="#4A9D2D"/>
<ellipse cx="450.792" cy="1070.42" rx="3.33577" ry="3.55613" fill="#4A9D2D"/>
<ellipse cx="1091.26" cy="1070.42" rx="3.33577" ry="3.55613" fill="#4A9D2D"/>
<ellipse cx="290.675" cy="1070.42" rx="3.33577" ry="3.55613" fill="#4A9D2D"/>
<ellipse cx="931.144" cy="1070.42" rx="3.33577" ry="3.55613" fill="#4A9D2D"/>
<ellipse cx="610.909" cy="1070.42" rx="3.33577" ry="3.55613" fill="#4A9D2D"/>
<ellipse cx="1251.38" cy="1070.42" rx="3.33577" ry="3.55613" fill="#4A9D2D"/>
<ellipse cx="210.617" cy="1070.42" rx="3.33577" ry="3.55613" fill="#4A9D2D"/>
<ellipse cx="851.084" cy="1070.42" rx="3.33577" ry="3.55613" fill="#4A9D2D"/>
<ellipse cx="530.85" cy="1070.42" rx="3.33577" ry="3.55613" fill="#4A9D2D"/>
<ellipse cx="1171.32" cy="1070.42" rx="3.33577" ry="3.55613" fill="#4A9D2D"/>
<ellipse cx="370.733" cy="1070.42" rx="3.33577" ry="3.55613" fill="#4A9D2D"/>
<ellipse cx="1011.2" cy="1070.42" rx="3.33577" ry="3.55613" fill="#4A9D2D"/>
<ellipse cx="690.97" cy="1070.42" rx="3.33577" ry="3.55613" fill="#4A9D2D"/>
<ellipse cx="1331.44" cy="1070.42" rx="3.33577" ry="3.55613" fill="#4A9D2D"/>
<ellipse cx="170.585" cy="1070.42" rx="3.33577" ry="3.55613" fill="#4A9D2D"/>
<ellipse cx="811.057" cy="1070.42" rx="3.33577" ry="3.55613" fill="#4A9D2D"/>
<ellipse cx="490.821" cy="1070.42" rx="3.33577" ry="3.55613" fill="#4A9D2D"/>
<ellipse cx="1131.29" cy="1070.42" rx="3.33577" ry="3.55613" fill="#4A9D2D"/>
<ellipse cx="330.704" cy="1070.42" rx="3.33577" ry="3.55613" fill="#4A9D2D"/>
<ellipse cx="971.172" cy="1070.42" rx="3.33577" ry="3.55613" fill="#4A9D2D"/>
<ellipse cx="650.938" cy="1070.42" rx="3.33577" ry="3.55613" fill="#4A9D2D"/>
<ellipse cx="1291.41" cy="1070.42" rx="3.33577" ry="3.55613" fill="#4A9D2D"/>
<ellipse cx="250.646" cy="1070.42" rx="3.33577" ry="3.55613" fill="#4A9D2D"/>
<ellipse cx="891.113" cy="1070.42" rx="3.33577" ry="3.55613" fill="#4A9D2D"/>
<ellipse cx="570.88" cy="1070.42" rx="3.33577" ry="3.55613" fill="#4A9D2D"/>
<ellipse cx="1211.35" cy="1070.42" rx="3.33577" ry="3.55613" fill="#4A9D2D"/>
<ellipse cx="410.764" cy="1070.42" rx="3.33577" ry="3.55613" fill="#4A9D2D"/>
<ellipse cx="1051.23" cy="1070.42" rx="3.33577" ry="3.55613" fill="#4A9D2D"/>
<ellipse cx="730.996" cy="1070.42" rx="3.33577" ry="3.55613" fill="#4A9D2D"/>
<ellipse cx="130.558" cy="1113.09" rx="3.33577" ry="3.55613" fill="#4A9D2D"/>
<ellipse cx="771.025" cy="1113.09" rx="3.33577" ry="3.55613" fill="#4A9D2D"/>
<ellipse cx="450.792" cy="1113.09" rx="3.33577" ry="3.55613" fill="#4A9D2D"/>
<ellipse cx="1091.26" cy="1113.09" rx="3.33577" ry="3.55613" fill="#4A9D2D"/>
<ellipse cx="290.675" cy="1113.09" rx="3.33577" ry="3.55613" fill="#4A9D2D"/>
<ellipse cx="931.144" cy="1113.09" rx="3.33577" ry="3.55613" fill="#4A9D2D"/>
<ellipse cx="610.909" cy="1113.09" rx="3.33577" ry="3.55613" fill="#4A9D2D"/>
<ellipse cx="1251.38" cy="1113.09" rx="3.33577" ry="3.55613" fill="#4A9D2D"/>
<ellipse cx="210.617" cy="1113.09" rx="3.33577" ry="3.55613" fill="#4A9D2D"/>
<ellipse cx="851.084" cy="1113.09" rx="3.33577" ry="3.55613" fill="#4A9D2D"/>
<ellipse cx="530.85" cy="1113.09" rx="3.33577" ry="3.55613" fill="#4A9D2D"/>
<ellipse cx="1171.32" cy="1113.09" rx="3.33577" ry="3.55613" fill="#4A9D2D"/>
<ellipse cx="370.733" cy="1113.09" rx="3.33577" ry="3.55613" fill="#4A9D2D"/>
<ellipse cx="1011.2" cy="1113.09" rx="3.33577" ry="3.55613" fill="#4A9D2D"/>
<ellipse cx="690.97" cy="1113.09" rx="3.33577" ry="3.55613" fill="#4A9D2D"/>
<ellipse cx="1331.44" cy="1113.09" rx="3.33577" ry="3.55613" fill="#4A9D2D"/>
<ellipse cx="170.585" cy="1113.09" rx="3.33577" ry="3.55613" fill="#4A9D2D"/>
<ellipse cx="811.057" cy="1113.09" rx="3.33577" ry="3.55613" fill="#4A9D2D"/>
<ellipse cx="490.821" cy="1113.09" rx="3.33577" ry="3.55613" fill="#4A9D2D"/>
<ellipse cx="1131.29" cy="1113.09" rx="3.33577" ry="3.55613" fill="#4A9D2D"/>
<ellipse cx="330.704" cy="1113.09" rx="3.33577" ry="3.55613" fill="#4A9D2D"/>
<ellipse cx="971.172" cy="1113.09" rx="3.33577" ry="3.55613" fill="#4A9D2D"/>
<ellipse cx="650.938" cy="1113.09" rx="3.33577" ry="3.55613" fill="#4A9D2D"/>
<ellipse cx="1291.41" cy="1113.09" rx="3.33577" ry="3.55613" fill="#4A9D2D"/>
<ellipse cx="250.645" cy="1113.09" rx="3.33577" ry="3.55613" fill="#4A9D2D"/>
<ellipse cx="891.113" cy="1113.09" rx="3.33577" ry="3.55613" fill="#4A9D2D"/>
<ellipse cx="570.88" cy="1113.09" rx="3.33577" ry="3.55613" fill="#4A9D2D"/>
<ellipse cx="1211.35" cy="1113.09" rx="3.33577" ry="3.55613" fill="#4A9D2D"/>
<ellipse cx="410.763" cy="1113.09" rx="3.33577" ry="3.55613" fill="#4A9D2D"/>
<ellipse cx="1051.23" cy="1113.09" rx="3.33577" ry="3.55613" fill="#4A9D2D"/>
<ellipse cx="730.996" cy="1113.09" rx="3.33577" ry="3.55613" fill="#4A9D2D"/>
<ellipse cx="130.558" cy="1155.77" rx="3.33577" ry="3.55613" fill="#4A9D2D"/>
<ellipse cx="771.025" cy="1155.77" rx="3.33577" ry="3.55613" fill="#4A9D2D"/>
<ellipse cx="450.792" cy="1155.77" rx="3.33577" ry="3.55613" fill="#4A9D2D"/>
<ellipse cx="1091.26" cy="1155.77" rx="3.33577" ry="3.55613" fill="#4A9D2D"/>
<ellipse cx="290.675" cy="1155.77" rx="3.33577" ry="3.55613" fill="#4A9D2D"/>
<ellipse cx="931.144" cy="1155.77" rx="3.33577" ry="3.55613" fill="#4A9D2D"/>
<ellipse cx="610.909" cy="1155.77" rx="3.33577" ry="3.55613" fill="#4A9D2D"/>
<ellipse cx="1251.38" cy="1155.77" rx="3.33577" ry="3.55613" fill="#4A9D2D"/>
<ellipse cx="210.617" cy="1155.77" rx="3.33577" ry="3.55613" fill="#4A9D2D"/>
<ellipse cx="851.084" cy="1155.77" rx="3.33577" ry="3.55613" fill="#4A9D2D"/>
<ellipse cx="530.85" cy="1155.77" rx="3.33577" ry="3.55613" fill="#4A9D2D"/>
<ellipse cx="1171.32" cy="1155.77" rx="3.33577" ry="3.55613" fill="#4A9D2D"/>
<ellipse cx="370.733" cy="1155.77" rx="3.33577" ry="3.55613" fill="#4A9D2D"/>
<ellipse cx="1011.2" cy="1155.77" rx="3.33577" ry="3.55613" fill="#4A9D2D"/>
<ellipse cx="690.97" cy="1155.77" rx="3.33577" ry="3.55613" fill="#4A9D2D"/>
<ellipse cx="1331.44" cy="1155.77" rx="3.33577" ry="3.55613" fill="#4A9D2D"/>
<ellipse cx="170.585" cy="1155.77" rx="3.33577" ry="3.55613" fill="#4A9D2D"/>
<ellipse cx="811.057" cy="1155.77" rx="3.33577" ry="3.55613" fill="#4A9D2D"/>
<ellipse cx="490.821" cy="1155.77" rx="3.33577" ry="3.55613" fill="#4A9D2D"/>
<ellipse cx="1131.29" cy="1155.77" rx="3.33577" ry="3.55613" fill="#4A9D2D"/>
<ellipse cx="330.704" cy="1155.77" rx="3.33577" ry="3.55613" fill="#4A9D2D"/>
<ellipse cx="971.172" cy="1155.77" rx="3.33577" ry="3.55613" fill="#4A9D2D"/>
<ellipse cx="650.938" cy="1155.77" rx="3.33577" ry="3.55613" fill="#4A9D2D"/>
<ellipse cx="1291.41" cy="1155.77" rx="3.33577" ry="3.55613" fill="#4A9D2D"/>
<ellipse cx="250.645" cy="1155.77" rx="3.33577" ry="3.55613" fill="#4A9D2D"/>
<ellipse cx="891.113" cy="1155.77" rx="3.33577" ry="3.55613" fill="#4A9D2D"/>
<ellipse cx="570.88" cy="1155.77" rx="3.33577" ry="3.55613" fill="#4A9D2D"/>
<ellipse cx="1211.35" cy="1155.77" rx="3.33577" ry="3.55613" fill="#4A9D2D"/>
<ellipse cx="410.763" cy="1155.77" rx="3.33577" ry="3.55613" fill="#4A9D2D"/>
<ellipse cx="1051.23" cy="1155.77" rx="3.33577" ry="3.55613" fill="#4A9D2D"/>
<ellipse cx="730.996" cy="1155.77" rx="3.33577" ry="3.55613" fill="#4A9D2D"/>
<ellipse cx="130.558" cy="1198.44" rx="3.33577" ry="3.55613" fill="#4A9D2D"/>
<ellipse cx="771.025" cy="1198.44" rx="3.33577" ry="3.55613" fill="#4A9D2D"/>
<ellipse cx="450.792" cy="1198.44" rx="3.33577" ry="3.55613" fill="#4A9D2D"/>
<ellipse cx="1091.26" cy="1198.44" rx="3.33577" ry="3.55613" fill="#4A9D2D"/>
<ellipse cx="290.675" cy="1198.44" rx="3.33577" ry="3.55613" fill="#4A9D2D"/>
<ellipse cx="931.144" cy="1198.44" rx="3.33577" ry="3.55613" fill="#4A9D2D"/>
<ellipse cx="610.909" cy="1198.44" rx="3.33577" ry="3.55613" fill="#4A9D2D"/>
<ellipse cx="1251.38" cy="1198.44" rx="3.33577" ry="3.55613" fill="#4A9D2D"/>
<ellipse cx="210.617" cy="1198.44" rx="3.33577" ry="3.55613" fill="#4A9D2D"/>
<ellipse cx="851.084" cy="1198.44" rx="3.33577" ry="3.55613" fill="#4A9D2D"/>
<ellipse cx="530.85" cy="1198.44" rx="3.33577" ry="3.55613" fill="#4A9D2D"/>
<ellipse cx="1171.32" cy="1198.44" rx="3.33577" ry="3.55613" fill="#4A9D2D"/>
<ellipse cx="370.733" cy="1198.44" rx="3.33577" ry="3.55613" fill="#4A9D2D"/>
<ellipse cx="1011.2" cy="1198.44" rx="3.33577" ry="3.55613" fill="#4A9D2D"/>
<ellipse cx="690.97" cy="1198.44" rx="3.33577" ry="3.55613" fill="#4A9D2D"/>
<ellipse cx="1331.44" cy="1198.44" rx="3.33577" ry="3.55613" fill="#4A9D2D"/>
<ellipse cx="170.585" cy="1198.44" rx="3.33577" ry="3.55613" fill="#4A9D2D"/>
<ellipse cx="811.057" cy="1198.44" rx="3.33577" ry="3.55613" fill="#4A9D2D"/>
<ellipse cx="490.821" cy="1198.44" rx="3.33577" ry="3.55613" fill="#4A9D2D"/>
<ellipse cx="1131.29" cy="1198.44" rx="3.33577" ry="3.55613" fill="#4A9D2D"/>
<ellipse cx="330.704" cy="1198.44" rx="3.33577" ry="3.55613" fill="#4A9D2D"/>
<ellipse cx="971.172" cy="1198.44" rx="3.33577" ry="3.55613" fill="#4A9D2D"/>
<ellipse cx="650.938" cy="1198.44" rx="3.33577" ry="3.55613" fill="#4A9D2D"/>
<ellipse cx="1291.41" cy="1198.44" rx="3.33577" ry="3.55613" fill="#4A9D2D"/>
<ellipse cx="250.645" cy="1198.44" rx="3.33577" ry="3.55613" fill="#4A9D2D"/>
<ellipse cx="891.113" cy="1198.44" rx="3.33577" ry="3.55613" fill="#4A9D2D"/>
<ellipse cx="570.88" cy="1198.44" rx="3.33577" ry="3.55613" fill="#4A9D2D"/>
<ellipse cx="1211.35" cy="1198.44" rx="3.33577" ry="3.55613" fill="#4A9D2D"/>
<ellipse cx="410.763" cy="1198.44" rx="3.33577" ry="3.55613" fill="#4A9D2D"/>
<ellipse cx="1051.23" cy="1198.44" rx="3.33577" ry="3.55613" fill="#4A9D2D"/>
<ellipse cx="730.996" cy="1198.44" rx="3.33577" ry="3.55613" fill="#4A9D2D"/>
<ellipse cx="130.558" cy="1241.11" rx="3.33577" ry="3.55613" fill="#4A9D2D"/>
<ellipse cx="771.025" cy="1241.11" rx="3.33577" ry="3.55613" fill="#4A9D2D"/>
<ellipse cx="450.793" cy="1241.11" rx="3.33577" ry="3.55613" fill="#4A9D2D"/>
<ellipse cx="1091.26" cy="1241.11" rx="3.33577" ry="3.55613" fill="#4A9D2D"/>
<ellipse cx="290.675" cy="1241.11" rx="3.33577" ry="3.55613" fill="#4A9D2D"/>
<ellipse cx="931.144" cy="1241.11" rx="3.33577" ry="3.55613" fill="#4A9D2D"/>
<ellipse cx="610.909" cy="1241.11" rx="3.33577" ry="3.55613" fill="#4A9D2D"/>
<ellipse cx="1251.38" cy="1241.11" rx="3.33577" ry="3.55613" fill="#4A9D2D"/>
<ellipse cx="210.617" cy="1241.11" rx="3.33577" ry="3.55613" fill="#4A9D2D"/>
<ellipse cx="851.084" cy="1241.11" rx="3.33577" ry="3.55613" fill="#4A9D2D"/>
<ellipse cx="530.85" cy="1241.11" rx="3.33577" ry="3.55613" fill="#4A9D2D"/>
<ellipse cx="1171.32" cy="1241.11" rx="3.33577" ry="3.55613" fill="#4A9D2D"/>
<ellipse cx="370.733" cy="1241.11" rx="3.33577" ry="3.55613" fill="#4A9D2D"/>
<ellipse cx="1011.2" cy="1241.11" rx="3.33577" ry="3.55613" fill="#4A9D2D"/>
<ellipse cx="690.97" cy="1241.11" rx="3.33577" ry="3.55613" fill="#4A9D2D"/>
<ellipse cx="1331.44" cy="1241.11" rx="3.33577" ry="3.55613" fill="#4A9D2D"/>
<ellipse cx="170.585" cy="1241.11" rx="3.33577" ry="3.55613" fill="#4A9D2D"/>
<ellipse cx="811.057" cy="1241.11" rx="3.33577" ry="3.55613" fill="#4A9D2D"/>
<ellipse cx="490.821" cy="1241.11" rx="3.33577" ry="3.55613" fill="#4A9D2D"/>
<ellipse cx="1131.29" cy="1241.11" rx="3.33577" ry="3.55613" fill="#4A9D2D"/>
<ellipse cx="330.704" cy="1241.11" rx="3.33577" ry="3.55613" fill="#4A9D2D"/>
<ellipse cx="971.172" cy="1241.11" rx="3.33577" ry="3.55613" fill="#4A9D2D"/>
<ellipse cx="650.938" cy="1241.11" rx="3.33577" ry="3.55613" fill="#4A9D2D"/>
<ellipse cx="1291.41" cy="1241.11" rx="3.33577" ry="3.55613" fill="#4A9D2D"/>
<ellipse cx="250.646" cy="1241.11" rx="3.33577" ry="3.55613" fill="#4A9D2D"/>
<ellipse cx="891.113" cy="1241.11" rx="3.33577" ry="3.55613" fill="#4A9D2D"/>
<ellipse cx="570.88" cy="1241.11" rx="3.33577" ry="3.55613" fill="#4A9D2D"/>
<ellipse cx="1211.35" cy="1241.11" rx="3.33577" ry="3.55613" fill="#4A9D2D"/>
<ellipse cx="410.764" cy="1241.11" rx="3.33577" ry="3.55613" fill="#4A9D2D"/>
<ellipse cx="1051.23" cy="1241.11" rx="3.33577" ry="3.55613" fill="#4A9D2D"/>
<ellipse cx="730.996" cy="1241.11" rx="3.33577" ry="3.55613" fill="#4A9D2D"/>
<ellipse cx="130.558" cy="1283.79" rx="3.33577" ry="3.55613" fill="#4A9D2D"/>
<ellipse cx="771.025" cy="1283.79" rx="3.33577" ry="3.55613" fill="#4A9D2D"/>
<ellipse cx="450.792" cy="1283.79" rx="3.33577" ry="3.55613" fill="#4A9D2D"/>
<ellipse cx="1091.26" cy="1283.79" rx="3.33577" ry="3.55613" fill="#4A9D2D"/>
<ellipse cx="290.675" cy="1283.79" rx="3.33577" ry="3.55613" fill="#4A9D2D"/>
<ellipse cx="931.144" cy="1283.79" rx="3.33577" ry="3.55613" fill="#4A9D2D"/>
<ellipse cx="610.909" cy="1283.79" rx="3.33577" ry="3.55613" fill="#4A9D2D"/>
<ellipse cx="1251.38" cy="1283.79" rx="3.33577" ry="3.55613" fill="#4A9D2D"/>
<ellipse cx="210.617" cy="1283.79" rx="3.33577" ry="3.55613" fill="#4A9D2D"/>
<ellipse cx="851.084" cy="1283.79" rx="3.33577" ry="3.55613" fill="#4A9D2D"/>
<ellipse cx="530.85" cy="1283.79" rx="3.33577" ry="3.55613" fill="#4A9D2D"/>
<ellipse cx="1171.32" cy="1283.79" rx="3.33577" ry="3.55613" fill="#4A9D2D"/>
<ellipse cx="370.733" cy="1283.79" rx="3.33577" ry="3.55613" fill="#4A9D2D"/>
<ellipse cx="1011.2" cy="1283.79" rx="3.33577" ry="3.55613" fill="#4A9D2D"/>
<ellipse cx="690.97" cy="1283.79" rx="3.33577" ry="3.55613" fill="#4A9D2D"/>
<ellipse cx="1331.44" cy="1283.79" rx="3.33577" ry="3.55613" fill="#4A9D2D"/>
<ellipse cx="170.585" cy="1283.79" rx="3.33577" ry="3.55613" fill="#4A9D2D"/>
<ellipse cx="811.057" cy="1283.79" rx="3.33577" ry="3.55613" fill="#4A9D2D"/>
<ellipse cx="490.821" cy="1283.79" rx="3.33577" ry="3.55613" fill="#4A9D2D"/>
<ellipse cx="1131.29" cy="1283.79" rx="3.33577" ry="3.55613" fill="#4A9D2D"/>
<ellipse cx="330.704" cy="1283.79" rx="3.33577" ry="3.55613" fill="#4A9D2D"/>
<ellipse cx="971.172" cy="1283.79" rx="3.33577" ry="3.55613" fill="#4A9D2D"/>
<ellipse cx="650.938" cy="1283.79" rx="3.33577" ry="3.55613" fill="#4A9D2D"/>
<ellipse cx="1291.41" cy="1283.79" rx="3.33577" ry="3.55613" fill="#4A9D2D"/>
<ellipse cx="250.645" cy="1283.79" rx="3.33577" ry="3.55613" fill="#4A9D2D"/>
<ellipse cx="891.113" cy="1283.79" rx="3.33577" ry="3.55613" fill="#4A9D2D"/>
<ellipse cx="570.88" cy="1283.79" rx="3.33577" ry="3.55613" fill="#4A9D2D"/>
<ellipse cx="1211.35" cy="1283.79" rx="3.33577" ry="3.55613" fill="#4A9D2D"/>
<ellipse cx="410.763" cy="1283.79" rx="3.33577" ry="3.55613" fill="#4A9D2D"/>
<ellipse cx="1051.23" cy="1283.79" rx="3.33577" ry="3.55613" fill="#4A9D2D"/>
<ellipse cx="730.996" cy="1283.79" rx="3.33577" ry="3.55613" fill="#4A9D2D"/>
<ellipse cx="130.558" cy="1326.46" rx="3.33577" ry="3.55613" fill="#4A9D2D"/>
<ellipse cx="771.025" cy="1326.46" rx="3.33577" ry="3.55613" fill="#4A9D2D"/>
<ellipse cx="450.793" cy="1326.46" rx="3.33577" ry="3.55613" fill="#4A9D2D"/>
<ellipse cx="1091.26" cy="1326.46" rx="3.33577" ry="3.55613" fill="#4A9D2D"/>
<ellipse cx="290.675" cy="1326.46" rx="3.33577" ry="3.55613" fill="#4A9D2D"/>
<ellipse cx="931.144" cy="1326.46" rx="3.33577" ry="3.55613" fill="#4A9D2D"/>
<ellipse cx="610.909" cy="1326.46" rx="3.33577" ry="3.55613" fill="#4A9D2D"/>
<ellipse cx="1251.38" cy="1326.46" rx="3.33577" ry="3.55613" fill="#4A9D2D"/>
<ellipse cx="210.617" cy="1326.46" rx="3.33577" ry="3.55613" fill="#4A9D2D"/>
<ellipse cx="851.084" cy="1326.46" rx="3.33577" ry="3.55613" fill="#4A9D2D"/>
<ellipse cx="530.85" cy="1326.46" rx="3.33577" ry="3.55613" fill="#4A9D2D"/>
<ellipse cx="1171.32" cy="1326.46" rx="3.33577" ry="3.55613" fill="#4A9D2D"/>
<ellipse cx="370.733" cy="1326.46" rx="3.33577" ry="3.55613" fill="#4A9D2D"/>
<ellipse cx="1011.2" cy="1326.46" rx="3.33577" ry="3.55613" fill="#4A9D2D"/>
<ellipse cx="690.97" cy="1326.46" rx="3.33577" ry="3.55613" fill="#4A9D2D"/>
<ellipse cx="1331.44" cy="1326.46" rx="3.33577" ry="3.55613" fill="#4A9D2D"/>
<ellipse cx="170.585" cy="1326.46" rx="3.33577" ry="3.55613" fill="#4A9D2D"/>
<ellipse cx="811.057" cy="1326.46" rx="3.33577" ry="3.55613" fill="#4A9D2D"/>
<ellipse cx="490.821" cy="1326.46" rx="3.33577" ry="3.55613" fill="#4A9D2D"/>
<ellipse cx="1131.29" cy="1326.46" rx="3.33577" ry="3.55613" fill="#4A9D2D"/>
<ellipse cx="330.704" cy="1326.46" rx="3.33577" ry="3.55613" fill="#4A9D2D"/>
<ellipse cx="971.172" cy="1326.46" rx="3.33577" ry="3.55613" fill="#4A9D2D"/>
<ellipse cx="650.938" cy="1326.46" rx="3.33577" ry="3.55613" fill="#4A9D2D"/>
<ellipse cx="1291.41" cy="1326.46" rx="3.33577" ry="3.55613" fill="#4A9D2D"/>
<ellipse cx="250.646" cy="1326.46" rx="3.33577" ry="3.55613" fill="#4A9D2D"/>
<ellipse cx="891.113" cy="1326.46" rx="3.33577" ry="3.55613" fill="#4A9D2D"/>
<ellipse cx="570.88" cy="1326.46" rx="3.33577" ry="3.55613" fill="#4A9D2D"/>
<ellipse cx="1211.35" cy="1326.46" rx="3.33577" ry="3.55613" fill="#4A9D2D"/>
<ellipse cx="410.764" cy="1326.46" rx="3.33577" ry="3.55613" fill="#4A9D2D"/>
<ellipse cx="1051.23" cy="1326.46" rx="3.33577" ry="3.55613" fill="#4A9D2D"/>
<ellipse cx="730.996" cy="1326.46" rx="3.33577" ry="3.55613" fill="#4A9D2D"/>
<ellipse cx="130.558" cy="1369.14" rx="3.33577" ry="3.55613" fill="#4A9D2D"/>
<ellipse cx="771.025" cy="1369.14" rx="3.33577" ry="3.55613" fill="#4A9D2D"/>
<ellipse cx="450.792" cy="1369.14" rx="3.33577" ry="3.55613" fill="#4A9D2D"/>
<ellipse cx="1091.26" cy="1369.14" rx="3.33577" ry="3.55613" fill="#4A9D2D"/>
<ellipse cx="290.675" cy="1369.14" rx="3.33577" ry="3.55613" fill="#4A9D2D"/>
<ellipse cx="931.144" cy="1369.14" rx="3.33577" ry="3.55613" fill="#4A9D2D"/>
<ellipse cx="610.909" cy="1369.14" rx="3.33577" ry="3.55613" fill="#4A9D2D"/>
<ellipse cx="1251.38" cy="1369.14" rx="3.33577" ry="3.55613" fill="#4A9D2D"/>
<ellipse cx="210.617" cy="1369.14" rx="3.33577" ry="3.55613" fill="#4A9D2D"/>
<ellipse cx="851.084" cy="1369.14" rx="3.33577" ry="3.55613" fill="#4A9D2D"/>
<ellipse cx="530.85" cy="1369.14" rx="3.33577" ry="3.55613" fill="#4A9D2D"/>
<ellipse cx="1171.32" cy="1369.14" rx="3.33577" ry="3.55613" fill="#4A9D2D"/>
<ellipse cx="370.733" cy="1369.14" rx="3.33577" ry="3.55613" fill="#4A9D2D"/>
<ellipse cx="1011.2" cy="1369.14" rx="3.33577" ry="3.55613" fill="#4A9D2D"/>
<ellipse cx="690.97" cy="1369.14" rx="3.33577" ry="3.55613" fill="#4A9D2D"/>
<ellipse cx="1331.44" cy="1369.14" rx="3.33577" ry="3.55613" fill="#4A9D2D"/>
<ellipse cx="170.585" cy="1369.14" rx="3.33577" ry="3.55613" fill="#4A9D2D"/>
<ellipse cx="811.057" cy="1369.14" rx="3.33577" ry="3.55613" fill="#4A9D2D"/>
<ellipse cx="490.821" cy="1369.14" rx="3.33577" ry="3.55613" fill="#4A9D2D"/>
<ellipse cx="1131.29" cy="1369.14" rx="3.33577" ry="3.55613" fill="#4A9D2D"/>
<ellipse cx="330.704" cy="1369.14" rx="3.33577" ry="3.55613" fill="#4A9D2D"/>
<ellipse cx="971.172" cy="1369.14" rx="3.33577" ry="3.55613" fill="#4A9D2D"/>
<ellipse cx="650.938" cy="1369.14" rx="3.33577" ry="3.55613" fill="#4A9D2D"/>
<ellipse cx="1291.41" cy="1369.14" rx="3.33577" ry="3.55613" fill="#4A9D2D"/>
<ellipse cx="250.645" cy="1369.14" rx="3.33577" ry="3.55613" fill="#4A9D2D"/>
<ellipse cx="891.113" cy="1369.14" rx="3.33577" ry="3.55613" fill="#4A9D2D"/>
<ellipse cx="570.88" cy="1369.14" rx="3.33577" ry="3.55613" fill="#4A9D2D"/>
<ellipse cx="1211.35" cy="1369.14" rx="3.33577" ry="3.55613" fill="#4A9D2D"/>
<ellipse cx="410.763" cy="1369.14" rx="3.33577" ry="3.55613" fill="#4A9D2D"/>
<ellipse cx="1051.23" cy="1369.14" rx="3.33577" ry="3.55613" fill="#4A9D2D"/>
<ellipse cx="730.996" cy="1369.14" rx="3.33577" ry="3.55613" fill="#4A9D2D"/>
<ellipse cx="130.558" cy="1411.81" rx="3.33577" ry="3.55613" fill="#4A9D2D"/>
<ellipse cx="771.025" cy="1411.81" rx="3.33577" ry="3.55613" fill="#4A9D2D"/>
<ellipse cx="450.793" cy="1411.81" rx="3.33577" ry="3.55613" fill="#4A9D2D"/>
<ellipse cx="1091.26" cy="1411.81" rx="3.33577" ry="3.55613" fill="#4A9D2D"/>
<ellipse cx="290.675" cy="1411.81" rx="3.33577" ry="3.55613" fill="#4A9D2D"/>
<ellipse cx="931.144" cy="1411.81" rx="3.33577" ry="3.55613" fill="#4A9D2D"/>
<ellipse cx="610.909" cy="1411.81" rx="3.33577" ry="3.55613" fill="#4A9D2D"/>
<ellipse cx="1251.38" cy="1411.81" rx="3.33577" ry="3.55613" fill="#4A9D2D"/>
<ellipse cx="210.617" cy="1411.81" rx="3.33577" ry="3.55613" fill="#4A9D2D"/>
<ellipse cx="851.084" cy="1411.81" rx="3.33577" ry="3.55613" fill="#4A9D2D"/>
<ellipse cx="530.85" cy="1411.81" rx="3.33577" ry="3.55613" fill="#4A9D2D"/>
<ellipse cx="1171.32" cy="1411.81" rx="3.33577" ry="3.55613" fill="#4A9D2D"/>
<ellipse cx="370.733" cy="1411.81" rx="3.33577" ry="3.55613" fill="#4A9D2D"/>
<ellipse cx="1011.2" cy="1411.81" rx="3.33577" ry="3.55613" fill="#4A9D2D"/>
<ellipse cx="690.97" cy="1411.81" rx="3.33577" ry="3.55613" fill="#4A9D2D"/>
<ellipse cx="1331.44" cy="1411.81" rx="3.33577" ry="3.55613" fill="#4A9D2D"/>
<ellipse cx="170.585" cy="1411.81" rx="3.33577" ry="3.55613" fill="#4A9D2D"/>
<ellipse cx="811.057" cy="1411.81" rx="3.33577" ry="3.55613" fill="#4A9D2D"/>
<ellipse cx="490.821" cy="1411.81" rx="3.33577" ry="3.55613" fill="#4A9D2D"/>
<ellipse cx="1131.29" cy="1411.81" rx="3.33577" ry="3.55613" fill="#4A9D2D"/>
<ellipse cx="330.704" cy="1411.81" rx="3.33577" ry="3.55613" fill="#4A9D2D"/>
<ellipse cx="971.172" cy="1411.81" rx="3.33577" ry="3.55613" fill="#4A9D2D"/>
<ellipse cx="650.938" cy="1411.81" rx="3.33577" ry="3.55613" fill="#4A9D2D"/>
<ellipse cx="1291.41" cy="1411.81" rx="3.33577" ry="3.55613" fill="#4A9D2D"/>
<ellipse cx="250.645" cy="1411.81" rx="3.33577" ry="3.55613" fill="#4A9D2D"/>
<ellipse cx="891.113" cy="1411.81" rx="3.33577" ry="3.55613" fill="#4A9D2D"/>
<ellipse cx="570.88" cy="1411.81" rx="3.33577" ry="3.55613" fill="#4A9D2D"/>
<ellipse cx="1211.35" cy="1411.81" rx="3.33577" ry="3.55613" fill="#4A9D2D"/>
<ellipse cx="410.764" cy="1411.81" rx="3.33577" ry="3.55613" fill="#4A9D2D"/>
<ellipse cx="1051.23" cy="1411.81" rx="3.33577" ry="3.55613" fill="#4A9D2D"/>
<ellipse cx="730.996" cy="1411.81" rx="3.33577" ry="3.55613" fill="#4A9D2D"/>
</g>
</svg>
