<svg width="1080" height="1214" viewBox="0 0 1080 1214" fill="none" xmlns="http://www.w3.org/2000/svg">
<path fill-rule="evenodd" clip-rule="evenodd" d="M957 0.332031V131.669C957 673.167 556.572 1092.33 0 1092.33V968.197C486.182 968.197 832.891 606.471 832.891 131.669V0.332031H957Z" fill="url(#paint0_linear_26359_11659)"/>
<path fill-rule="evenodd" clip-rule="evenodd" d="M957 0.332031V131.669C957 673.167 556.572 1092.33 0 1092.33V968.197C486.182 968.197 832.891 606.471 832.891 131.669V0.332031H957Z" fill="url(#paint1_linear_26359_11659)"/>
<path fill-rule="evenodd" clip-rule="evenodd" d="M955.907 0V98.6714C955.907 664.531 562.905 1089.21 0 1089.21V1213.33C637.068 1213.33 1080 727.312 1080 98.6714V0H955.907Z" fill="url(#paint2_linear_26359_11659)"/>
<path fill-rule="evenodd" clip-rule="evenodd" d="M955.907 0V98.6714C955.907 664.531 562.905 1089.21 0 1089.21V1213.33C637.068 1213.33 1080 727.312 1080 98.6714V0H955.907Z" fill="url(#paint3_linear_26359_11659)"/>
<defs>
<linearGradient id="paint0_linear_26359_11659" x1="93.962" y1="1313.73" x2="825.472" y2="414.229" gradientUnits="userSpaceOnUse">
<stop offset="0.366942" stop-color="#015F01"/>
<stop offset="0.997525" stop-color="#1EAE1E"/>
</linearGradient>
<linearGradient id="paint1_linear_26359_11659" x1="821.451" y1="1178.26" x2="784.848" y2="-29.6286" gradientUnits="userSpaceOnUse">
<stop offset="0.161136" stop-color="#F9A62C"/>
<stop offset="0.997525" stop-color="#FBCA80"/>
<stop offset="0.997625" stop-color="#F9A62C" stop-opacity="0"/>
</linearGradient>
<linearGradient id="paint2_linear_26359_11659" x1="1106.79" y1="258.719" x2="103.849" y2="1009.35" gradientUnits="userSpaceOnUse">
<stop stop-color="#015F01"/>
<stop offset="1" stop-color="#1FAF1F"/>
</linearGradient>
<linearGradient id="paint3_linear_26359_11659" x1="1080" y1="51.4212" x2="35.5498" y2="1250.42" gradientUnits="userSpaceOnUse">
<stop offset="0.0216494" stop-color="#F9A62C"/>
<stop offset="1" stop-color="#FBCA80"/>
</linearGradient>
</defs>
</svg>
