<svg width="1080" height="1214" viewBox="0 0 1080 1214" fill="none" xmlns="http://www.w3.org/2000/svg">
<path fill-rule="evenodd" clip-rule="evenodd" d="M957 0.78125V132.119C957 673.616 556.572 1092.78 0 1092.78V968.646C486.182 968.646 832.891 606.92 832.891 132.119V0.78125H957Z" fill="url(#paint0_linear_26359_11679)"/>
<path fill-rule="evenodd" clip-rule="evenodd" d="M957 0.78125V132.119C957 673.616 556.572 1092.78 0 1092.78V968.646C486.182 968.646 832.891 606.92 832.891 132.119V0.78125H957Z" fill="url(#paint1_linear_26359_11679)"/>
<path fill-rule="evenodd" clip-rule="evenodd" d="M955.907 0.449219V99.1206C955.907 664.98 562.905 1089.66 0 1089.66V1213.78C637.068 1213.78 1080 727.761 1080 99.1206V0.449219H955.907Z" fill="url(#paint2_linear_26359_11679)"/>
<path fill-rule="evenodd" clip-rule="evenodd" d="M955.907 0.449219V99.1206C955.907 664.98 562.905 1089.66 0 1089.66V1213.78C637.068 1213.78 1080 727.761 1080 99.1206V0.449219H955.907Z" fill="url(#paint3_linear_26359_11679)"/>
<defs>
<linearGradient id="paint0_linear_26359_11679" x1="93.962" y1="1314.18" x2="825.472" y2="414.678" gradientUnits="userSpaceOnUse">
<stop offset="0.366942" stop-color="#015F01"/>
<stop offset="0.997525" stop-color="#1EAE1E"/>
</linearGradient>
<linearGradient id="paint1_linear_26359_11679" x1="93.962" y1="1314.18" x2="825.472" y2="414.678" gradientUnits="userSpaceOnUse">
<stop offset="0.366942" stop-color="#128079"/>
<stop offset="0.997525" stop-color="#6CCEC8"/>
</linearGradient>
<linearGradient id="paint2_linear_26359_11679" x1="1106.79" y1="259.168" x2="103.849" y2="1009.8" gradientUnits="userSpaceOnUse">
<stop stop-color="#015F01"/>
<stop offset="1" stop-color="#1FAF1F"/>
</linearGradient>
<linearGradient id="paint3_linear_26359_11679" x1="1106.79" y1="259.168" x2="103.849" y2="1009.8" gradientUnits="userSpaceOnUse">
<stop stop-color="#128079"/>
<stop offset="1" stop-color="#1D9A92"/>
</linearGradient>
</defs>
</svg>
