<svg width="540" height="540" viewBox="0 0 540 540" fill="none" xmlns="http://www.w3.org/2000/svg">
<g clip-path="url(#clip0_2150_36473)">
<path d="M408.345 22.5986C404.657 20.6309 400.305 19.6796 395.653 20.0966L134.782 42.9142C121.49 44.074 110.726 55.789 110.726 69.0808V492.894C110.726 499.657 113.528 505.534 118.024 509.508L130.885 516.962L418.158 485.57L417.076 27.2247L408.358 22.5856L408.345 22.5986Z" fill="#B6D3AB"/>
<path d="M405.218 497.091L144.347 519.909C131.055 521.069 120.292 511.243 120.292 497.951V74.1514C120.292 60.8596 131.068 49.1446 144.347 47.9848L405.218 25.1672C418.51 24.0074 429.274 33.8329 429.274 47.1247V470.925C429.274 484.216 418.497 495.931 405.218 497.091Z" fill="#499B2D"/>
<path d="M388.629 151.177C388.629 150.773 388.76 150.343 389.02 149.965C389.072 149.887 394.989 141.052 394.989 126.327C394.989 112.683 389.007 103.731 388.942 103.64C388.356 102.779 388.616 101.528 389.542 100.851C390.454 100.173 391.679 100.33 392.278 101.203C392.552 101.607 398.95 111.119 398.95 125.975C398.95 142.081 392.487 151.633 392.213 152.024C391.561 152.963 390.323 153.262 389.45 152.689C388.929 152.35 388.642 151.777 388.642 151.164L388.629 151.177Z" fill="#B6D3AB"/>
<path d="M379.273 146.328C379.273 145.924 379.404 145.494 379.664 145.116C379.703 145.051 384.147 138.392 384.147 127.277C384.147 116.969 379.638 110.193 379.586 110.128C379 109.255 379.26 108.017 380.186 107.339C381.111 106.661 382.323 106.818 382.922 107.691C383.131 108.004 388.109 115.405 388.109 126.938C388.109 139.448 383.066 146.876 382.857 147.188C382.205 148.127 380.967 148.426 380.094 147.853C379.573 147.514 379.286 146.941 379.286 146.328H379.273Z" fill="#B6D3AB"/>
<path d="M369.878 141.756C369.878 141.352 370.008 140.922 370.269 140.544C370.295 140.505 373.344 135.905 373.344 128.229C373.344 121.088 370.23 116.397 370.204 116.345C369.617 115.472 369.878 114.234 370.803 113.556C371.715 112.892 372.94 113.048 373.54 113.908C373.696 114.13 377.319 119.524 377.319 127.877C377.319 136.947 373.631 142.381 373.475 142.616C372.823 143.554 371.585 143.854 370.712 143.28C370.191 142.941 369.904 142.368 369.904 141.756H369.878Z" fill="#B6D3AB"/>
<path d="M360.417 137.756C360.417 137.352 360.547 136.922 360.808 136.544C360.808 136.544 362.619 133.782 362.619 129.169C362.619 124.881 360.756 122.041 360.743 122.014C360.156 121.141 360.43 119.903 361.342 119.226C362.254 118.548 363.479 118.718 364.066 119.578C364.17 119.734 366.581 123.305 366.581 128.817C366.581 134.798 364.105 138.447 364.001 138.603C363.349 139.541 362.111 139.841 361.238 139.268C360.717 138.929 360.43 138.356 360.43 137.743L360.417 137.756Z" fill="#B6D3AB"/>
<path d="M335.384 166.865L294.284 170.462C290.218 170.814 286.921 167.804 286.921 163.738V107.834C286.921 103.768 290.218 100.185 294.284 99.8199L335.384 96.2233C339.45 95.8714 342.746 98.8816 342.746 102.947V158.851C342.746 162.917 339.45 166.5 335.384 166.865Z" fill="#B6D3AB"/>
<path d="M326.783 122.77L302.897 124.855C299.613 125.141 296.942 122.353 296.942 118.639V99.6001L298.297 99.4829V118.521C298.297 121.388 300.356 123.538 302.897 123.317L326.783 121.232C329.324 121.01 331.383 118.495 331.383 115.628V96.5899L332.739 96.4727V115.511C332.739 119.225 330.067 122.483 326.783 122.77Z" fill="#2C681A"/>
<path d="M315.512 122.159L314.156 122.276V98.103L315.512 97.9727V122.159Z" fill="#2C681A"/>
<path d="M332.739 167.103L331.383 167.22V148.182C331.383 145.315 329.324 143.165 326.783 143.386L302.897 145.471C300.356 145.693 298.297 148.208 298.297 151.074V170.113L296.942 170.23V151.192C296.942 147.478 299.613 144.22 302.897 143.933L326.783 141.848C330.067 141.562 332.739 144.35 332.739 148.064V167.103Z" fill="#2C681A"/>
<path d="M315.512 168.616L314.156 168.733V144.56L315.512 144.43V168.616Z" fill="#2C681A"/>
<path d="M306.168 144.429L304.813 144.546V123.918L306.168 123.801V144.429Z" fill="#2C681A"/>
<path d="M324.477 142.824L323.108 142.941V122.313L324.477 122.195V142.824Z" fill="#2C681A"/>
<path d="M342.747 108.359L332.739 109.245V107.877L342.747 107.004V108.359Z" fill="#2C681A"/>
<path d="M342.747 153.015L332.739 153.902V152.533L342.747 151.66V153.015Z" fill="#2C681A"/>
<path d="M296.929 112.371L286.921 113.244V111.889L296.929 111.016V112.371Z" fill="#2C681A"/>
<path d="M296.929 157.027L286.921 157.9V156.545L296.929 155.672V157.027Z" fill="#2C681A"/>
<path d="M204.055 514.695L163.046 518.278V46.3414L204.055 42.7578V514.695Z" fill="#2C681A"/>
</g>
<defs>
<clipPath id="clip0_2150_36473">
<rect width="540" height="540" fill="white"/>
</clipPath>
</defs>
</svg>
