<svg width="845" height="476" viewBox="0 0 845 476" fill="none" xmlns="http://www.w3.org/2000/svg">
<g clip-path="url(#clip0_19270_1480)">
<path d="M816.421 0H534.393C540.062 8.1039 543.396 17.9452 543.396 28.56V238C543.396 273.01 536.525 306.984 522.986 338.983C509.911 369.876 491.191 397.615 467.364 421.439C444.131 444.655 417.172 462.981 387.199 476H606.829C738.365 476 844.988 369.447 844.988 238V28.56C844.988 12.7925 832.199 0 816.409 0H816.421Z" fill="#E8F5E6"/>
<path d="M0 238V447.44C0 449.415 0.202435 451.331 0.58349 453.2C0.774017 454.128 1.01218 455.044 1.28606 455.937C1.55994 456.829 1.88146 457.71 2.2506 458.566C2.60784 459.423 3.01271 460.256 3.45331 461.065C4.10824 462.279 4.85844 463.445 5.68009 464.54C6.77562 466.004 8.01405 467.361 9.37156 468.598C10.0503 469.217 10.7529 469.8 11.4912 470.347C12.5867 471.169 13.7537 471.918 14.9683 472.573C15.778 473.013 16.6116 473.418 17.469 473.775C18.3263 474.132 19.1956 474.453 20.1006 474.739C21.4462 475.155 22.8275 475.476 24.2446 475.691C25.6616 475.905 27.1144 476.024 28.591 476.024H283.814C316.692 476.024 348.022 469.36 376.517 457.317C383.638 454.306 390.593 450.962 397.333 447.297C405.763 442.716 413.897 437.646 421.684 432.113C423.244 431.006 424.78 429.887 426.317 428.745C429.615 426.282 432.83 423.735 435.986 421.105C440.154 417.642 444.214 414.037 448.132 410.3C450.895 407.67 453.586 404.981 456.217 402.22C458.849 399.459 461.409 396.651 463.91 393.771C467.649 389.451 471.245 385.001 474.675 380.419C475.818 378.896 476.937 377.349 478.045 375.79C483.582 368.019 488.655 359.892 493.239 351.455C496.907 344.707 500.253 337.77 503.266 330.653C504.778 327.095 506.195 323.49 507.529 319.848C511.53 308.912 514.757 297.595 517.138 285.981C517.531 284.041 517.912 282.101 518.258 280.15C519.306 274.295 520.139 268.357 520.747 262.359C521.556 254.362 521.973 246.235 521.973 238.024V28.56C521.973 12.7925 509.184 0 493.394 0H238.171C106.624 0 0 106.553 0 238Z" fill="#E8F5E6"/>
</g>
<defs>
<clipPath id="clip0_19270_1480">
<rect width="845" height="476" fill="white"/>
</clipPath>
</defs>
</svg>
