<svg width="180" height="180" viewBox="0 0 180 180" fill="none" xmlns="http://www.w3.org/2000/svg">
<circle cx="90" cy="90" r="87" fill="#4899C4"/>
<circle cx="90" cy="90" r="87" stroke="#4899C4" stroke-width="4"/>
<circle cx="90" cy="90" r="87" stroke="white" stroke-opacity="0.5" stroke-width="4"/>
<path d="M70.0883 74.565V72.171C66.8393 71.943 65.5473 70.1 65.3573 67.801H67.7133C67.8653 69.036 68.2833 70.081 70.0883 70.309V66.034C67.2763 65.559 65.8133 64.533 65.8133 62.12C65.8133 60.011 67.5043 58.434 70.0883 58.263V56.553H71.3613V58.282C73.8123 58.51 75.3323 59.783 75.5603 62.139H73.3183C73.1093 60.98 72.5203 60.315 71.3613 60.125V64.02C74.1733 64.476 75.8073 65.426 75.8073 67.991C75.8073 70.214 74.1543 71.981 71.3613 72.171V74.565H70.0883ZM73.4703 68.219C73.4703 67.136 73.0143 66.604 71.3613 66.243V70.309C72.6343 70.138 73.4703 69.34 73.4703 68.219ZM68.0553 61.911C68.0553 62.899 68.4163 63.469 70.0883 63.811V60.068C68.7773 60.22 68.0553 60.961 68.0553 61.911ZM83.9371 72V69.245H77.2111V68.352L83.2151 58.415H86.3881V67.364H88.2121V69.245H86.3881V72H83.9371ZM79.9091 67.364H83.9751V60.334L79.9091 67.364ZM95.4272 70.176C97.5172 70.176 98.5242 68.58 98.5242 65.502V64.837C98.5242 61.949 97.4222 60.201 95.3892 60.201C93.3372 60.201 92.2162 61.835 92.2162 64.856V65.54C92.2162 68.618 93.3942 70.176 95.4272 70.176ZM95.3702 72.19C91.9122 72.19 89.6702 69.644 89.6702 65.559V64.875C89.6702 60.752 91.9502 58.225 95.3702 58.225C98.8092 58.225 101.051 60.733 101.051 64.818V65.502C101.051 69.587 98.9232 72.19 95.3702 72.19ZM108.749 70.176C110.839 70.176 111.846 68.58 111.846 65.502V64.837C111.846 61.949 110.744 60.201 108.711 60.201C106.659 60.201 105.538 61.835 105.538 64.856V65.54C105.538 68.618 106.716 70.176 108.749 70.176ZM108.692 72.19C105.234 72.19 102.992 69.644 102.992 65.559V64.875C102.992 60.752 105.272 58.225 108.692 58.225C112.131 58.225 114.373 60.733 114.373 64.818V65.502C114.373 69.587 112.245 72.19 108.692 72.19ZM51.6363 96L48.2543 82.415H50.8383L53.1943 92.39L55.8353 82.415H57.9253L60.6233 92.447L63.0553 82.415H65.4113L62.0103 96H59.4833L56.8043 86.101L54.0493 96H51.6363ZM70.7912 96.19C67.8652 96.19 65.7562 94.271 65.7562 91.136V90.984C65.7562 87.906 67.8652 85.854 70.6962 85.854C73.1662 85.854 75.3892 87.317 75.3892 90.87V91.535H68.1122C68.1882 93.416 69.1382 94.48 70.8482 94.48C72.2352 94.48 72.9572 93.929 73.1282 92.96H75.3512C75.0282 95.05 73.3372 96.19 70.7912 96.19ZM68.1502 89.996H73.1092C72.9952 88.286 72.1212 87.526 70.6962 87.526C69.3092 87.526 68.3782 88.457 68.1502 89.996ZM77.4997 96V81.465H79.7987V96H77.4997ZM86.9519 96.19C84.1019 96.19 81.9359 94.328 81.9359 91.155V91.003C81.9359 87.849 84.1779 85.854 86.9519 85.854C89.1559 85.854 91.2269 86.842 91.4929 89.578H89.2699C89.0799 88.248 88.2059 87.697 86.9899 87.697C85.4129 87.697 84.2919 88.913 84.2919 90.965V91.117C84.2919 93.283 85.3559 94.423 87.0469 94.423C88.2629 94.423 89.3079 93.701 89.4409 92.295H91.5499C91.3789 94.575 89.6499 96.19 86.9519 96.19ZM97.9756 94.404C99.6856 94.404 100.712 93.131 100.712 91.098V90.965C100.712 88.913 99.6856 87.659 97.9756 87.659C96.2656 87.659 95.2206 88.894 95.2206 90.946V91.098C95.2206 93.131 96.2276 94.404 97.9756 94.404ZM97.9566 96.19C95.0306 96.19 92.8646 94.157 92.8646 91.136V90.984C92.8646 87.906 95.0496 85.854 97.9756 85.854C100.883 85.854 103.068 87.887 103.068 90.927V91.079C103.068 94.176 100.883 96.19 97.9566 96.19ZM105.145 96V86.063H107.444V87.583C107.919 86.652 109.002 85.854 110.465 85.854C111.757 85.854 112.783 86.405 113.277 87.64C114.037 86.405 115.405 85.854 116.64 85.854C118.464 85.854 119.946 86.975 119.946 89.711V96H117.647V89.863C117.647 88.4 117.02 87.773 115.88 87.773C114.74 87.773 113.695 88.533 113.695 90.053V96H111.396V89.863C111.396 88.4 110.75 87.773 109.629 87.773C108.489 87.773 107.444 88.533 107.444 90.053V96H105.145ZM126.956 96.19C124.03 96.19 121.921 94.271 121.921 91.136V90.984C121.921 87.906 124.03 85.854 126.861 85.854C129.331 85.854 131.554 87.317 131.554 90.87V91.535H124.277C124.353 93.416 125.303 94.48 127.013 94.48C128.4 94.48 129.122 93.929 129.293 92.96H131.516C131.193 95.05 129.502 96.19 126.956 96.19ZM124.315 89.996H129.274C129.16 88.286 128.286 87.526 126.861 87.526C125.474 87.526 124.543 88.457 124.315 89.996ZM59.6161 120V106.415H64.4801C67.2731 106.415 68.9261 107.479 68.9261 109.949V110.025C68.9261 111.374 68.3181 112.438 66.7791 112.913C68.6221 113.312 69.4961 114.319 69.4961 116.124V116.2C69.4961 118.727 67.8241 120 64.8411 120H59.6161ZM62.0861 118.195H64.5371C66.2281 118.195 67.0071 117.435 67.0071 116.029V115.953C67.0071 114.547 66.2281 113.844 64.3661 113.844H62.0861V118.195ZM62.0861 112.134H64.1761C65.8481 112.134 66.4941 111.526 66.4941 110.139V110.063C66.4941 108.771 65.7531 108.22 64.1381 108.22H62.0861V112.134ZM76.1182 118.404C77.8282 118.404 78.8542 117.131 78.8542 115.098V114.965C78.8542 112.913 77.8282 111.659 76.1182 111.659C74.4082 111.659 73.3632 112.894 73.3632 114.946V115.098C73.3632 117.131 74.3702 118.404 76.1182 118.404ZM76.0992 120.19C73.1732 120.19 71.0072 118.157 71.0072 115.136V114.984C71.0072 111.906 73.1922 109.854 76.1182 109.854C79.0252 109.854 81.2102 111.887 81.2102 114.927V115.079C81.2102 118.176 79.0252 120.19 76.0992 120.19ZM83.2874 120V110.063H85.5864V111.64C86.0614 110.671 87.1634 109.854 88.7974 109.854C90.7924 109.854 92.1984 111.013 92.1984 113.749V120H89.8994V113.958C89.8994 112.457 89.2914 111.773 87.9234 111.773C86.6314 111.773 85.5864 112.571 85.5864 114.148V120H83.2874ZM98.172 120.19C96.215 120.19 94.752 119.069 94.752 116.428V110.063H97.051V116.162C97.051 117.663 97.678 118.347 99.008 118.347C100.243 118.347 101.326 117.549 101.326 115.972V110.063H103.625V120H101.326V118.442C100.832 119.411 99.787 120.19 98.172 120.19ZM109.752 120.19C107.187 120.19 105.686 119.012 105.591 116.903H107.757C107.871 117.91 108.384 118.499 109.733 118.499C110.968 118.499 111.519 118.062 111.519 117.226C111.519 116.409 110.854 116.105 109.391 115.858C106.769 115.44 105.8 114.699 105.8 112.837C105.8 110.842 107.662 109.854 109.524 109.854C111.557 109.854 113.172 110.614 113.419 112.856H111.291C111.101 111.944 110.588 111.526 109.524 111.526C108.536 111.526 107.947 112.001 107.947 112.704C107.947 113.426 108.422 113.711 109.999 113.977C112.336 114.338 113.723 114.908 113.723 117.017C113.723 119.031 112.298 120.19 109.752 120.19ZM116.627 112.514L115.164 111.469L116.779 109.531L114.499 109.094L115.012 107.403L117.178 108.353L116.931 105.883H118.831L118.584 108.353L120.75 107.403L121.244 109.094L118.945 109.531L120.56 111.469L119.116 112.514L117.843 110.272L116.627 112.514Z" fill="white"/>
</svg>
