<svg width="197" height="197" viewBox="0 0 197 197" fill="none" xmlns="http://www.w3.org/2000/svg">
<path d="M99.9438 7.22266L112.002 28.7949L131.4 13.4795L134.208 11.2617L134.625 14.8154L137.51 39.3613L161.293 32.6338L164.736 31.6602L163.762 35.1025L157.034 58.8848L181.581 61.7705L185.134 62.1885L182.917 64.9961L167.6 84.3926L189.173 96.4521L192.296 98.1982L189.173 99.9443L167.6 112.003L182.917 131.4L185.134 134.208L181.581 134.626L157.034 137.511L163.762 161.294L164.736 164.736L161.293 163.763L137.51 157.034L134.625 181.581L134.208 185.135L131.4 182.917L112.002 167.601L99.9438 189.174L98.1978 192.297L96.4517 189.174L84.3921 167.601L64.9956 182.917L62.188 185.135L61.77 181.581L58.8843 157.034L35.1021 163.763L31.6597 164.736L32.6333 161.294L39.3608 137.511L14.8149 134.626L11.2612 134.208L13.479 131.4L28.7944 112.003L7.22217 99.9443L4.09912 98.1982L7.22217 96.4521L28.7944 84.3926L13.479 64.9961L11.2612 62.1885L14.8149 61.7705L39.3608 58.8848L32.6333 35.1025L31.6597 31.6602L35.1021 32.6338L58.8843 39.3613L61.77 14.8154L62.188 11.2617L64.9956 13.4795L84.3921 28.7949L96.4517 7.22266L98.1978 4.09961L99.9438 7.22266Z" fill="#1F63D2"/>
<path d="M99.9438 7.22266L112.002 28.7949L131.4 13.4795L134.208 11.2617L134.625 14.8154L137.51 39.3613L161.293 32.6338L164.736 31.6602L163.762 35.1025L157.034 58.8848L181.581 61.7705L185.134 62.1885L182.917 64.9961L167.6 84.3926L189.173 96.4521L192.296 98.1982L189.173 99.9443L167.6 112.003L182.917 131.4L185.134 134.208L181.581 134.626L157.034 137.511L163.762 161.294L164.736 164.736L161.293 163.763L137.51 157.034L134.625 181.581L134.208 185.135L131.4 182.917L112.002 167.601L99.9438 189.174L98.1978 192.297L96.4517 189.174L84.3921 167.601L64.9956 182.917L62.188 185.135L61.77 181.581L58.8843 157.034L35.1021 163.763L31.6597 164.736L32.6333 161.294L39.3608 137.511L14.8149 134.626L11.2612 134.208L13.479 131.4L28.7944 112.003L7.22217 99.9443L4.09912 98.1982L7.22217 96.4521L28.7944 84.3926L13.479 64.9961L11.2612 62.1885L14.8149 61.7705L39.3608 58.8848L32.6333 35.1025L31.6597 31.6602L35.1021 32.6338L58.8843 39.3613L61.77 14.8154L62.188 11.2617L64.9956 13.4795L84.3921 28.7949L96.4517 7.22266L98.1978 4.09961L99.9438 7.22266Z" stroke="#1F63D2" stroke-width="4"/>
<path d="M99.9438 7.22266L112.002 28.7949L131.4 13.4795L134.208 11.2617L134.625 14.8154L137.51 39.3613L161.293 32.6338L164.736 31.6602L163.762 35.1025L157.034 58.8848L181.581 61.7705L185.134 62.1885L182.917 64.9961L167.6 84.3926L189.173 96.4521L192.296 98.1982L189.173 99.9443L167.6 112.003L182.917 131.4L185.134 134.208L181.581 134.626L157.034 137.511L163.762 161.294L164.736 164.736L161.293 163.763L137.51 157.034L134.625 181.581L134.208 185.135L131.4 182.917L112.002 167.601L99.9438 189.174L98.1978 192.297L96.4517 189.174L84.3921 167.601L64.9956 182.917L62.188 185.135L61.77 181.581L58.8843 157.034L35.1021 163.763L31.6597 164.736L32.6333 161.294L39.3608 137.511L14.8149 134.626L11.2612 134.208L13.479 131.4L28.7944 112.003L7.22217 99.9443L4.09912 98.1982L7.22217 96.4521L28.7944 84.3926L13.479 64.9961L11.2612 62.1885L14.8149 61.7705L39.3608 58.8848L32.6333 35.1025L31.6597 31.6602L35.1021 32.6338L58.8843 39.3613L61.77 14.8154L62.188 11.2617L64.9956 13.4795L84.3921 28.7949L96.4517 7.22266L98.1978 4.09961L99.9438 7.22266Z" stroke="white" stroke-opacity="0.5" stroke-width="4"/>
<path d="M78.2861 82.7632V80.3692C75.0371 80.1412 73.7451 78.2982 73.5551 75.9992H75.9111C76.0631 77.2342 76.4811 78.2792 78.2861 78.5072V74.2322C75.4741 73.7572 74.0111 72.7312 74.0111 70.3182C74.0111 68.2092 75.7021 66.6322 78.2861 66.4612V64.7512H79.5591V66.4802C82.0101 66.7082 83.5301 67.9812 83.7581 70.3372H81.5161C81.3071 69.1782 80.7181 68.5132 79.5591 68.3232V72.2182C82.3711 72.6742 84.0051 73.6242 84.0051 76.1892C84.0051 78.4122 82.3521 80.1792 79.5591 80.3692V82.7632H78.2861ZM81.6681 76.4172C81.6681 75.3342 81.2121 74.8022 79.5591 74.4412V78.5072C80.8321 78.3362 81.6681 77.5382 81.6681 76.4172ZM76.2531 70.1092C76.2531 71.0972 76.6141 71.6672 78.2861 72.0092V68.2662C76.9751 68.4182 76.2531 69.1592 76.2531 70.1092ZM92.1348 80.1982V77.4432H85.4088V76.5502L91.4128 66.6132H94.5858V75.5622H96.4098V77.4432H94.5858V80.1982H92.1348ZM88.1068 75.5622H92.1728V68.5322L88.1068 75.5622ZM103.625 78.3742C105.715 78.3742 106.722 76.7782 106.722 73.7002V73.0352C106.722 70.1472 105.62 68.3992 103.587 68.3992C101.535 68.3992 100.414 70.0332 100.414 73.0542V73.7382C100.414 76.8162 101.592 78.3742 103.625 78.3742ZM103.568 80.3882C100.11 80.3882 97.8679 77.8422 97.8679 73.7572V73.0732C97.8679 68.9502 100.148 66.4232 103.568 66.4232C107.007 66.4232 109.249 68.9312 109.249 73.0162V73.7002C109.249 77.7852 107.121 80.3882 103.568 80.3882ZM116.947 78.3742C119.037 78.3742 120.044 76.7782 120.044 73.7002V73.0352C120.044 70.1472 118.942 68.3992 116.909 68.3992C114.857 68.3992 113.736 70.0332 113.736 73.0542V73.7382C113.736 76.8162 114.914 78.3742 116.947 78.3742ZM116.89 80.3882C113.432 80.3882 111.19 77.8422 111.19 73.7572V73.0732C111.19 68.9502 113.47 66.4232 116.89 66.4232C120.329 66.4232 122.571 68.9312 122.571 73.0162V73.7002C122.571 77.7852 120.443 80.3882 116.89 80.3882ZM59.834 104.198L56.452 90.6132H59.036L61.392 100.588L64.033 90.6132H66.123L68.821 100.645L71.253 90.6132H73.609L70.208 104.198H67.681L65.002 94.2992L62.247 104.198H59.834ZM78.989 104.388C76.063 104.388 73.954 102.469 73.954 99.3342V99.1822C73.954 96.1042 76.063 94.0522 78.894 94.0522C81.364 94.0522 83.587 95.5152 83.587 99.0682V99.7332H76.31C76.386 101.614 77.336 102.678 79.046 102.678C80.433 102.678 81.155 102.127 81.326 101.158H83.549C83.226 103.248 81.535 104.388 78.989 104.388ZM76.348 98.1942H81.307C81.193 96.4842 80.319 95.7242 78.894 95.7242C77.507 95.7242 76.576 96.6552 76.348 98.1942ZM85.6975 104.198V89.6632H87.9965V104.198H85.6975ZM95.1497 104.388C92.2997 104.388 90.1337 102.526 90.1337 99.3532V99.2012C90.1337 96.0472 92.3757 94.0522 95.1497 94.0522C97.3537 94.0522 99.4247 95.0402 99.6907 97.7762H97.4677C97.2777 96.4462 96.4037 95.8952 95.1877 95.8952C93.6107 95.8952 92.4897 97.1112 92.4897 99.1632V99.3152C92.4897 101.481 93.5537 102.621 95.2447 102.621C96.4607 102.621 97.5057 101.899 97.6387 100.493H99.7477C99.5767 102.773 97.8477 104.388 95.1497 104.388ZM106.173 102.602C107.883 102.602 108.909 101.329 108.909 99.2962V99.1632C108.909 97.1112 107.883 95.8572 106.173 95.8572C104.463 95.8572 103.418 97.0922 103.418 99.1442V99.2962C103.418 101.329 104.425 102.602 106.173 102.602ZM106.154 104.388C103.228 104.388 101.062 102.355 101.062 99.3342V99.1822C101.062 96.1042 103.247 94.0522 106.173 94.0522C109.08 94.0522 111.265 96.0852 111.265 99.1252V99.2772C111.265 102.374 109.08 104.388 106.154 104.388ZM113.343 104.198V94.2612H115.642V95.7812C116.117 94.8502 117.2 94.0522 118.663 94.0522C119.955 94.0522 120.981 94.6032 121.475 95.8382C122.235 94.6032 123.603 94.0522 124.838 94.0522C126.662 94.0522 128.144 95.1732 128.144 97.9092V104.198H125.845V98.0612C125.845 96.5982 125.218 95.9712 124.078 95.9712C122.938 95.9712 121.893 96.7312 121.893 98.2512V104.198H119.594V98.0612C119.594 96.5982 118.948 95.9712 117.827 95.9712C116.687 95.9712 115.642 96.7312 115.642 98.2512V104.198H113.343ZM135.154 104.388C132.228 104.388 130.119 102.469 130.119 99.3342V99.1822C130.119 96.1042 132.228 94.0522 135.059 94.0522C137.529 94.0522 139.752 95.5152 139.752 99.0682V99.7332H132.475C132.551 101.614 133.501 102.678 135.211 102.678C136.598 102.678 137.32 102.127 137.491 101.158H139.714C139.391 103.248 137.7 104.388 135.154 104.388ZM132.513 98.1942H137.472C137.358 96.4842 136.484 95.7242 135.059 95.7242C133.672 95.7242 132.741 96.6552 132.513 98.1942ZM67.8139 128.198V114.613H72.6779C75.4709 114.613 77.1239 115.677 77.1239 118.147V118.223C77.1239 119.572 76.5159 120.636 74.9769 121.111C76.8199 121.51 77.6939 122.517 77.6939 124.322V124.398C77.6939 126.925 76.0219 128.198 73.0389 128.198H67.8139ZM70.2839 126.393H72.7349C74.4259 126.393 75.2049 125.633 75.2049 124.227V124.151C75.2049 122.745 74.4259 122.042 72.5639 122.042H70.2839V126.393ZM70.2839 120.332H72.3739C74.0459 120.332 74.6919 119.724 74.6919 118.337V118.261C74.6919 116.969 73.9509 116.418 72.3359 116.418H70.2839V120.332ZM84.316 126.602C86.026 126.602 87.052 125.329 87.052 123.296V123.163C87.052 121.111 86.026 119.857 84.316 119.857C82.606 119.857 81.561 121.092 81.561 123.144V123.296C81.561 125.329 82.568 126.602 84.316 126.602ZM84.297 128.388C81.371 128.388 79.205 126.355 79.205 123.334V123.182C79.205 120.104 81.39 118.052 84.316 118.052C87.223 118.052 89.408 120.085 89.408 123.125V123.277C89.408 126.374 87.223 128.388 84.297 128.388ZM91.4852 128.198V118.261H93.7842V119.838C94.2592 118.869 95.3612 118.052 96.9952 118.052C98.9902 118.052 100.396 119.211 100.396 121.947V128.198H98.0972V122.156C98.0972 120.655 97.4892 119.971 96.1212 119.971C94.8292 119.971 93.7842 120.769 93.7842 122.346V128.198H91.4852ZM106.37 128.388C104.413 128.388 102.95 127.267 102.95 124.626V118.261H105.249V124.36C105.249 125.861 105.876 126.545 107.206 126.545C108.441 126.545 109.524 125.747 109.524 124.17V118.261H111.823V128.198H109.524V126.64C109.03 127.609 107.985 128.388 106.37 128.388ZM117.95 128.388C115.385 128.388 113.884 127.21 113.789 125.101H115.955C116.069 126.108 116.582 126.697 117.931 126.697C119.166 126.697 119.717 126.26 119.717 125.424C119.717 124.607 119.052 124.303 117.589 124.056C114.967 123.638 113.998 122.897 113.998 121.035C113.998 119.04 115.86 118.052 117.722 118.052C119.755 118.052 121.37 118.812 121.617 121.054H119.489C119.299 120.142 118.786 119.724 117.722 119.724C116.734 119.724 116.145 120.199 116.145 120.902C116.145 121.624 116.62 121.909 118.197 122.175C120.534 122.536 121.921 123.106 121.921 125.215C121.921 127.229 120.496 128.388 117.95 128.388ZM124.825 120.712L123.362 119.667L124.977 117.729L122.697 117.292L123.21 115.601L125.376 116.551L125.129 114.081H127.029L126.782 116.551L128.948 115.601L129.442 117.292L127.143 117.729L128.758 119.667L127.314 120.712L126.041 118.47L124.825 120.712Z" fill="white"/>
</svg>
