<svg width="550" height="120" viewBox="0 0 550 120" fill="none" xmlns="http://www.w3.org/2000/svg">
<path d="M284.554 51.5566V72.8269C284.554 74.2911 285.071 75.0878 285.757 75.7259C286.439 76.3639 287.608 76.4119 289.261 76.4119H292.138V83.6593H287.844C284.208 83.6593 281.726 82.811 279.789 81.1107C277.853 79.4104 277.053 76.6479 277.053 72.8269V51.5566H271.981V44.9694H277.053V36.0327H284.554V44.9694H291.901V51.5566H284.554Z" fill="#DDDFE4"/>
<path d="M184.879 48.3301V48.3449C182.533 46.6003 179.782 45.3721 176.791 44.7562C176.717 44.7414 176.639 44.723 176.566 44.7082C176.392 44.675 176.219 44.6455 176.046 44.616C175.894 44.5902 175.747 44.5644 175.596 44.5423C175.455 44.5201 175.312 44.5017 175.168 44.4832C174.976 44.4574 174.788 44.4353 174.596 44.4169C174.478 44.4058 174.36 44.391 174.242 44.3837C174.01 44.3652 173.774 44.3468 173.538 44.3357C173.453 44.332 173.368 44.3246 173.283 44.321C172.959 44.3062 172.63 44.2988 172.302 44.2988C171.974 44.2988 171.645 44.3062 171.321 44.321C171.236 44.3246 171.151 44.332 171.066 44.3357C170.83 44.3468 170.598 44.3652 170.362 44.3837C170.244 44.3947 170.126 44.4058 170.008 44.4169C169.816 44.4353 169.624 44.4574 169.436 44.4832C169.292 44.5017 169.152 44.5201 169.008 44.5423C168.857 44.5644 168.706 44.5902 168.558 44.616C168.385 44.6455 168.212 44.675 168.038 44.7082C167.965 44.723 167.887 44.7414 167.813 44.7562C164.822 45.3758 162.071 46.604 159.725 48.3449V48.3301C154.971 51.8561 151.906 57.4807 151.906 64.3814C151.906 64.7134 151.917 65.0416 151.928 65.3662C151.943 65.7166 151.965 66.0633 151.998 66.4063C151.998 66.4137 151.998 66.4174 151.998 66.4247C152.828 75.4942 159.139 82.0851 167.345 83.9809C167.404 83.9957 167.467 84.0067 167.529 84.0178C167.78 84.0731 168.035 84.1284 168.289 84.1727C168.426 84.1985 168.562 84.217 168.699 84.2391C168.883 84.2686 169.067 84.3018 169.255 84.3276C169.484 84.3571 169.713 84.3829 169.945 84.4087C170.045 84.4198 170.144 84.4346 170.248 84.4419C170.923 84.5046 171.609 84.5341 172.302 84.5341C172.995 84.5341 173.681 84.5009 174.356 84.4419C174.456 84.4309 174.556 84.4198 174.659 84.4087C174.887 84.3829 175.12 84.3608 175.349 84.3276C175.537 84.3018 175.721 84.2686 175.905 84.2391C176.042 84.217 176.182 84.1985 176.315 84.1727C176.569 84.1247 176.824 84.0731 177.075 84.0178C177.134 84.003 177.196 83.992 177.259 83.9809C185.469 82.0851 191.78 75.4942 192.606 66.4247C192.606 66.4174 192.606 66.4137 192.606 66.4063C192.635 66.0633 192.661 65.7166 192.676 65.3662C192.691 65.0416 192.698 64.7134 192.698 64.3814C192.698 57.4807 189.633 51.8561 184.879 48.3301ZM173.077 77.5338C172.822 77.5486 172.564 77.5596 172.306 77.5596H172.298H172.291C172.033 77.5596 171.778 77.5486 171.52 77.5338C165.195 77.1429 159.696 72.0494 159.696 64.3814C159.696 56.7135 165.195 51.62 171.52 51.2291C171.775 51.2143 172.033 51.2033 172.291 51.2033H172.298H172.306C172.564 51.2033 172.818 51.2143 173.077 51.2291C179.402 51.62 184.901 56.7135 184.901 64.3814C184.901 72.0494 179.402 77.1429 173.077 77.5338Z" fill="#DDDFE4"/>
<path d="M228.533 48.3301V48.3449C226.188 46.6003 223.436 45.3721 220.445 44.7562C220.371 44.7414 220.294 44.723 220.22 44.7082C220.047 44.675 219.873 44.6455 219.7 44.616C219.549 44.5902 219.401 44.5644 219.25 44.5423C219.11 44.5201 218.966 44.5017 218.822 44.4832C218.63 44.4574 218.442 44.4353 218.25 44.4169C218.132 44.4058 218.014 44.391 217.896 44.3837C217.664 44.3652 217.428 44.3468 217.192 44.3357C217.107 44.332 217.022 44.3246 216.937 44.321C216.613 44.3062 216.285 44.2988 215.956 44.2988C215.628 44.2988 215.3 44.3062 214.975 44.321C214.89 44.3246 214.806 44.332 214.721 44.3357C214.485 44.3468 214.252 44.3652 214.016 44.3837C213.898 44.3947 213.78 44.4058 213.662 44.4169C213.47 44.4353 213.279 44.4574 213.091 44.4832C212.947 44.5017 212.807 44.5201 212.663 44.5423C212.512 44.5644 212.36 44.5902 212.213 44.616C212.039 44.6455 211.866 44.675 211.693 44.7082C211.619 44.723 211.542 44.7414 211.468 44.7562C208.477 45.3758 205.725 46.604 203.379 48.3449V48.3301C198.625 51.8561 195.56 57.4807 195.56 64.3814C195.56 64.7134 195.571 65.0416 195.582 65.3662C195.597 65.7166 195.619 66.0633 195.652 66.4063C195.652 66.4137 195.652 66.4174 195.652 66.4247C196.482 75.4942 202.793 82.0851 210.999 83.9809C211.058 83.9957 211.121 84.0067 211.184 84.0178C211.435 84.0731 211.689 84.1284 211.944 84.1727C212.08 84.1985 212.216 84.217 212.353 84.2391C212.537 84.2686 212.722 84.3018 212.91 84.3276C213.139 84.3571 213.367 84.3829 213.6 84.4087C213.699 84.4198 213.799 84.4346 213.902 84.4419C214.577 84.5046 215.263 84.5341 215.956 84.5341C216.65 84.5341 217.336 84.5009 218.011 84.4419C218.11 84.4309 218.21 84.4198 218.313 84.4087C218.542 84.3829 218.774 84.3608 219.003 84.3276C219.191 84.3018 219.375 84.2686 219.56 84.2391C219.696 84.217 219.836 84.1985 219.969 84.1727C220.224 84.1247 220.478 84.0731 220.729 84.0178C220.788 84.003 220.851 83.992 220.913 83.9809C229.123 82.0851 235.434 75.4942 236.26 66.4247C236.26 66.4174 236.26 66.4137 236.26 66.4063C236.29 66.0633 236.316 65.7166 236.33 65.3662C236.345 65.0416 236.352 64.7134 236.352 64.3814C236.352 57.4807 233.288 51.8561 228.533 48.3301ZM216.735 77.5338C216.48 77.5486 216.222 77.5596 215.964 77.5596H215.956H215.949C215.691 77.5596 215.436 77.5486 215.178 77.5338C208.853 77.1429 203.354 72.0494 203.354 64.3814C203.354 56.7135 208.853 51.62 215.178 51.2291C215.433 51.2143 215.691 51.2033 215.949 51.2033H215.956H215.964C216.222 51.2033 216.476 51.2143 216.735 51.2291C223.06 51.62 228.559 56.7135 228.559 64.3814C228.559 72.0494 223.06 77.1429 216.735 77.5338Z" fill="#DDDFE4"/>
<path d="M391.385 48.3301V48.3449C389.039 46.6003 386.288 45.3721 383.297 44.7562C383.223 44.7414 383.146 44.723 383.072 44.7082C382.898 44.675 382.725 44.6455 382.552 44.616C382.4 44.5902 382.253 44.5644 382.102 44.5423C381.962 44.5201 381.818 44.5017 381.674 44.4832C381.482 44.4574 381.294 44.4353 381.102 44.4169C380.984 44.4058 380.866 44.391 380.748 44.3837C380.516 44.3652 380.28 44.3468 380.044 44.3357C379.959 44.332 379.874 44.3246 379.789 44.321C379.465 44.3062 379.136 44.2988 378.808 44.2988C378.48 44.2988 378.152 44.3062 377.827 44.321C377.742 44.3246 377.657 44.332 377.573 44.3357C377.336 44.3468 377.104 44.3652 376.868 44.3837C376.75 44.3947 376.632 44.4058 376.514 44.4169C376.322 44.4353 376.13 44.4574 375.942 44.4832C375.798 44.5017 375.658 44.5201 375.514 44.5423C375.363 44.5644 375.212 44.5902 375.065 44.616C374.891 44.6455 374.718 44.675 374.544 44.7082C374.471 44.723 374.393 44.7414 374.319 44.7562C371.328 45.3758 368.577 46.604 366.231 48.3449V48.3301C361.477 51.8561 358.412 57.4807 358.412 64.3814C358.412 64.7134 358.423 65.0416 358.434 65.3662C358.449 65.7166 358.471 66.0633 358.504 66.4063C358.504 66.4137 358.504 66.4174 358.504 66.4247C359.334 75.4942 365.645 82.0851 373.851 83.9809C373.91 83.9957 373.973 84.0067 374.036 84.0178C374.286 84.0731 374.541 84.1284 374.795 84.1727C374.932 84.1985 375.068 84.217 375.205 84.2391C375.389 84.2686 375.574 84.3018 375.762 84.3276C375.99 84.3571 376.219 84.3829 376.451 84.4087C376.551 84.4198 376.65 84.4346 376.754 84.4419C377.429 84.5046 378.115 84.5341 378.808 84.5341C379.502 84.5341 380.188 84.5009 380.862 84.4419C380.962 84.4309 381.062 84.4198 381.165 84.4087C381.394 84.3829 381.626 84.3608 381.855 84.3276C382.043 84.3018 382.227 84.2686 382.412 84.2391C382.548 84.217 382.688 84.1985 382.821 84.1727C383.075 84.1247 383.33 84.0731 383.581 84.0178C383.64 84.003 383.702 83.992 383.765 83.9809C391.975 82.0851 398.286 75.4942 399.112 66.4247C399.112 66.4174 399.112 66.4137 399.112 66.4063C399.142 66.0633 399.167 65.7166 399.182 65.3662C399.197 65.0416 399.204 64.7134 399.204 64.3814C399.204 57.4807 396.139 51.8561 391.385 48.3301ZM379.586 77.5338C379.332 77.5486 379.074 77.5596 378.815 77.5596H378.808H378.801C378.543 77.5596 378.288 77.5486 378.03 77.5338C371.705 77.1429 366.205 72.0494 366.205 64.3814C366.205 56.7135 371.705 51.62 378.03 51.2291C378.284 51.2143 378.543 51.2033 378.801 51.2033H378.808H378.815C379.074 51.2033 379.328 51.2143 379.586 51.2291C385.912 51.62 391.411 56.7135 391.411 64.3814C391.411 72.0494 385.912 77.1429 379.586 77.5338Z" fill="white"/>
<path d="M472.767 72.503C470.06 76.5896 466.198 77.5891 462.395 77.5891C456.756 77.5891 451.581 73.3402 450.807 66.2329H481.862V63.452C481.475 51.9409 472.977 44.0591 462.701 44.0591C451.887 44.0591 442.848 52.1696 442.848 64.3778C442.848 76.5859 451.965 84.5415 462.392 84.5415C470.886 84.5415 477.68 80.5287 480.851 72.503H472.767ZM462.705 51.1664C467.957 51.1664 472.361 54.2571 473.597 60.5161H451.039C452.275 54.3346 457.682 51.1664 462.705 51.1664Z" fill="white"/>
<path d="M130.023 84.7217C124.229 84.7217 119.438 82.7116 116.119 79.2373V83.6411H108.086V20H116.119V49.7238C119.442 46.2494 124.229 44.2393 130.023 44.2393C140.067 44.2393 149.029 52.3498 149.029 64.4805C149.029 76.6112 140.067 84.7217 130.023 84.7217ZM128.707 51.3466C122.37 51.3466 116.115 56.3663 116.115 64.4805C116.115 72.5947 122.374 77.6144 128.707 77.6144C135.737 77.6144 141.221 72.5136 141.221 64.4805C141.221 56.4475 135.737 51.3466 128.707 51.3466Z" fill="#DDDFE4"/>
<path d="M297.242 83.6415H305.275V60.73C305.275 56.0901 309.196 52.3834 313.588 52.3834C318.608 52.3834 322.06 55.8799 322.06 60.73V83.66H329.939L329.964 60.73C329.964 56.0533 333.417 52.3834 338.436 52.3834C343.456 52.3834 346.908 56.529 346.908 60.73V83.66H354.786V60.73C354.786 50.6094 347.539 44.8262 338.436 44.8262C333.435 44.8262 328.998 47.3047 326.011 51.2143C323.023 47.3047 318.586 44.8262 313.585 44.8262C310.538 44.8262 307.698 45.7482 305.271 47.3526V44.9811H297.238V83.6378L297.242 83.6415Z" fill="white"/>
<path d="M517.181 44.9546V64.8159C517.129 72.6314 511.073 77.5699 504.917 77.5699C498.076 77.5699 492.75 72.683 492.75 64.8159V44.9546H485.174V64.8159C485.174 76.5446 493.875 84.5076 503.645 84.5076C509.266 84.5076 513.957 82.5528 517.181 79.1817V80.1112C517.181 87.0045 512.733 92.9095 505.699 92.9095C498.666 92.9095 496.077 89.9773 493.288 85.6288L487.28 89.5863C490.256 95.1556 494.8 99.9909 505.699 99.9909C517.325 99.9909 525 91.1465 525 80.2993V44.9546H517.177H517.181Z" fill="white"/>
<path d="M420.939 43.8997C417.1 43.8997 413.522 45.0799 410.572 47.09V44.8845H402.538V61.8025C402.535 61.9722 402.527 62.1382 402.527 62.3115V83.6592H410.446V61.9869C410.446 56.189 415.145 51.4901 420.943 51.4901C426.741 51.4901 431.44 56.189 431.44 61.9869V83.6592H439.358V62.3115C439.358 52.143 431.111 43.896 420.943 43.896L420.939 43.8997Z" fill="white"/>
<path d="M246.562 83.01C244.105 81.8888 242.162 80.3618 240.73 78.4292C239.299 76.4965 238.536 74.3389 238.44 71.9526H246.883C247.026 73.6233 247.823 75.0175 249.28 76.1387C250.733 77.26 252.559 77.8206 254.753 77.8206C256.948 77.8206 258.818 77.3817 260.083 76.4965C261.348 75.615 261.979 74.4827 261.979 73.0996C261.979 71.6206 261.274 70.5252 259.869 69.8097C258.46 69.0942 256.232 68.3086 253.178 67.4492C250.22 66.6378 247.812 65.8522 245.953 65.0887C244.094 64.3252 242.482 63.156 241.121 61.5812C239.76 60.0063 239.082 57.9335 239.082 55.3554C239.082 53.2567 239.701 51.3388 240.941 49.5943C242.18 47.8534 243.958 46.4814 246.27 45.4782C248.583 44.475 251.242 43.9771 254.248 43.9771C258.733 43.9771 262.344 45.1093 265.088 47.3739C267.832 49.6385 269.296 52.7293 269.488 56.6389H261.329C261.186 54.8759 260.47 53.467 259.183 52.4158C257.896 51.3683 256.155 50.8409 253.96 50.8409C251.766 50.8409 250.169 51.2466 249.022 52.058C247.878 52.8695 247.303 53.9428 247.303 55.2779C247.303 56.3291 247.683 57.2106 248.446 57.9261C249.21 58.6416 250.139 59.2022 251.238 59.6079C252.334 60.0136 253.957 60.5263 256.103 61.1459C258.965 61.9094 261.315 62.6839 263.151 63.4695C264.988 64.2551 266.574 65.4133 267.909 66.9402C269.244 68.4671 269.938 70.4957 269.986 73.0222C269.986 75.2646 269.366 77.2674 268.127 79.034C266.888 80.8007 265.132 82.1838 262.867 83.1833C260.603 84.1865 257.94 84.6845 254.89 84.6845C251.84 84.6845 249.011 84.1239 246.554 83.0026L246.562 83.01Z" fill="#DDDFE4"/>
<path d="M61.9085 20.1772V70.6143C61.9085 83.3388 51.6071 93.6365 38.8863 93.6365C37.2192 93.6365 35.6554 93.4336 34.0916 93.1312C40.0002 99.239 48.2287 103.027 57.4162 103.027C75.2895 103.027 89.8287 88.5356 89.8287 70.6143V20.1772H61.9085Z" fill="white"/>
<path d="M38.8863 84.5521C31.211 84.5521 25 78.3411 25 70.6695V29.1138H52.769V70.6658C52.769 78.3411 46.5579 84.5484 38.8863 84.5484V84.5521Z" fill="white"/>
</svg>
