<svg width="180" height="64" viewBox="0 0 180 64" fill="none" xmlns="http://www.w3.org/2000/svg">
<path d="M176.733 60.28C174.654 60.28 173.155 58.9165 173.155 56.689V56.581C173.155 54.394 174.654 52.936 176.665 52.936C178.42 52.936 180 53.9755 180 56.5V56.9725H174.829C174.883 58.309 175.558 59.065 176.773 59.065C177.759 59.065 178.272 58.6735 178.393 57.985H179.973C179.743 59.47 178.542 60.28 176.733 60.28ZM174.856 55.879H178.38C178.299 54.664 177.678 54.124 176.665 54.124C175.68 54.124 175.018 54.7855 174.856 55.879Z" fill="#3A3B41"/>
<path d="M167.731 60.2799C165.962 60.2799 164.626 59.0244 164.626 56.7294V56.6214C164.626 54.3669 165.962 52.9359 167.798 52.9359C168.946 52.9359 169.661 53.4624 170.053 54.1644V49.8174H171.686V60.1449H170.053V58.9569C169.675 59.6589 168.77 60.2799 167.731 60.2799ZM168.136 58.9839C169.27 58.9839 170.107 58.2279 170.107 56.6484V56.5404C170.107 54.9879 169.391 54.2184 168.203 54.2184C167.002 54.2184 166.3 55.0554 166.3 56.5809V56.6889C166.3 58.2414 167.083 58.9839 168.136 58.9839Z" fill="#3A3B41"/>
<path d="M159.446 60.28C158.15 60.28 157.084 59.659 157.084 58.1875C157.084 56.5405 158.677 55.9465 160.702 55.9465H161.579V55.582C161.579 54.637 161.255 54.1645 160.297 54.1645C159.446 54.1645 159.028 54.5695 158.947 55.2715H157.367C157.502 53.6245 158.812 52.936 160.391 52.936C161.971 52.936 163.213 53.584 163.213 55.5145V60.145H161.606V59.281C161.147 59.8885 160.526 60.28 159.446 60.28ZM159.838 59.1055C160.837 59.1055 161.579 58.579 161.579 57.6745V56.9725H160.742C159.5 56.9725 158.704 57.256 158.704 58.12C158.704 58.714 159.028 59.1055 159.838 59.1055Z" fill="#3A3B41"/>
<path d="M152.363 60.1451V53.0846H153.996V54.4076C154.442 53.5166 155.103 52.9901 156.291 52.9766V54.5021C154.86 54.5156 153.996 54.9746 153.996 56.4731V60.1451H152.363Z" fill="#3A3B41"/>
<path d="M146.83 62.737C144.616 62.737 143.617 61.738 143.428 60.388H145.075C145.21 61.09 145.75 61.495 146.817 61.495C148.086 61.495 148.788 60.8605 148.788 59.5915V58.552C148.396 59.227 147.519 59.8615 146.479 59.8615C144.711 59.8615 143.347 58.5385 143.347 56.5V56.4055C143.347 54.421 144.697 52.936 146.52 52.936C147.681 52.936 148.383 53.4625 148.788 54.1645V53.0845H150.421V59.6185C150.408 61.6975 149.017 62.737 146.83 62.737ZM146.884 58.606C148.018 58.606 148.842 57.796 148.842 56.446V56.3515C148.842 55.015 148.113 54.2185 146.938 54.2185C145.723 54.2185 145.021 55.096 145.021 56.3785V56.4865C145.021 57.796 145.831 58.606 146.884 58.606Z" fill="#3A3B41"/>
<path d="M135.277 62.5615V53.0845H136.91V54.2185C137.302 53.5435 138.179 52.936 139.219 52.936C140.987 52.936 142.351 54.2455 142.351 56.527V56.635C142.351 58.903 141.041 60.28 139.219 60.28C138.098 60.28 137.288 59.7265 136.91 59.038V62.5615H135.277ZM138.814 58.984C140.015 58.984 140.677 58.174 140.677 56.662V56.554C140.677 54.988 139.867 54.2185 138.8 54.2185C137.666 54.2185 136.856 54.988 136.856 56.554V56.662C136.856 58.2415 137.626 58.984 138.814 58.984Z" fill="#3A3B41"/>
<path d="M129.434 60.2802C127.018 60.2802 125.641 58.9572 125.641 56.4732V50.4927H127.45V56.3382C127.45 58.1067 128.017 58.8357 129.448 58.8357C130.838 58.8357 131.54 58.2147 131.54 56.2167V50.4927H133.349V56.3652C133.349 58.8897 131.986 60.2802 129.434 60.2802Z" fill="#3A3B41"/>
<path d="M115.665 62.602L117.002 59.416L114.234 53.0845H115.436L117.596 58.147L119.553 53.0845H120.701L116.799 62.602H115.665Z" fill="#3A3B41"/>
<path d="M110.209 60.2665C109.061 60.2665 108.224 59.686 107.819 58.984V60.145H106.699V49.7095H107.819V54.2725C108.224 53.584 109.183 52.963 110.209 52.963C112.058 52.963 113.422 54.313 113.422 56.5135V56.6215C113.422 58.7815 112.153 60.2665 110.209 60.2665ZM110.101 59.335C111.505 59.335 112.261 58.39 112.261 56.6755V56.5675C112.261 54.7855 111.275 53.8945 110.087 53.8945C108.778 53.8945 107.779 54.7585 107.779 56.5675V56.6755C107.779 58.4845 108.724 59.335 110.101 59.335Z" fill="#3A3B41"/>
<path d="M97.3216 60.2665C95.4721 60.2665 94.1356 58.957 94.1356 56.7565V56.6485C94.1356 54.4885 95.4856 52.963 97.4296 52.963C98.6041 52.963 99.3331 53.53 99.7381 54.2185V49.7095H100.859V60.145H99.7381V58.93C99.3331 59.6185 98.3476 60.2665 97.3216 60.2665ZM97.4431 59.335C98.7526 59.335 99.7786 58.471 99.7786 56.662V56.554C99.7786 54.745 98.9146 53.8945 97.5376 53.8945C96.1336 53.8945 95.2966 54.88 95.2966 56.5945V56.7025C95.2966 58.4845 96.2551 59.335 97.4431 59.335Z" fill="#3A3B41"/>
<path d="M89.8782 60.2664C87.8802 60.2664 86.4627 58.8624 86.4627 56.6889V56.5809C86.4627 54.4479 87.8262 52.9629 89.7702 52.9629C91.4037 52.9629 92.9427 53.9484 92.9427 56.4729V56.8374H87.6237C87.6777 58.4439 88.4472 59.3349 89.8917 59.3349C90.9852 59.3349 91.6197 58.9299 91.7682 58.1064H92.8887C92.6457 59.5239 91.4712 60.2664 89.8782 60.2664ZM87.6642 55.9329H91.7952C91.6872 54.4749 90.9312 53.8944 89.7702 53.8944C88.6227 53.8944 87.8532 54.6774 87.6642 55.9329Z" fill="#3A3B41"/>
<path d="M82.1113 60.1449V53.0844H83.2318V54.3534C83.6773 53.5569 84.2848 53.0034 85.5538 52.9629V54.0159C84.1363 54.0834 83.2318 54.5289 83.2318 56.2704V60.1449H82.1113Z" fill="#3A3B41"/>
<path d="M77.3274 60.2664C75.3294 60.2664 73.9119 58.8624 73.9119 56.6889V56.5809C73.9119 54.4479 75.2754 52.9629 77.2194 52.9629C78.8529 52.9629 80.3919 53.9484 80.3919 56.4729V56.8374H75.0729C75.1269 58.4439 75.8964 59.3349 77.3409 59.3349C78.4344 59.3349 79.0689 58.9299 79.2174 58.1064H80.3379C80.0949 59.5239 78.9204 60.2664 77.3274 60.2664ZM75.1134 55.9329H79.2444C79.1364 54.4749 78.3804 53.8944 77.2194 53.8944C76.0719 53.8944 75.3024 54.6774 75.1134 55.9329Z" fill="#3A3B41"/>
<path d="M65.2695 60.145L63.096 53.0845H64.311L65.958 58.768L67.6725 53.0845H68.6445L70.251 58.768L71.9115 53.0845H73.059L70.8585 60.145H69.6165L68.145 54.853L66.498 60.145H65.2695Z" fill="#3A3B41"/>
<path d="M58.7794 59.3349C60.1969 59.3349 61.0879 58.2684 61.0879 56.6754V56.5809C61.0879 54.9474 60.1834 53.8944 58.7794 53.8944C57.3619 53.8944 56.4709 54.9474 56.4709 56.5674V56.6754C56.4709 58.2819 57.3484 59.3349 58.7794 59.3349ZM58.7659 60.2664C56.7544 60.2664 55.3099 58.7409 55.3099 56.6754V56.5674C55.3099 54.4479 56.7814 52.9629 58.7794 52.9629C60.7774 52.9629 62.2489 54.4344 62.2489 56.5539V56.6619C62.2489 58.7949 60.7774 60.2664 58.7659 60.2664Z" fill="#3A3B41"/>
<path d="M48.2709 60.1452V50.4927H51.0114C52.8609 50.4927 54.3864 51.3027 54.3864 53.3142V53.3682C54.3864 55.4202 52.8474 56.2167 51.0114 56.2167H49.4454V60.1452H48.2709ZM49.4454 55.2852H51.0924C52.4694 55.2852 53.2119 54.6102 53.2119 53.3682V53.3142C53.2119 51.9507 52.4019 51.4377 51.0924 51.4377H49.4454V55.2852Z" fill="#3A3B41"/>
<path d="M101.166 23.8645L108.421 13.9326H103.763L98.7567 20.9465L93.7773 13.9326H89.0122L96.2938 23.9448L88.6909 34.3586H93.3222L98.6496 26.8628L103.977 34.3586H108.769L101.166 23.8645Z" fill="#0E680E"/>
<path d="M19.5693 0.654297V27.3981C19.5693 34.1443 14.1081 39.6055 7.36193 39.6055C6.4785 39.6055 5.64861 39.4984 4.81873 39.3378C7.95088 42.577 12.3145 44.5848 17.1867 44.5848C26.6635 44.5848 34.3734 36.9017 34.3734 27.3981V0.654297H19.5693Z" fill="#20980A"/>
<path d="M7.36191 34.7867C3.29278 34.7867 0 31.4939 0 27.4248V5.39258H14.7238V27.4248C14.7238 31.4939 11.431 34.7867 7.36191 34.7867Z" fill="#0E680E"/>
<path d="M132.675 24.1587C132.675 30.6104 127.91 34.9472 122.556 34.9472C119.477 34.9472 116.907 33.8764 115.14 32.0292V41.7202H110.857V13.9323H115.14V16.2881C116.907 14.4409 119.45 13.3701 122.556 13.3701C127.91 13.3701 132.675 17.7337 132.675 24.1587ZM128.526 24.1587C128.526 19.8754 125.608 17.1715 121.86 17.1715C118.487 17.1715 115.14 19.9021 115.14 24.1587C115.14 28.4152 118.487 31.1458 121.86 31.1458C125.608 31.1458 128.526 28.4687 128.526 24.1587Z" fill="#20980A"/>
<path d="M156.26 34.3587H151.977V32.0028C150.21 33.85 147.64 34.9208 144.561 34.9208C139.207 34.9208 134.442 30.6108 134.442 24.1323C134.442 17.6538 139.207 13.3438 144.561 13.3438C147.64 13.3438 150.21 14.4146 151.977 16.2617V13.9059H156.26V34.3587ZM152.003 24.1591C152.003 19.8758 148.657 17.1719 145.284 17.1719C141.536 17.1719 138.618 19.9025 138.618 24.1591C138.618 28.4156 141.536 31.1462 145.284 31.1462C148.657 31.1462 152.003 28.4691 152.003 24.1591Z" fill="#20980A"/>
<path d="M83.5777 28.5223C82.1321 30.6907 80.0708 31.2261 78.063 31.2261C75.0647 31.2261 72.3073 28.9506 71.879 25.1759H88.4232V23.7036C88.209 17.5731 83.6848 13.3701 78.2236 13.3701C72.4679 13.3701 67.6492 17.6802 67.6492 24.1854C67.6492 30.6907 72.4947 34.9204 78.063 34.9204C82.5872 34.9204 86.2012 32.7788 87.8878 28.4955H83.5777V28.5223ZM78.2236 17.1448C81.0345 17.1448 83.3636 18.8045 84.0328 22.1241H72.0128C72.6553 18.8313 75.5466 17.1448 78.2236 17.1448Z" fill="#0E680E"/>
<path d="M175.853 13.9326V23.8297C175.826 27.9738 172.614 30.5919 169.351 30.5919C165.723 30.5919 162.899 28.0006 162.899 23.8297V13.9326H158.883V23.8297C158.883 30.0485 163.496 34.2702 168.676 34.2702C171.656 34.2702 174.143 33.2342 175.853 31.4459V31.9385C175.853 35.5927 173.495 38.7249 169.766 38.7249C166.036 38.7249 164.663 37.1695 163.185 34.8645L160 36.9633C161.579 39.9161 163.989 42.4808 169.766 42.4808C175.931 42.4808 180 37.7906 180 32.0402V13.9326H175.856H175.853Z" fill="#20980A"/>
<path d="M65.1863 0.600586H61.0101V34.3583H65.1863V0.600586Z" fill="#0E680E"/>
<path d="M51.2656 9.19394C51.2656 5.60668 53.1931 4.3217 55.7631 4.3217C56.941 4.3217 57.8244 4.50909 58.5472 4.80357V1.16277C57.8512 0.895062 56.7536 0.600586 55.0938 0.600586C50.5428 0.600586 47.1697 3.43827 47.1697 9.32779V12.5188H43.6093V16.1596H47.1697V34.3315H51.2656V16.1596H57.7174V12.5188H51.2656V9.19394Z" fill="#0E680E"/>
</svg>
