<svg width="180" height="64" viewBox="0 0 180 64" fill="none" xmlns="http://www.w3.org/2000/svg">
<path d="M176.733 60.281C174.654 60.281 173.156 58.9175 173.156 56.69V56.582C173.156 54.395 174.654 52.937 176.666 52.937C178.421 52.937 180 53.9765 180 56.501V56.9735H174.83C174.884 58.31 175.559 59.066 176.774 59.066C177.759 59.066 178.272 58.6745 178.394 57.986H179.973C179.744 59.471 178.542 60.281 176.733 60.281ZM174.857 55.88H178.38C178.299 54.665 177.678 54.125 176.666 54.125C175.68 54.125 175.019 54.7865 174.857 55.88Z" fill="#3A3B41"/>
<path d="M167.731 60.2809C165.963 60.2809 164.626 59.0254 164.626 56.7304V56.6224C164.626 54.3679 165.963 52.9369 167.799 52.9369C168.946 52.9369 169.662 53.4634 170.053 54.1654V49.8184H171.687V60.1459H170.053V58.9579C169.675 59.6599 168.771 60.2809 167.731 60.2809ZM168.136 58.9849C169.27 58.9849 170.107 58.2289 170.107 56.6494V56.5414C170.107 54.9889 169.392 54.2194 168.204 54.2194C167.002 54.2194 166.3 55.0564 166.3 56.5819V56.6899C166.3 58.2424 167.083 58.9849 168.136 58.9849Z" fill="#3A3B41"/>
<path d="M159.446 60.281C158.15 60.281 157.084 59.66 157.084 58.1885C157.084 56.5415 158.677 55.9475 160.702 55.9475H161.579V55.583C161.579 54.638 161.255 54.1655 160.297 54.1655C159.446 54.1655 159.028 54.5705 158.947 55.2725H157.367C157.502 53.6255 158.812 52.937 160.391 52.937C161.971 52.937 163.213 53.585 163.213 55.5155V60.146H161.606V59.282C161.147 59.8895 160.526 60.281 159.446 60.281ZM159.838 59.1065C160.837 59.1065 161.579 58.58 161.579 57.6755V56.9735H160.742C159.5 56.9735 158.704 57.257 158.704 58.121C158.704 58.715 159.028 59.1065 159.838 59.1065Z" fill="#3A3B41"/>
<path d="M152.363 60.146V53.0855H153.996V54.4085C154.442 53.5175 155.103 52.991 156.291 52.9775V54.503C154.86 54.5165 153.996 54.9755 153.996 56.474V60.146H152.363Z" fill="#3A3B41"/>
<path d="M146.83 62.738C144.616 62.738 143.617 61.739 143.428 60.389H145.075C145.21 61.091 145.75 61.496 146.817 61.496C148.086 61.496 148.788 60.8615 148.788 59.5925V58.553C148.396 59.228 147.519 59.8625 146.479 59.8625C144.711 59.8625 143.347 58.5395 143.347 56.501V56.4065C143.347 54.422 144.697 52.937 146.52 52.937C147.681 52.937 148.383 53.4635 148.788 54.1655V53.0855H150.421V59.6195C150.408 61.6985 149.017 62.738 146.83 62.738ZM146.884 58.607C148.018 58.607 148.842 57.797 148.842 56.447V56.3525C148.842 55.016 148.113 54.2195 146.938 54.2195C145.723 54.2195 145.021 55.097 145.021 56.3795V56.4875C145.021 57.797 145.831 58.607 146.884 58.607Z" fill="#3A3B41"/>
<path d="M135.277 62.5625V53.0855H136.91V54.2195C137.302 53.5445 138.179 52.937 139.219 52.937C140.987 52.937 142.351 54.2465 142.351 56.528V56.636C142.351 58.904 141.041 60.281 139.219 60.281C138.098 60.281 137.288 59.7275 136.91 59.039V62.5625H135.277ZM138.814 58.985C140.015 58.985 140.677 58.175 140.677 56.663V56.555C140.677 54.989 139.867 54.2195 138.8 54.2195C137.666 54.2195 136.856 54.989 136.856 56.555V56.663C136.856 58.2425 137.626 58.985 138.814 58.985Z" fill="#3A3B41"/>
<path d="M129.434 60.2812C127.018 60.2812 125.641 58.9582 125.641 56.4742V50.4937H127.45V56.3392C127.45 58.1077 128.017 58.8367 129.448 58.8367C130.838 58.8367 131.54 58.2157 131.54 56.2177V50.4937H133.349V56.3662C133.349 58.8907 131.986 60.2812 129.434 60.2812Z" fill="#3A3B41"/>
<path d="M115.665 62.6029L117.002 59.4169L114.234 53.0854H115.436L117.596 58.1479L119.553 53.0854H120.701L116.799 62.6029H115.665Z" fill="#3A3B41"/>
<path d="M110.209 60.2674C109.061 60.2674 108.224 59.687 107.819 58.985V60.146H106.699V49.7104H107.819V54.2734C108.224 53.5849 109.183 52.9639 110.209 52.9639C112.058 52.9639 113.422 54.314 113.422 56.5145V56.6224C113.422 58.7824 112.153 60.2674 110.209 60.2674ZM110.101 59.3359C111.505 59.3359 112.261 58.3909 112.261 56.6764V56.5684C112.261 54.7864 111.275 53.8954 110.087 53.8954C108.778 53.8954 107.779 54.7594 107.779 56.5684V56.6764C107.779 58.4854 108.724 59.3359 110.101 59.3359Z" fill="#3A3B41"/>
<path d="M101.166 23.864L108.421 13.9321H103.763L98.7567 20.946L93.7773 13.9321H89.0122L96.2938 23.9443L88.6909 34.3581H93.3222L98.6496 26.8623L103.977 34.3581H108.769L101.166 23.864Z" fill="#3A3B41"/>
<path d="M19.5693 0.654297V27.3981C19.5693 34.1443 14.1081 39.6055 7.36193 39.6055C6.4785 39.6055 5.64861 39.4984 4.81873 39.3378C7.95088 42.577 12.3145 44.5848 17.1867 44.5848C26.6635 44.5848 34.3734 36.9017 34.3734 27.3981V0.654297H19.5693Z" fill="#686C78"/>
<path d="M7.36191 34.7867C3.29278 34.7867 0 31.4939 0 27.4248V5.39258H14.7238V27.4248C14.7238 31.4939 11.431 34.7867 7.36191 34.7867Z" fill="#686C78"/>
<path d="M132.675 24.1587C132.675 30.6104 127.91 34.9472 122.556 34.9472C119.477 34.9472 116.907 33.8764 115.14 32.0292V41.7202H110.857V13.9323H115.14V16.2881C116.907 14.4409 119.45 13.3701 122.556 13.3701C127.91 13.3701 132.675 17.7337 132.675 24.1587ZM128.526 24.1587C128.526 19.8754 125.608 17.1715 121.86 17.1715C118.487 17.1715 115.14 19.9021 115.14 24.1587C115.14 28.4152 118.487 31.1458 121.86 31.1458C125.608 31.1458 128.526 28.4687 128.526 24.1587Z" fill="#686C78"/>
<path d="M156.26 34.3582H151.977V32.0024C150.21 33.8495 147.64 34.9203 144.561 34.9203C139.207 34.9203 134.442 30.6103 134.442 24.1318C134.442 17.6533 139.207 13.3433 144.561 13.3433C147.64 13.3433 150.21 14.4141 151.977 16.2613V13.9054H156.26V34.3582ZM152.003 24.1586C152.003 19.8753 148.657 17.1715 145.284 17.1715C141.536 17.1715 138.618 19.9021 138.618 24.1586C138.618 28.4151 141.536 31.1457 145.284 31.1457C148.657 31.1457 152.003 28.4686 152.003 24.1586Z" fill="#686C78"/>
<path d="M83.5777 28.5223C82.1321 30.6907 80.0708 31.2261 78.063 31.2261C75.0647 31.2261 72.3073 28.9506 71.879 25.1759H88.4232V23.7036C88.209 17.5731 83.6848 13.3701 78.2236 13.3701C72.4679 13.3701 67.6492 17.6802 67.6492 24.1854C67.6492 30.6907 72.4947 34.9204 78.063 34.9204C82.5872 34.9204 86.2012 32.7788 87.8878 28.4955H83.5777V28.5223ZM78.2236 17.1448C81.0345 17.1448 83.3636 18.8045 84.0328 22.1241H72.0128C72.6553 18.8313 75.5466 17.1448 78.2236 17.1448Z" fill="#3A3B41"/>
<path d="M175.853 13.9321V23.8292C175.826 27.9733 172.614 30.5915 169.351 30.5915C165.723 30.5915 162.899 28.0001 162.899 23.8292V13.9321H158.883V23.8292C158.883 30.048 163.496 34.2697 168.676 34.2697C171.656 34.2697 174.143 33.2337 175.853 31.4454V31.938C175.853 35.5922 173.495 38.7244 169.766 38.7244C166.036 38.7244 164.663 37.169 163.185 34.864L160 36.9629C161.579 39.9157 163.989 42.4803 169.766 42.4803C175.931 42.4803 180 37.7901 180 32.0397V13.9321H175.856H175.853Z" fill="#686C78"/>
<path d="M65.1863 0.600586H61.0101V34.3583H65.1863V0.600586Z" fill="#3A3B41"/>
<path d="M51.2656 9.19394C51.2656 5.60668 53.1931 4.3217 55.7631 4.3217C56.941 4.3217 57.8244 4.50909 58.5472 4.80357V1.16277C57.8512 0.895062 56.7536 0.600586 55.0938 0.600586C50.5428 0.600586 47.1697 3.43827 47.1697 9.32779V12.5188H43.6093V16.1596H47.1697V34.3315H51.2656V16.1596H57.7174V12.5188H51.2656V9.19394Z" fill="#3A3B41"/>
</svg>
