<svg width="180" height="45" viewBox="0 0 180 45" fill="none" xmlns="http://www.w3.org/2000/svg">
<path d="M101.166 23.864L108.421 13.9321H103.763L98.7567 20.946L93.7773 13.9321H89.0122L96.2938 23.9443L88.6909 34.3581H93.3222L98.6496 26.8623L103.977 34.3581H108.769L101.166 23.864Z" fill="#DDDFE4"/>
<path d="M19.5693 0.654297V27.3981C19.5693 34.1443 14.1081 39.6055 7.36193 39.6055C6.4785 39.6055 5.64861 39.4984 4.81873 39.3378C7.95088 42.577 12.3145 44.5848 17.1867 44.5848C26.6635 44.5848 34.3734 36.9017 34.3734 27.3981V0.654297H19.5693Z" fill="white"/>
<path d="M7.36191 34.7867C3.29278 34.7867 0 31.4939 0 27.4248V5.39258H14.7238V27.4248C14.7238 31.4939 11.431 34.7867 7.36191 34.7867Z" fill="white"/>
<path d="M132.675 24.1587C132.675 30.6104 127.91 34.9472 122.556 34.9472C119.477 34.9472 116.907 33.8764 115.14 32.0292V41.7202H110.857V13.9323H115.14V16.2881C116.907 14.4409 119.45 13.3701 122.556 13.3701C127.91 13.3701 132.675 17.7337 132.675 24.1587ZM128.526 24.1587C128.526 19.8754 125.608 17.1715 121.86 17.1715C118.487 17.1715 115.14 19.9021 115.14 24.1587C115.14 28.4152 118.487 31.1458 121.86 31.1458C125.608 31.1458 128.526 28.4687 128.526 24.1587Z" fill="white"/>
<path d="M156.26 34.3582H151.977V32.0024C150.21 33.8495 147.64 34.9203 144.561 34.9203C139.207 34.9203 134.442 30.6103 134.442 24.1318C134.442 17.6533 139.207 13.3433 144.561 13.3433C147.64 13.3433 150.21 14.4141 151.977 16.2613V13.9054H156.26V34.3582ZM152.003 24.1586C152.003 19.8753 148.657 17.1715 145.284 17.1715C141.536 17.1715 138.618 19.9021 138.618 24.1586C138.618 28.4151 141.536 31.1457 145.284 31.1457C148.657 31.1457 152.003 28.4686 152.003 24.1586Z" fill="white"/>
<path d="M83.5777 28.5223C82.1321 30.6907 80.0708 31.2261 78.063 31.2261C75.0647 31.2261 72.3073 28.9506 71.879 25.1759H88.4232V23.7036C88.209 17.5731 83.6848 13.3701 78.2236 13.3701C72.4679 13.3701 67.6492 17.6802 67.6492 24.1854C67.6492 30.6907 72.4947 34.9204 78.063 34.9204C82.5872 34.9204 86.2012 32.7788 87.8878 28.4955H83.5777V28.5223ZM78.2236 17.1448C81.0345 17.1448 83.3636 18.8045 84.0328 22.1241H72.0128C72.6553 18.8313 75.5466 17.1448 78.2236 17.1448Z" fill="#DDDFE4"/>
<path d="M175.853 13.9321V23.8292C175.826 27.9733 172.614 30.5915 169.351 30.5915C165.723 30.5915 162.899 28.0001 162.899 23.8292V13.9321H158.883V23.8292C158.883 30.048 163.496 34.2697 168.676 34.2697C171.656 34.2697 174.143 33.2337 175.853 31.4454V31.938C175.853 35.5922 173.495 38.7244 169.766 38.7244C166.036 38.7244 164.663 37.169 163.185 34.864L160 36.9629C161.579 39.9157 163.989 42.4803 169.766 42.4803C175.931 42.4803 180 37.7901 180 32.0397V13.9321H175.856H175.853Z" fill="white"/>
<path d="M65.1863 0.600586H61.0101V34.3583H65.1863V0.600586Z" fill="#DDDFE4"/>
<path d="M51.2656 9.19394C51.2656 5.60668 53.1931 4.3217 55.7631 4.3217C56.941 4.3217 57.8244 4.50909 58.5472 4.80357V1.16277C57.8512 0.895062 56.7536 0.600586 55.0938 0.600586C50.5428 0.600586 47.1697 3.43827 47.1697 9.32779V12.5188H43.6093V16.1596H47.1697V34.3315H51.2656V16.1596H57.7174V12.5188H51.2656V9.19394Z" fill="#DDDFE4"/>
</svg>
